<svg id="airO4M.tif" xmlns="http://www.w3.org/2000/svg" width="165.286" height="135.793" viewBox="0 0 165.286 135.793">
  <g id="Group_799" data-name="Group 799">
    <path id="Path_7089" data-name="Path 7089" d="M889.912,408.757a94.177,94.177,0,0,1-1.957,10.4,52.043,52.043,0,0,1-43.661,37.387,50.768,50.768,0,0,1-35.807-8.729,1.752,1.752,0,0,0-2.376,0,52.029,52.029,0,0,1-80.363-32.247c-5.7-26.493,10.885-53.607,37.121-60.677.413-.111.821-.241,1.477-.435-.723-.846-1.354-1.6-2-2.34q-5.673-6.5-11.35-13c-1.584-1.816-1.592-2.595-.052-4.486,3.225-3.959,6.478-7.894,9.659-11.888a3.848,3.848,0,0,1,3.314-1.568q12.744.058,25.488,0a3.86,3.86,0,0,1,3.33,1.541c3.251,4.075,6.576,8.091,9.861,12.14,1.277,1.574,1.254,2.544-.116,4.121q-6.133,7.061-12.286,14.106c-.344.4-.81.713-.953,1.294a4.2,4.2,0,0,0,1.772.626,49.152,49.152,0,0,1,14.918,7.081,2,2,0,0,0,2.767-.047c30.7-21.124,73.729-3.193,80.3,33.441.33,1.84.611,3.689.914,5.535Zm-82.625,16.591a37.674,37.674,0,0,0,5.784-14.685,2.388,2.388,0,0,1,2.809-2.215c1.43.239,2.185,1.509,1.91,3.181a41.664,41.664,0,0,1-5.464,14.875c-1.932,3.209-1.892,3.174.917,5.825.913.861,1.338.8,2.033-.231,7.8-11.567,10.475-24.182,7.256-37.775-5.893-24.882-29.4-40.119-54.591-35.611-25.31,4.53-42.592,29.8-37.59,54.972a47.018,47.018,0,0,0,45.988,38.4,45.839,45.839,0,0,0,25.807-7.4c.966-.612,1.209-1.032.19-1.807a9.185,9.185,0,0,1-1.831-1.81c-.766-1.038-1.416-.989-2.507-.355-11.59,6.737-23.776,7.835-36.272,3.093a41.479,41.479,0,0,1-26.338-44.319,40.372,40.372,0,0,1,6.849-17.886c1.069-1.56,2.847-1.8,3.952-.576,1.064,1.181.7,2.328-.081,3.514a36.438,36.438,0,0,0-5.647,26.913c4.128,24.727,32.678,38.132,54.381,25.541,1.152-.668,1.316-1.064.514-2.2a51.785,51.785,0,0,1-.023-59.561c.8-1.139.656-1.575-.5-2.243a36.936,36.936,0,0,0-41.042,3.215,15.618,15.618,0,0,1-1.526,1.185,2.392,2.392,0,0,1-3.03-3.646,8.5,8.5,0,0,1,1.081-.965c23.264-19.149,58.991-7.593,66.623,21.552a33,33,0,0,1,1.121,6.338,2.387,2.387,0,0,1-4.723.683,10.8,10.8,0,0,1-.218-1.269,37.222,37.222,0,0,0-4.985-14.182c-.752-1.281-1.092-1.026-1.733.05a36.609,36.609,0,0,0-4.794,25.111A34.769,34.769,0,0,0,807.287,425.348Zm30.018,26.763a56.47,56.47,0,0,0,8.853-.724c31.62-5.372,48.72-41.264,32.969-69.239a47.183,47.183,0,0,0-46.664-23.977A46.188,46.188,0,0,0,812.32,365.4c-.824.533-1.092.9-.186,1.612a12.2,12.2,0,0,1,2.057,2.041c.7.9,1.249.924,2.24.323a40.387,40.387,0,0,1,26.436-5.7A41.685,41.685,0,0,1,878.21,415.54a39.608,39.608,0,0,1-4.719,11.07,2.421,2.421,0,1,1-4.171-2.44c.12-.24.263-.469.4-.7a36.912,36.912,0,0,0,4.4-25.02c-4.087-24.646-32.9-38.082-54.452-25.391-1.143.673-1.177,1.081-.442,2.13a51.792,51.792,0,0,1-.051,59.7c-.68.971-.744,1.368.389,2a36.638,36.638,0,0,0,27.887,3.619,36.007,36.007,0,0,0,15.742-8.775c1.652-1.535,3.665-1.228,4.308.613.44,1.259-.169,2.157-1.061,2.972-10.05,9.186-21.9,12.9-35.268,10.733C802.1,441.342,787.1,408.7,802.248,383.5c1.927-3.206,1.884-3.161-.778-5.707-.987-.943-1.46-.943-2.25.223a47.156,47.156,0,0,0,38.084,74.094ZM770.427,339.328c1.559,4.508,3.032,8.706,4.449,12.923a1.037,1.037,0,0,0,1.365.739c.724-.129,1.749.524,2.132-.545,1.465-4.092,2.86-8.209,4.288-12.315.194-.559.013-.8-.572-.8C778.277,339.329,774.466,339.328,770.427,339.328Zm6.249-4.847c1.716,0,3.433-.029,5.149.012.911.022,1.139-.308.855-1.151-.717-2.13-1.435-4.261-2.08-6.413a1.114,1.114,0,0,0-1.282-.9c-1.77.019-3.54.025-5.31,0a1.132,1.132,0,0,0-1.266.937c-.653,2.151-1.329,4.3-2.071,6.417-.328.939.013,1.122.856,1.108C773.243,334.46,774.959,334.48,776.676,334.48Zm6.666,18.515.328.173,12.073-13.837c-2.624,0-4.854,0-7.085,0a.773.773,0,0,0-.8.627Q785.614,346.481,783.341,352.995Zm-13.523.312a2.307,2.307,0,0,0,.053-.646q-2.152-6.3-4.326-12.6c-.12-.348-.245-.722-.737-.721-2.266,0-4.531,0-7.181,0Zm-12.481-18.83c2.668,0,4.906-.015,7.144.009a.945.945,0,0,0,1.012-.806c.709-2.251,1.442-4.5,2.152-6.746.086-.271.328-.579-.089-.831-.54-.327-3.389.009-3.813.524C761.7,329.11,759.672,331.61,757.337,334.477Zm38.68,0c-1.984-2.443-3.819-4.476-5.378-6.7a4.01,4.01,0,0,0-4.111-1.765c-.789.071-1.079.252-.813,1.051.729,2.186,1.456,4.374,2.136,6.575a1.03,1.03,0,0,0,1.149.85C791.193,334.466,793.386,334.479,796.017,334.479Z" transform="translate(-724.625 -321.177)" fill="#fff"/>
  </g>
</svg>
