<svg id="Group_823" data-name="Group 823" xmlns="http://www.w3.org/2000/svg" xmlns:xlink="http://www.w3.org/1999/xlink" width="352.843" height="402.471" viewBox="0 0 352.843 402.471">
  <defs>
    <clipPath id="clip-path">
      <rect id="Rectangle_35" data-name="Rectangle 35" width="352.843" height="402.471" fill="none"/>
    </clipPath>
  </defs>
  <g id="Group_37" data-name="Group 37" transform="translate(0 0)">
    <g id="Group_36" data-name="Group 36" clip-path="url(#clip-path)">
      <path id="Path_175" data-name="Path 175" d="M118.443,251.652q3.016.8,6.134,1.446" transform="translate(41.463 145.245)" fill="none" stroke="#1e7b80" stroke-linecap="round" stroke-linejoin="round" stroke-width="2"/>
      <path id="Path_176" data-name="Path 176" d="M6.4,382.185c70.3,9.775,169.116-38.314,177.075-144.836C191.138,134.841,113.987,47.761,1,30.269" transform="translate(167.264 17.47)" fill="none" stroke="#1e7b80" stroke-linecap="round" stroke-linejoin="round" stroke-width="2" stroke-dasharray="7.859 4.912"/>
      <path id="Path_177" data-name="Path 177" d="M125.735,30.2q-3.113-.435-6.261-.8" transform="translate(38.678 16.97)" fill="none" stroke="#1e7b80" stroke-linecap="round" stroke-linejoin="round" stroke-width="2"/>
      <path id="Path_178" data-name="Path 178" d="M124.171,40.418,159.1,3.237,140.047.276c-6.52-1.013-11.859.547-22.509,8.127-13.549,9.643-23.061,15.846-26.717,17.74-5.4,2.8-23.071,5.025-30.531,3.866l-.845,5.43,61.065,10.2Z" transform="translate(99.993 0)" fill="#fff"/>
      <path id="Path_179" data-name="Path 179" d="M64.221,30.206a.494.494,0,0,0,.293-.047c4.071-2.109,14.33-8.92,26.776-17.778,10.026-7.135,15.41-9.089,22.158-8.04L124.5,6.057a.48.48,0,0,0,.147-.948l-11.05-1.716C106.555,2.3,101,4.294,90.734,11.6,75.9,22.158,67.235,27.67,64.074,29.307a.479.479,0,0,0,.147.9" transform="translate(127.148 1.797)" fill="#1e7b80"/>
      <path id="Path_180" data-name="Path 180" d="M305.753,36.34a28.663,28.663,0,0,1-32.72,23.922l-153.9-23.907c-21.06-3.273-38.213-12.15-37.522-16.6S101.421,6.03,117.895,7.16C136.531,8.434,305.753,36.34,305.753,36.34" transform="translate(-81.589 4.078)" fill="#fff"/>
      <path id="Path_181" data-name="Path 181" d="M88.693,31.963l153.9,23.907a28.67,28.67,0,0,0,31.233-18.243l44.7-35.575L283.6,39.234a28.663,28.663,0,0,1-32.72,23.922L96.975,39.249C76.388,36.051,59.546,27.5,59.443,22.959c6.9,3.583,17.459,7.173,29.25,9" transform="translate(-59.432 1.184)" fill="#d3f2ff"/>
      <path id="Path_182" data-name="Path 182" d="M79.027,27.348a6.21,6.21,0,0,0,5.184,7.091c3.386.527,49.155,4.823,49.682,1.432S89.507,22.691,86.118,22.164a6.213,6.213,0,0,0-7.091,5.184" transform="translate(94.425 12.749)" fill="#d3f2ff"/>
      <path id="Path_183" data-name="Path 183" d="M79.03,25.424a6.21,6.21,0,0,0,5.184,7.091c3.386.527,49.155,4.823,49.682,1.432Z" transform="translate(94.422 14.674)" fill="#52cece"/>
      <path id="Path_184" data-name="Path 184" d="M131.6,27.2a8.357,8.357,0,0,0,6.974,9.542c4.561.708,66.159,6.49,66.865,1.927s-59.737-17.738-64.3-18.447A8.358,8.358,0,0,0,131.6,27.2" transform="translate(-60.001 11.614)" fill="#d3f2ff"/>
      <path id="Path_185" data-name="Path 185" d="M131.6,24.61a8.357,8.357,0,0,0,6.974,9.542c4.561.708,66.159,6.49,66.865,1.927Z" transform="translate(-60.004 14.204)" fill="#52cece"/>
      <path id="Path_186" data-name="Path 186" d="M192.191,27.884a5.445,5.445,0,0,0,6.208-4.539l.643-4.134a5.439,5.439,0,0,0-10.748-1.67l-.642,4.135a5.443,5.443,0,0,0,4.539,6.208m2.063-13.278a3.82,3.82,0,0,1,3.184,4.356L196.8,23.1a3.816,3.816,0,0,1-7.542-1.172l.643-4.134a3.82,3.82,0,0,1,4.356-3.186" transform="translate(-142.119 7.468)" fill="#1e7b80"/>
      <path id="Path_187" data-name="Path 187" d="M116.2,26.787a2.409,2.409,0,1,0,2.749-2.009,2.406,2.406,0,0,0-2.749,2.009" transform="translate(48.635 14.284)" fill="#1e7b80"/>
      <path id="Path_188" data-name="Path 188" d="M124.272,25.533a2.409,2.409,0,1,0,2.749-2.009,2.409,2.409,0,0,0-2.749,2.009" transform="translate(27.832 13.56)" fill="#1e7b80"/>
      <path id="Path_189" data-name="Path 189" d="M132.341,24.279a2.41,2.41,0,1,0,2.752-2.009,2.412,2.412,0,0,0-2.752,2.009" transform="translate(7.031 12.836)" fill="#1e7b80"/>
      <path id="Path_190" data-name="Path 190" d="M140.414,23.025a2.409,2.409,0,1,0,2.751-2.009,2.412,2.412,0,0,0-2.751,2.009" transform="translate(-13.773 12.113)" fill="#1e7b80"/>
      <path id="Path_191" data-name="Path 191" d="M148.484,21.771a2.41,2.41,0,1,0,2.752-2.009,2.41,2.41,0,0,0-2.752,2.009" transform="translate(-34.572 11.389)" fill="#1e7b80"/>
      <path id="Path_192" data-name="Path 192" d="M156.555,20.517a2.41,2.41,0,1,0,2.752-2.009,2.409,2.409,0,0,0-2.752,2.009" transform="translate(-55.373 10.665)" fill="#1e7b80"/>
      <path id="Path_193" data-name="Path 193" d="M164.627,19.264a2.41,2.41,0,1,0,2.752-2.009,2.41,2.41,0,0,0-2.752,2.009" transform="translate(-76.173 9.942)" fill="#1e7b80"/>
      <path id="Path_194" data-name="Path 194" d="M172.7,18.01A2.409,2.409,0,1,0,175.451,16,2.41,2.41,0,0,0,172.7,18.01" transform="translate(-96.974 9.218)" fill="#1e7b80"/>
      <path id="Path_195" data-name="Path 195" d="M180.77,16.756a2.409,2.409,0,1,0,2.749-2.009,2.407,2.407,0,0,0-2.749,2.009" transform="translate(-117.775 8.494)" fill="#1e7b80"/>
      <path id="Path_196" data-name="Path 196" d="M230.291,11.007a.827.827,0,0,1,.738.691.812.812,0,0,1-.511.877c-.279.107-6.88,2.605-12.619,2.752a78.612,78.612,0,0,1-11.4-1.189c-2.795-.435-5.5-.9-7.561-1.262A58.628,58.628,0,0,1,209.6,8.618c7.876,1.385,20.532,2.377,20.689,2.389" transform="translate(-191.958 4.974)" fill="#1e7b80"/>
    </g>
  </g>
</svg>
