<svg id="Group_46" data-name="Group 46" xmlns="http://www.w3.org/2000/svg" xmlns:xlink="http://www.w3.org/1999/xlink" width="210.812" height="478.45" viewBox="0 0 210.812 478.45">
  <defs>
    <clipPath id="clip-path">
      <rect id="Rectangle_40" data-name="Rectangle 40" width="210.812" height="478.45" fill="none"/>
    </clipPath>
    <clipPath id="clip-path-3">
      <rect id="Rectangle_38" data-name="Rectangle 38" width="69.991" height="86.796" fill="none"/>
    </clipPath>
  </defs>
  <g id="Group_45" data-name="Group 45" clip-path="url(#clip-path)">
    <g id="Group_44" data-name="Group 44">
      <g id="Group_43" data-name="Group 43" clip-path="url(#clip-path)">
        <path id="Path_197" data-name="Path 197" d="M185.375,467.882s-20.023,17.706-3.4,37.7l40.092-40.1-17.8-13.2Z" transform="translate(-11.259 -29.036)" fill="#182b30"/>
        <path id="Path_198" data-name="Path 198" d="M177.869,499.536a29.1,29.1,0,0,0,4.271,6.683l40.092-40.1-5.206-3.86Z" transform="translate(-11.419 -29.676)" fill="#fff"/>
        <path id="Path_199" data-name="Path 199" d="M62.271,342.26,54.877,474.6l25.5,5.083,20.147-130.429Z" transform="translate(-3.523 -21.973)" fill="#fba598"/>
        <path id="Path_200" data-name="Path 200" d="M61.77,359.149a165.324,165.324,0,0,0,36.385,8.272l2.807-18.17L62.714,342.26Z" transform="translate(-3.966 -21.973)" fill="#ef8b83"/>
        <path id="Path_201" data-name="Path 201" d="M124,345.657s6.9,36.981,14.581,53.954c8.919,19.71,41.682,63.549,41.682,63.549,8.431-1.5,16.821-10.482,22.138-16.263,0,0-25.725-39.722-33.814-56.921-6.85-14.567-9.291-47.39-9.291-47.39Z" transform="translate(-7.961 -21.994)" fill="#fba598"/>
        <path id="Path_202" data-name="Path 202" d="M128.9,368.248a152.805,152.805,0,0,0,32.8-5.4c-1.712-10.92-2.406-20.259-2.406-20.259L124,345.657s1.931,10.341,4.9,22.59" transform="translate(-7.961 -21.994)" fill="#ef8b83"/>
        <path id="Path_203" data-name="Path 203" d="M53.429,481.272S27.28,475.736,21.129,501l56.094,8.314V487.159Z" transform="translate(-1.356 -30.864)" fill="#182b30"/>
        <path id="Path_204" data-name="Path 204" d="M25.593,494.468a29.116,29.116,0,0,0-2.824,7.412l56.094,8.315v-6.479Z" transform="translate(-1.462 -31.744)" fill="#fff"/>
        <path id="Path_205" data-name="Path 205" d="M72,109.665c-6.67-.045-12.072-5.818-12.072-12.922,0-7.132,5.444-12.922,12.15-12.922H188.905v25.845H72Z" transform="translate(-3.847 -5.381)" fill="#20404f"/>
        <path id="Path_206" data-name="Path 206" d="M198.026,83.82c6.711,0,12.15,5.785,12.15,12.922s-5.44,12.922-12.15,12.922-12.15-5.786-12.15-12.922,5.44-12.922,12.15-12.922" transform="translate(-11.933 -5.381)" fill="#182b30"/>
        <path id="Path_207" data-name="Path 207" d="M209.2,127.815a16.378,16.378,0,0,0-16.376-16.377h-61.8V179.98H199.3a9.9,9.9,0,0,0,9.9-9.9Z" transform="translate(-8.411 -7.154)" fill="#dea318"/>
        <path id="Rectangle_36" data-name="Rectangle 36" d="M19.432,0H90.367A19.431,19.431,0,0,1,109.8,19.431V125.838a19.431,19.431,0,0,1-19.431,19.431H19.432A19.432,19.432,0,0,1,0,125.837V19.432A19.432,19.432,0,0,1,19.432,0Z" transform="translate(84.535 107.036)" fill="#f5c529"/>
        <path id="Rectangle_37" data-name="Rectangle 37" d="M19.432,0H90.368A19.43,19.43,0,0,1,109.8,19.43V125.838a19.431,19.431,0,0,1-19.431,19.431H19.431A19.431,19.431,0,0,1,0,125.838V19.432A19.432,19.432,0,0,1,19.432,0Z" transform="translate(61.999 107.036)" fill="#dea318"/>
        <path id="Path_208" data-name="Path 208" d="M210.283,231.058H187.536v26.805h15.945a6.8,6.8,0,0,0,6.8-6.8Z" transform="translate(-12.04 -14.834)" fill="#dea318"/>
        <path id="Path_209" data-name="Path 209" d="M74.323,248.563l-11.111,9.956-8.336,86.54s31.284,11.332,53.309,7.085l3.351-32.191,5.665,31.566s39.527-1.988,54.343-12.1l-11.8-92.012Z" transform="translate(-3.523 -15.883)" fill="#2e5d73"/>
        <path id="Path_210" data-name="Path 210" d="M111.206,352l2.844-27.322-.085-1.113-2.115-14.4-16.435-1.4Z" transform="translate(-6.126 -19.759)" fill="#20404f"/>
        <path id="Path_211" data-name="Path 211" d="M81.058,127.006l-2.208-15.99a48.581,48.581,0,0,0-17.424,13.935c-5.91,7.595-16.51,27.929-16.51,27.929l25.405,8.749Z" transform="translate(-2.884 -7.127)" fill="#c84937"/>
        <path id="Path_212" data-name="Path 212" d="M102.313,101.068s-30.18,9.692-32.936,17.71c-5.065,14.731-9.088,136.865-9.088,136.865a112.934,112.934,0,0,0,29.244,7.417l5.648-9.941,8.846,9.976c20.662-1.989,40.622-6.125,59.451-13.737,0,0-2.128-127.032-13.925-134.223-25.292-15.415-47.24-14.067-47.24-14.067" transform="translate(-3.87 -6.487)" fill="#e43b3f"/>
        <path id="Path_213" data-name="Path 213" d="M98.087,136.124a2.287,2.287,0,1,1-2.343,2.286,2.315,2.315,0,0,1,2.343-2.286" transform="translate(-6.147 -8.739)" fill="#fff"/>
        <path id="Path_214" data-name="Path 214" d="M94.634,228.043a2.287,2.287,0,1,1-2.343,2.286,2.315,2.315,0,0,1,2.343-2.286" transform="translate(-5.925 -14.64)" fill="#fff"/>
        <path id="Path_215" data-name="Path 215" d="M95.583,250.983a2.287,2.287,0,1,1-2.343,2.286,2.315,2.315,0,0,1,2.343-2.286" transform="translate(-5.986 -16.113)" fill="#fff"/>
        <path id="Path_216" data-name="Path 216" d="M182.625,161.5l16.047,36.164-20.216,9.161-19.19-29.373Z" transform="translate(-10.225 -10.368)" fill="#ef8b83"/>
        <path id="Path_217" data-name="Path 217" d="M151.923,114.38s6.752,1.689,17.25,14.088c6.575,7.766,22.381,37.049,22.381,37.049l-32.977,17.407s-15.985-35.416-6.654-68.544" transform="translate(-9.566 -7.343)" fill="#c84937"/>
        <path id="Path_218" data-name="Path 218" d="M156.353,115.234c-13.294,38.571-14.617,75.326,16.187,102.011l-2.25,9.028c-45.513-38.1-51.012-70.164-33.671-118.8,5.8,1.427,14.5,3.492,19.733,7.758" transform="translate(-8.187 -6.9)" fill="#f5c529"/>
        <path id="Path_219" data-name="Path 219" d="M59.925,234.422c33.24,2.868,68.266,1.821,103.647,0l.666,10.255c-36.736,1.341-72.576,2.071-104.314,0Z" transform="translate(-3.847 -15.05)" fill="#dea318"/>
        <path id="Path_220" data-name="Path 220" d="M106.093,238.618a4.2,4.2,0,0,0-4.2-4.2H86.61a4.2,4.2,0,0,0-4.2,4.2v5.233a4.2,4.2,0,0,0,4.2,4.2H101.9a4.2,4.2,0,0,0,4.2-4.2Z" transform="translate(-5.291 -15.05)" fill="#20404f"/>
        <path id="Path_221" data-name="Path 221" d="M85.463,108.381c-15.148,28.326-21.157,62.4-23.527,107.285L60.852,207.4c-2.158-41.961-.578-70.372,9.566-91.239a35.269,35.269,0,0,1,15.045-7.779" transform="translate(-3.853 -6.958)" fill="#f5c529"/>
        <path id="Path_222" data-name="Path 222" d="M69.944,225.1c-20.412-21.93-44.451-19.244-44.451-19.244A543.122,543.122,0,0,0,0,142.494c22.9-12.377,51.8,6.476,54.058,8l0-.027c1.965-2.158,35.583-14.523,71.8-7.47l11.579,70.276S83.41,209.618,70.1,224.923Z" transform="translate(0 -8.879)" fill="#fff"/>
        <path id="Path_223" data-name="Path 223" d="M107,143.878c-4.407,8.324-12.392,24.756-12.911,35.169-.391,7.843,15.591,12.15,13.343,19.414-1.1,3.565-7.584,9.452-13.9,14.517a65.291,65.291,0,0,0-9.884,2.544c.621-4.985,6.346-12.328,3.616-13.532s-16.289,6.5-20,6.313c-2.579-.129.126-6.381-2.238-7.421-2.428-1.067-10.053-.124-12.329,1.014-1.78.893-.277,3.731-1.321,5.827l-1.187-.517-1.13-.386c-.171-3.8,1.054-7.091.391-10.547-.914-4.775-2.69-12.616-5.882-18.1-3.46-5.94-13.5-11.873-14.872-17.542s4.1-11.1,6.654-16.462l3.825,1.26,2.636,1.071c-1.294,3.312-5.276,5.111-4.853,8.283.427,3.2,4.532,7.6,7.415,10.919s7.383,5.4,9.95,9.086c3.433,4.931,5.316,18.18,10.654,20.495s16.924-2.729,21.374-6.6c4.391-3.823,3.962-10.975,5.321-16.636,1.774-7.393,4.112-21.535,5.326-27.716l4.091-.3Z" transform="translate(-1.828 -9.237)" fill="#64a37f"/>
        <path id="Path_224" data-name="Path 224" d="M134.375,160.36c-6.229,6.085-13.988,14.5-15.325,19.349-2.182,7.929,10.548,15.416,9.561,22.747-.352,2.607-2.412,6.045-4.939,9.381l1.586-.06,8.109.056s-.252-1.407-.367-2.112c-.706-4.325-4.44-17.872-3.868-23.847.445-4.662,6.5-6.319,7.3-12.006Z" transform="translate(-7.627 -10.295)" fill="#64a37f"/>
        <path id="Path_225" data-name="Path 225" d="M20.509,185.2c6.674.78,15.9-.392,20.03,2.265,4.059,2.61,4.114,10.219,4.751,13.674.43,2.332-.9,4.412-.927,7.055a39.21,39.21,0,0,0-12.888-1.241c.248-5.476.248-11.406-.747-13.214-1.02-1.858-4.262-1.212-7.1-.158l-.459-1.343Z" transform="translate(-1.317 -11.89)" fill="#64a37f"/>
        <path id="Path_226" data-name="Path 226" d="M12.211,141.6c.166,1.252-1.04,1.719-.772,2.574,1.065,3.4,3.2,12.925,7.163,17.845s13.838,9,16.606,11.673c1.042,1,1.407,4,0,4.339-2.916.7-11.664,0-17.5-.166C13.4,166.594,8.632,155.246,3.65,143.848a25.149,25.149,0,0,1,8.561-2.252" transform="translate(-0.234 -9.09)" fill="#64a37f"/>
        <path id="Path_227" data-name="Path 227" d="M111.46,143.878a97.153,97.153,0,0,1,19.509,1.829l2.071,13.593c-6.23,6.086-13.988,14.5-15.325,19.35-2.182,7.929,10.548,15.415,9.561,22.747-.352,2.606-2.412,6.044-4.939,9.38l-8.833.33c-5.886.481-5.518.451-11.034,1.114l-4.481.756c6.319-5.065,12.8-10.952,13.9-14.517,2.249-7.265-13.734-11.571-13.343-19.414.519-10.414,8.5-26.845,12.911-35.169" transform="translate(-6.291 -9.237)" fill="#9adaf0"/>
        <path id="Path_228" data-name="Path 228" d="M12.742,141.576c5.068-.61,12.318-.436,21.544,2.429-2.558,5.362-8.024,10.794-6.654,16.462s11.413,11.6,14.873,17.541c3.191,5.483,4.967,13.325,5.882,18.1.663,3.456-.562,6.75-.391,10.547l-2.67-.91-1.513-.366c.028-2.643,1.357-4.724.926-7.056-.637-3.454-.692-11.064-4.75-13.674-4.13-2.657-13.357-1.485-20.03-2.265l-1.716-4.543c5.832.166,14.58.863,17.5.166,1.407-.335,1.042-3.335,0-4.339C32.971,171,23.1,166.914,19.133,162s-6.1-14.442-7.163-17.845c-.268-.855.938-1.322.772-2.574" transform="translate(-0.766 -9.071)" fill="#9adaf0"/>
        <path id="Path_229" data-name="Path 229" d="M137.138,174.795l5.84,38.345s-3.5-.268-8.906-.381c0,0-.252-1.407-.367-2.111-.706-4.326-4.439-17.872-3.868-23.847.445-4.662,6.5-6.32,7.3-12.006" transform="translate(-8.332 -11.222)" fill="#6bb98f"/>
        <path id="Path_230" data-name="Path 230" d="M97.576,144.361c-1.214,6.181-3.551,20.323-5.326,27.716-1.359,5.661-.93,12.813-5.321,16.636-4.45,3.873-16.035,8.918-21.374,6.6S58.335,179.75,54.9,174.819c-2.568-3.684-7.056-5.751-9.95-9.086s-6.989-7.718-7.415-10.919c-.423-3.171,3.559-4.971,4.853-8.283a94.537,94.537,0,0,1,14.074,7.1,155.221,155.221,0,0,1,41.113-9.269" transform="translate(-2.408 -9.268)" fill="#6bb98f"/>
        <path id="Path_231" data-name="Path 231" d="M52.945,211.6c1.044-2.1-.458-4.934,1.322-5.827,2.275-1.139,9.9-2.081,12.328-1.013,2.365,1.04-.341,7.292,2.239,7.42,3.706.184,17.265-7.516,19.994-6.313s-2.994,8.547-3.615,13.532c-5.036,1.689-9.232,4.01-11.871,7.114a56.323,56.323,0,0,0-20.4-14.912" transform="translate(-3.399 -13.115)" fill="#6bb98f"/>
        <path id="Path_232" data-name="Path 232" d="M23.842,194.09c2.839-1.053,6.08-1.7,7.1.159.995,1.809.995,7.737.747,13.214l-3.186.249Z" transform="translate(-1.531 -12.395)" fill="#6bb98f"/>
        <g id="Group_42" data-name="Group 42" transform="translate(0 129.428)" opacity="0.22" style="mix-blend-mode: multiply;isolation: isolate">
          <g id="Group_41" data-name="Group 41">
            <g id="Group_40" data-name="Group 40" clip-path="url(#clip-path-3)">
              <path id="Path_233" data-name="Path 233" d="M69.991,225.049l-.048.054c-20.411-21.931-44.451-19.243-44.451-19.243A543.059,543.059,0,0,0,0,142.495c22.9-12.378,51.8,6.475,54.059,8l0-.027a.906.906,0,0,1,.074-.072Z" transform="translate(0 -138.307)" fill="#8ab7bf"/>
            </g>
          </g>
        </g>
        <path id="Path_234" data-name="Path 234" d="M160.253,173.408s-21.519-25.13-26.786-25.3c-8.234-.274-13.226,2.671-12.927,5.3.428,3.773,10.954,2.036,10.954,2.036l4.36,3.619s-8.508-.58-11.589,1.161c-2.571,1.453-8.586,8.25-7.692,11.345a3.257,3.257,0,0,0,3.441,2.318s-1.154,2.435,0,4.235c1.459,2.277,4.965.313,4.965.313a2.05,2.05,0,0,0,.532,3.324c1.676,1.153,5.26-.99,6.954-1.217a6.369,6.369,0,0,1,4.137,1.188s5.431,8.63,17.955,6.4Z" transform="translate(-7.478 -9.507)" fill="#fba598"/>
        <path id="Path_235" data-name="Path 235" d="M120.992,174.023c4.34-6.506,8.939-8.155,15.755-7.007" transform="translate(-7.768 -10.701)" fill="none" stroke="#182b30" stroke-linecap="round" stroke-linejoin="round" stroke-width="1.27"/>
        <path id="Path_236" data-name="Path 236" d="M125.969,179.057c4.34-6.506,8.6-5.932,13.591-4.588" transform="translate(-8.087 -11.146)" fill="none" stroke="#182b30" stroke-linecap="round" stroke-linejoin="round" stroke-width="1.27"/>
        <path id="Path_237" data-name="Path 237" d="M158.924,173.006s25.332,12.893,36.085,20.271c4.307,2.955,8.661,18.732,2.837,27.2-3.91,5.688-14.341,4.783-23.238-1.033-7.435-4.861-20.677-32.762-20.677-32.762Z" transform="translate(-9.882 -11.107)" fill="#fba598"/>
        <path id="Path_238" data-name="Path 238" d="M4.789,163.453c-1.135.464-4.815,2.339-.96,5.87a7.208,7.208,0,0,0,2.607,1.369c-1.249.988-2.8,3,.848,5.432a8.021,8.021,0,0,0,3.218,1.058c-1.131.87-3.49,3.274.9,5.734,3.884,2.177,14.948.023,14.065-3.574-.343-1.4-5.094-2.017-9.06-2.288,3.031-.533,5.488-1.76,5.227-3.514-.163-1.083-2.93-1.891-5.979-2.456,1.64-.431,2.776-1.2,2.816-2.354.039-1.124-2.7-2.339-5.717-3.33,1.9-.029,3.394-.548,3.765-1.744.743-2.4-11.585-7.907-11.585-7.907s-6.111.668-2.825,5.576a7.248,7.248,0,0,0,2.678,2.126" transform="translate(-0.073 -9.999)" fill="#fba598"/>
        <path id="Path_239" data-name="Path 239" d="M121.645,81.442s-1.756,17.426,4.992,22.629c-9.2,8.423-18.82,12.278-27.129,17.238,0,0-4.968-10.316-4.62-16.536,0,0,3.838-1.669,1.718-10.6Z" transform="translate(-6.091 -5.229)" fill="#fba598"/>
        <path id="Path_240" data-name="Path 240" d="M94.871,105.352c0-.2.007-.389.017-.578,0,0,3.838-1.669,1.718-10.6l25.039-12.732a55.856,55.856,0,0,0,.347,12.591c-5.579,5.339-17.046,14.528-27.121,11.319" transform="translate(-6.091 -5.229)" fill="#ef8b83"/>
        <path id="Path_241" data-name="Path 241" d="M99.725,122.793a179.741,179.741,0,0,0,25.554-19.864c4.284.859,8.456,1.973,11.952,4.617a51.988,51.988,0,0,1-12.242,23.315c-8.2-5.013-13.912-7.144-25.264-8.068" transform="translate(-6.402 -6.608)" fill="#fff"/>
        <path id="Path_242" data-name="Path 242" d="M95.482,103.883c-.4,8.073.63,13.363,2.7,18.875-7.208.166-15.45,1.5-22.546,6.97,1.579-9.234,3.346-14.439,8.632-21.817,3.036-2.256,6.684-3.381,11.218-4.028" transform="translate(-4.856 -6.669)" fill="#fff"/>
        <path id="Path_243" data-name="Path 243" d="M74.742,33.507S83.881,9.2,88.142,5.788c4.646-3.722,14.074-6.754,19.817-5.5,7.09,1.549,32.14,13.211,34.6,23.96C144.767,33.934,140,50.693,140,50.693Z" transform="translate(-4.798 0)" fill="#f5c529"/>
        <path id="Path_244" data-name="Path 244" d="M79.421,23.411c10.51-.439,37.966.431,62.81,18.451A100.331,100.331,0,0,1,140,52.191L74.743,35.005S76.8,29.53,79.421,23.411" transform="translate(-4.798 -1.498)" fill="#e43b3f"/>
        <path id="Path_245" data-name="Path 245" d="M74.423,63.738c4.788,1.774,7.509,6.366,6.07,10.251S74,79.585,69.21,77.811,61.7,71.444,63.14,67.561s6.494-5.6,11.284-3.823" transform="translate(-4.029 -4.047)" fill="#ef8b83"/>
        <path id="Path_246" data-name="Path 246" d="M103.229,34.018c31.634,7.7,55.74,20.431,53.8,28.405s-29.2,8.193-60.834.489S40.454,42.482,42.4,34.508s29.2-8.193,60.834-.489" transform="translate(-2.715 -1.822)" fill="#f5c529"/>
        <path id="Path_247" data-name="Path 247" d="M103.057,51.279c23.082,5.935,33.171,11.592,36.558,13.749,1.8,1.146-18.345.732-37.836-4.577s-34.947-11.44-34.228-13.6c.851-2.558,13.552-1.214,35.506,4.431" transform="translate(-4.335 -2.928)" fill="#a26c47"/>
        <path id="Path_248" data-name="Path 248" d="M81.509,34.434l47.038,12.608s2.777,13.349,1.732,19.952c-2.877,18.18-21.708,30.111-37.628,29.165C74.225,95.064,70.973,79.769,73.2,57.965c1.487-14.562,8.311-23.531,8.311-23.531" transform="translate(-4.66 -2.211)" fill="#fba598"/>
        <path id="Path_249" data-name="Path 249" d="M126.835,72.47s-9.2-11.718-9.652-20.357l18.74,6.205-.3,9.644Z" transform="translate(-7.523 -3.346)" fill="#182b30"/>
        <path id="Path_250" data-name="Path 250" d="M77.749,44.409s-4.031,8.27-5.246,21.542a50.142,50.142,0,0,1-.032-21.716Z" transform="translate(-4.577 -2.84)" fill="#182b30"/>
        <path id="Path_251" data-name="Path 251" d="M71.293,44.5s28.377.39,62.681,16.45l-1-14.009-55.95-15.7Z" transform="translate(-4.577 -2.006)" fill="#f5c529"/>
        <path id="Path_252" data-name="Path 252" d="M132.571,66.6c5-1.049,9.746,1.39,10.6,5.443s-2.515,8.2-7.513,9.245-9.746-1.388-10.6-5.441,2.514-8.2,7.513-9.247" transform="translate(-8.02 -4.26)" fill="#fba598"/>
        <path id="Path_253" data-name="Path 253" d="M82.343,62.739c.784,0,1.421.985,1.421,2.2s-.636,2.2-1.421,2.2-1.421-.985-1.421-2.2.636-2.2,1.421-2.2" transform="translate(-5.195 -4.028)" fill="#182b30"/>
        <path id="Path_254" data-name="Path 254" d="M104.957,62.739c.784,0,1.42.985,1.42,2.2s-.635,2.2-1.42,2.2-1.421-.985-1.421-2.2.636-2.2,1.421-2.2" transform="translate(-6.647 -4.028)" fill="#182b30"/>
        <path id="Path_255" data-name="Path 255" d="M101.464,55.782l.379-3.655c6.642-.415,10.151,2.121,11.665,6.538a21.609,21.609,0,0,0-12.044-2.882" transform="translate(-6.514 -3.344)" fill="#182b30"/>
        <path id="Path_256" data-name="Path 256" d="M85.95,56.078l-.313-3.66c-5.736-1.658-9.325,1.111-10.483,6.1,2.624-2.618,6.513-3.12,10.8-2.442" transform="translate(-4.825 -3.334)" fill="#182b30"/>
        <path id="Path_257" data-name="Path 257" d="M88.748,81.987a93.129,93.129,0,0,0,17.85-3.932s1.214,10.094-6.408,11.94c-8.812,2.134-11.442-8.008-11.442-8.008" transform="translate(-5.698 -5.011)" fill="#fff"/>
        <path id="Path_258" data-name="Path 258" d="M91.916,62.577a4.512,4.512,0,0,1,.257,1.5c0,4.074-4.4,5.534-4.4,7.974,0,2.27,2.821,3.754,5.309,3.754.323,0,.649-.015.98-.032" transform="translate(-5.635 -4.017)" fill="none" stroke="#182b30" stroke-linecap="round" stroke-linejoin="round" stroke-width="1.27"/>
      </g>
    </g>
  </g>
</svg>
