<svg id="Group_856" data-name="Group 856" xmlns="http://www.w3.org/2000/svg" xmlns:xlink="http://www.w3.org/1999/xlink" width="96.395" height="26.938" viewBox="0 0 96.395 26.938">
  <defs>
    <clipPath id="clip-path">
      <rect id="Rectangle_44" data-name="Rectangle 44" width="96.395" height="26.938" fill="#404040"/>
    </clipPath>
  </defs>
  <g id="Group_40" data-name="Group 40" clip-path="url(#clip-path)">
    <path id="Path_32" data-name="Path 32" d="M23.478,6.777a1.85,1.85,0,0,0-.114.372c-.114.629-.229,1.258-.315,1.887a16.3,16.3,0,0,0-.172,1.659,30.319,30.319,0,0,0-.086,3.6c.029.772.086,1.544.114,2.316a28.688,28.688,0,0,0,.429,3.146c.029.086.029.172.057.257a.138.138,0,0,1-.057.172h-.029c-.086.029-.143.057-.229.086-.343.114-.686.257-1.029.372a22.4,22.4,0,0,0-2.259.972c-.944.458-1.887.944-2.8,1.487-.715.429-1.458.887-2.145,1.373-.6.4-1.172.829-1.716,1.258-.429.343-.8.715-1.2,1.058-.057.057-.114.086-.172.143a.1.1,0,0,1-.057-.029,18.4,18.4,0,0,0-1.6-1.373,22.7,22.7,0,0,0-2.545-1.8c-.343-.229-.686-.429-1.029-.629-.257-.143-.515-.315-.744-.458-.286-.172-.572-.315-.858-.458a15.733,15.733,0,0,0-1.716-.8c-.429-.172-.829-.372-1.287-.515-.543-.2-1.087-.372-1.6-.543a2.657,2.657,0,0,1-.286-.143c0-.086.029-.143.029-.2.2-.887.343-1.8.458-2.688.114-.972.172-1.916.2-2.888a31.551,31.551,0,0,0-.143-4.347A9.841,9.841,0,0,0,.429,8.779C.343,8.236.2,7.693.086,7.149.057,7.006.029,6.892,0,6.749c.057-.029.143-.057.2-.086A24.74,24.74,0,0,0,4.8,4.776,36.6,36.6,0,0,0,8.036,2.888c.887-.572,1.716-1.2,2.545-1.859.4-.315.772-.686,1.172-1.029.029.029.086.057.114.086a23.222,23.222,0,0,0,3.374,2.631c.858.572,1.744,1.115,2.66,1.6.744.4,1.487.772,2.231,1.172a.1.1,0,0,1,.057.029,9.444,9.444,0,0,0,1.23.543l1.2.429c.229.086.486.143.715.229a.483.483,0,0,1,.143.057M21.533,19.017a.557.557,0,0,0-.029-.229c-.029-.172-.057-.343-.086-.486-.086-.715-.229-1.458-.286-2.173-.057-.772-.086-1.544-.114-2.345q0-1.072.086-2.145c.029-.6.086-1.2.143-1.83.057-.458.143-.944.2-1.4a.338.338,0,0,0-.029-.286h-.057c-.343.172-.715.315-1.058.486a2.258,2.258,0,0,0-.715.543.952.952,0,0,0-.315.543c-.057.429-.143.858-.172,1.315q-.086,1.115-.086,2.231a15.689,15.689,0,0,0,.086,2.316v.2a1.751,1.751,0,0,0-.172-.114l-.944-.686c-.286-.2-.543-.4-.829-.6a.359.359,0,0,1-.172-.315V13.7a15.98,15.98,0,0,1,.286-3.289v-.143c-.029-.029-.029-.029-.057-.029-.372-.143-.744-.286-1.115-.458-.286-.114-.543-.229-.8-.343a12.819,12.819,0,0,1-2.631-1.573c-.257-.2-.543-.429-.8-.658a.4.4,0,0,1-.114-.086c-.257.229-.515.429-.772.629s-.543.4-.8.572a2.716,2.716,0,0,1-.486.286,10.945,10.945,0,0,1-1.258.715c-.172.086-.372.172-.572.286.057.029.086.086.114.114.229.143.429.315.658.458.944.686,1.916,1.373,2.86,2.03.744.543,1.458,1.058,2.2,1.6.715.515,1.43,1,2.145,1.516,1.058.744,2.116,1.487,3.146,2.231a8.283,8.283,0,0,0,.829.543c.486.286,1,.543,1.516.829a1.4,1.4,0,0,1,.2.086M1.945,7.807V7.95c.057.429.143.858.2,1.258.057.315.114.629.143.972.057.572.114,1.115.143,1.687a29.43,29.43,0,0,1-.143,5.262,7.952,7.952,0,0,1-.229,1.4.258.258,0,0,0,.029.143L2.6,18.5a3.875,3.875,0,0,0,1.315-.8.916.916,0,0,0,.286-.543c.057-.6.143-1.172.2-1.773a19.873,19.873,0,0,0,.057-2.917c-.029-.315-.029-.658-.057-.972V11.21a1.64,1.64,0,0,0,.2.114c.458.315.944.658,1.4.972.143.086.257.172.4.257a.271.271,0,0,1,.143.315v.715a13.7,13.7,0,0,1-.286,3.06c.029,0,.057.029.086.029a13.4,13.4,0,0,1,2.059.944,1.863,1.863,0,0,1,.658.429c0,.029.029.029.057.029.2.114.429.2.629.315a13.422,13.422,0,0,1,1.945,1.4c.029.029.086.057.114.086a16.6,16.6,0,0,1,3.775-2.488c-.114-.086-.2-.172-.286-.229-.429-.315-.858-.629-1.258-.944-.286-.2-.572-.429-.858-.629-.257-.2-.515-.372-.772-.572a6.937,6.937,0,0,0-.572-.4c-.286-.2-.572-.372-.829-.572-.315-.2-.6-.429-.915-.658L8.722,12.44c-.572-.429-1.144-.858-1.744-1.287-.486-.372-1-.715-1.487-1.058-.4-.286-.772-.6-1.172-.858-.715-.458-1.458-.915-2.2-1.373C2.03,7.836,2,7.807,1.945,7.807m9.523,16.7c.029-.114.057-.2.086-.286a4.616,4.616,0,0,0,.057-1.4,2.248,2.248,0,0,0-.229-.744.513.513,0,0,0-.143-.2c-.4-.315-.829-.629-1.23-.944-.343-.257-.686-.486-1.029-.715-.257-.172-.543-.343-.829-.515-.257-.172-.543-.286-.8-.429a7.409,7.409,0,0,0-.829-.4c-.629-.257-1.258-.486-1.887-.744A.311.311,0,0,0,4.49,18.1a3.461,3.461,0,0,0-1.2.372,8.1,8.1,0,0,0-.8.572c-.057.057-.143.114-.2.172.057.029.086.029.143.057.257.086.515.172.744.257.629.286,1.23.543,1.83.858.286.143.572.315.858.458.315.172.629.286.915.458.858.486,1.687,1,2.517,1.544q1.072.729,2.059,1.544a.223.223,0,0,0,.114.114M2.316,7.664,2.4,7.75c.257.2.486.4.744.572a3.373,3.373,0,0,0,1.144.486.736.736,0,0,0,.429-.029c.286-.114.572-.229.829-.343A23.887,23.887,0,0,0,8.493,6.92c.429-.257.858-.543,1.287-.829.458-.315.915-.686,1.373-1.029a1.85,1.85,0,0,0,.229-.257,2.248,2.248,0,0,0,.229-.744,4.859,4.859,0,0,0-.086-1.573c0-.029-.029-.057-.029-.086a30.992,30.992,0,0,1-9.18,5.262m9.752-5.2A3.016,3.016,0,0,0,11.925,3a3.74,3.74,0,0,0,.143,1.687.789.789,0,0,0,.343.458c.458.343.887.686,1.344.972q1.115.729,2.231,1.373a17.809,17.809,0,0,0,2.888,1.373.792.792,0,0,0,.257.029,4.928,4.928,0,0,0,.6-.2,3.807,3.807,0,0,0,1.087-.658,4.269,4.269,0,0,0,.4-.343.4.4,0,0,0-.114-.086c-.114-.057-.229-.114-.372-.172l-1.716-.686c-.458-.2-.887-.4-1.344-.629a6,6,0,0,1-.858-.429c-.6-.4-1.23-.686-1.83-1.115-.8-.572-1.63-1.115-2.374-1.716a2.9,2.9,0,0,1-.543-.4m9.208,16.786a4.978,4.978,0,0,0-.4-.343,3.651,3.651,0,0,0-1.687-.772.644.644,0,0,0-.4.029c-.343.143-.715.257-1.058.429-.686.343-1.4.686-2.059,1.029-.572.315-1.115.658-1.687,1A12.321,12.321,0,0,0,12.3,21.877a.623.623,0,0,0-.2.257,2.719,2.719,0,0,0-.2.686,4.041,4.041,0,0,0,.114,1.544c0,.057.029.086.057.143a29.764,29.764,0,0,1,9.208-5.262" fill="#404040"/>
    <path id="Path_33" data-name="Path 33" d="M102.775,32.756a2.116,2.116,0,0,0,.364,1.118,2.29,2.29,0,0,0,1.911.7,2.822,2.822,0,0,0,1.425-.352,1.171,1.171,0,0,0,.616-1.09.932.932,0,0,0-.494-.85,5.887,5.887,0,0,0-1.247-.413l-1.158-.291a5.648,5.648,0,0,1-1.636-.616,1.839,1.839,0,0,1-.939-1.636,2.5,2.5,0,0,1,.887-1.992,3.537,3.537,0,0,1,2.385-.761,3.311,3.311,0,0,1,2.826,1.15,2.5,2.5,0,0,1,.526,1.571h-1.377a1.689,1.689,0,0,0-.348-.9,2.221,2.221,0,0,0-1.741-.575,2.082,2.082,0,0,0-1.251.316.99.99,0,0,0-.425.834,1.027,1.027,0,0,0,.559.907,3.35,3.35,0,0,0,.956.356l.964.235a7.447,7.447,0,0,1,2.106.737,1.951,1.951,0,0,1,.85,1.757,2.677,2.677,0,0,1-.879,2,3.739,3.739,0,0,1-2.676.842,3.592,3.592,0,0,1-2.742-.879,3.32,3.32,0,0,1-.862-2.175Z" transform="translate(-72.384 -18.977)" fill="#404040"/>
    <path id="Path_34" data-name="Path 34" d="M129.873,26.885h1.417v1.15a3.541,3.541,0,0,1,.956-.915,3.075,3.075,0,0,1,1.733-.486,3.26,3.26,0,0,1,2.5,1.13,4.631,4.631,0,0,1,1.028,3.227,4.956,4.956,0,0,1-1.482,4.049,3.349,3.349,0,0,1-2.187.77,2.968,2.968,0,0,1-1.644-.429,3.8,3.8,0,0,1-.866-.834v4.43h-1.458Zm5.471,6.8a4.068,4.068,0,0,0,.676-2.555,4.766,4.766,0,0,0-.3-1.782,2.2,2.2,0,0,0-4.147.081,6.007,6.007,0,0,0-.3,2.057,4.364,4.364,0,0,0,.3,1.709,2.2,2.2,0,0,0,3.77.49" transform="translate(-92.733 -19.017)" fill="#404040"/>
    <path id="Path_35" data-name="Path 35" d="M163.728,27.37h1.612q-.308.834-1.369,3.807-.794,2.235-1.328,3.644a24.638,24.638,0,0,1-1.782,4.049,2.037,2.037,0,0,1-1.782.729,3.521,3.521,0,0,1-.474-.024,3.706,3.706,0,0,1-.409-.089V38.158a5.1,5.1,0,0,0,.551.13,2.177,2.177,0,0,0,.3.024,1.054,1.054,0,0,0,.6-.134,1.238,1.238,0,0,0,.32-.328q.041-.065.292-.664t.364-.891l-3.207-8.925h1.652l2.324,7.062Z" transform="translate(-112.396 -19.543)" fill="#404040"/>
    <path id="Path_36" data-name="Path 36" d="M190.833,19.487a3.906,3.906,0,0,1,.883.85V15.956h1.4V27.894H191.8V26.687a3.155,3.155,0,0,1-1.207,1.158,3.453,3.453,0,0,1-1.6.357,3.23,3.23,0,0,1-2.511-1.219,4.764,4.764,0,0,1-1.061-3.243,5.6,5.6,0,0,1,.968-3.284,3.168,3.168,0,0,1,2.766-1.389,3.085,3.085,0,0,1,1.668.422m-3.272,6.5a2.071,2.071,0,0,0,1.9.94,2,2,0,0,0,1.664-.871,4.111,4.111,0,0,0,.652-2.5,3.7,3.7,0,0,0-.672-2.434,2.1,2.1,0,0,0-1.66-.789,2.192,2.192,0,0,0-1.786.842,3.858,3.858,0,0,0-.684,2.478,4.3,4.3,0,0,0,.591,2.332" transform="translate(-132.403 -11.393)" fill="#404040"/>
    <path id="Path_37" data-name="Path 37" d="M222.056,27.123a3.3,3.3,0,0,1,1.32,1.122,3.867,3.867,0,0,1,.583,1.531,10.019,10.019,0,0,1,.13,1.911h-6.357a3.713,3.713,0,0,0,.623,2.118,2.089,2.089,0,0,0,1.806.8,2.335,2.335,0,0,0,1.822-.753,2.539,2.539,0,0,0,.551-1.012h1.433a3.015,3.015,0,0,1-.376,1.065,3.79,3.79,0,0,1-.717.959,3.4,3.4,0,0,1-1.644.875,5,5,0,0,1-1.19.13,3.651,3.651,0,0,1-2.745-1.178,4.584,4.584,0,0,1-1.126-3.3,4.984,4.984,0,0,1,1.134-3.393,3.74,3.74,0,0,1,2.964-1.3,3.958,3.958,0,0,1,1.79.433m.534,3.406a3.779,3.779,0,0,0-.413-1.514,2.118,2.118,0,0,0-2-1.053,2.217,2.217,0,0,0-1.685.725,2.738,2.738,0,0,0-.721,1.842Z" transform="translate(-154.351 -19.057)" fill="#404040"/>
    <path id="Path_38" data-name="Path 38" d="M248.294,26.884h1.385v1.5a3.313,3.313,0,0,1,.834-1.065,2.163,2.163,0,0,1,1.531-.628c.027,0,.073,0,.138.008s.175.016.332.032v1.539a2.162,2.162,0,0,0-.239-.033c-.073-.005-.153-.008-.239-.008a2.08,2.08,0,0,0-1.693.709,2.474,2.474,0,0,0-.591,1.632v4.989h-1.458Z" transform="translate(-177.29 -19.057)" fill="#404040"/>
    <path id="Path_39" data-name="Path 39" d="M265.5,26.884h1.385v1.231a3.883,3.883,0,0,1,1.3-1.094,3.479,3.479,0,0,1,1.531-.332,2.525,2.525,0,0,1,2.495,1.288,4.58,4.58,0,0,1,.356,2.017v5.564h-1.482V30.092a2.958,2.958,0,0,0-.235-1.28A1.424,1.424,0,0,0,269.44,28a2.871,2.871,0,0,0-.85.105,2.186,2.186,0,0,0-1.053.713,2.147,2.147,0,0,0-.474.887,5.992,5.992,0,0,0-.109,1.308v4.543H265.5Z" transform="translate(-189.572 -19.057)" fill="#404040"/>
    <path id="Path_40" data-name="Path 40" d="M299.969,27.123a3.3,3.3,0,0,1,1.32,1.122,3.863,3.863,0,0,1,.583,1.531,10.019,10.019,0,0,1,.13,1.911h-6.357a3.71,3.71,0,0,0,.623,2.118,2.088,2.088,0,0,0,1.806.8,2.334,2.334,0,0,0,1.822-.753,2.539,2.539,0,0,0,.551-1.012h1.434A3.022,3.022,0,0,1,301.5,33.9a3.8,3.8,0,0,1-.717.959,3.4,3.4,0,0,1-1.644.875,5,5,0,0,1-1.19.13,3.652,3.652,0,0,1-2.745-1.178,4.583,4.583,0,0,1-1.126-3.3,4.983,4.983,0,0,1,1.134-3.393,3.739,3.739,0,0,1,2.964-1.3,3.957,3.957,0,0,1,1.79.433m.535,3.406a3.783,3.783,0,0,0-.413-1.514,2.118,2.118,0,0,0-2-1.053,2.217,2.217,0,0,0-1.685.725,2.738,2.738,0,0,0-.721,1.842Z" transform="translate(-209.983 -19.057)" fill="#404040"/>
    <path id="Path_41" data-name="Path 41" d="M324.152,18.9h1.474v2.422h1.385v1.19h-1.385v5.661a.613.613,0,0,0,.308.607,1.309,1.309,0,0,0,.567.089c.07,0,.146,0,.227,0s.175-.009.283-.02V30a3.234,3.234,0,0,1-.522.105,5,5,0,0,1-.587.032,1.582,1.582,0,0,1-1.385-.522,2.322,2.322,0,0,1-.364-1.356V22.514h-1.174v-1.19h1.174Z" transform="translate(-230.616 -13.497)" fill="#404040"/>
    <path id="Path_42" data-name="Path 42" d="M177.762,65.418h.406v.439a.971.971,0,0,1,.244-.312.636.636,0,0,1,.449-.184l.04,0,.1.009v.451a.646.646,0,0,0-.07-.009c-.021,0-.045,0-.07,0a.609.609,0,0,0-.5.207.724.724,0,0,0-.174.478V67.96h-.427Z" transform="translate(-126.928 -46.67)" fill="#404040"/>
    <path id="Path_43" data-name="Path 43" d="M184.61,65.487a.969.969,0,0,1,.387.329,1.137,1.137,0,0,1,.171.449,2.947,2.947,0,0,1,.038.56h-1.863a1.088,1.088,0,0,0,.183.621.612.612,0,0,0,.529.234.684.684,0,0,0,.534-.221.742.742,0,0,0,.161-.3h.42a.879.879,0,0,1-.11.312,1.1,1.1,0,0,1-.21.281,1,1,0,0,1-.482.257,1.454,1.454,0,0,1-.349.038,1.071,1.071,0,0,1-.8-.345,1.345,1.345,0,0,1-.33-.967,1.461,1.461,0,0,1,.332-.995,1.1,1.1,0,0,1,.869-.382,1.159,1.159,0,0,1,.524.127m.157,1a1.11,1.11,0,0,0-.121-.444.621.621,0,0,0-.587-.309.65.65,0,0,0-.494.212.8.8,0,0,0-.211.54Z" transform="translate(-130.585 -46.669)" fill="#404040"/>
    <path id="Path_44" data-name="Path 44" d="M192.7,67.139a.623.623,0,0,0,.107.328.672.672,0,0,0,.56.206.827.827,0,0,0,.418-.1.343.343,0,0,0,.18-.319.273.273,0,0,0-.145-.249,1.7,1.7,0,0,0-.365-.121l-.34-.086a1.672,1.672,0,0,1-.48-.18.54.54,0,0,1-.275-.48.731.731,0,0,1,.26-.584,1.037,1.037,0,0,1,.7-.223.97.97,0,0,1,.828.337.73.73,0,0,1,.154.46h-.4a.493.493,0,0,0-.1-.263.653.653,0,0,0-.51-.168.609.609,0,0,0-.367.093.289.289,0,0,0-.125.244.3.3,0,0,0,.164.266.988.988,0,0,0,.28.1l.283.069a2.189,2.189,0,0,1,.617.216.572.572,0,0,1,.249.515.784.784,0,0,1-.257.586,1.1,1.1,0,0,1-.784.247,1.054,1.054,0,0,1-.8-.257.977.977,0,0,1-.253-.637Z" transform="translate(-137.3 -46.646)" fill="#404040"/>
    <path id="Path_45" data-name="Path 45" d="M202.761,65.631a1.279,1.279,0,0,1,.339.964,1.652,1.652,0,0,1-.3,1.016,1.082,1.082,0,0,1-.928.4,1.048,1.048,0,0,1-.833-.355,1.4,1.4,0,0,1-.309-.953,1.516,1.516,0,0,1,.325-1.021,1.091,1.091,0,0,1,.874-.38,1.151,1.151,0,0,1,.831.328m-.265,1.691a1.6,1.6,0,0,0,.158-.715,1.271,1.271,0,0,0-.114-.579.641.641,0,0,0-.622-.351.613.613,0,0,0-.57.3,1.387,1.387,0,0,0-.178.721,1.206,1.206,0,0,0,.178.677.627.627,0,0,0,.565.271.589.589,0,0,0,.583-.322" transform="translate(-143.328 -46.628)" fill="#404040"/>
    <rect id="Rectangle_41" data-name="Rectangle 41" width="0.427" height="3.487" transform="translate(60.291 17.804)" fill="#404040"/>
    <path id="Path_46" data-name="Path 46" d="M214.06,65.56l.679,2.07.71-2.07h.468l-.959,2.543H214.5l-.937-2.543Z" transform="translate(-152.491 -46.812)" fill="#404040"/>
    <path id="Path_47" data-name="Path 47" d="M223.068,62.257h.435v.484h-.435Zm0,.957h.435v2.531h-.435Z" transform="translate(-159.277 -44.453)" fill="#404040"/>
    <path id="Path_48" data-name="Path 48" d="M226.845,65.418h.406v.361a1.135,1.135,0,0,1,.382-.32,1.018,1.018,0,0,1,.448-.1.74.74,0,0,1,.731.377,1.338,1.338,0,0,1,.1.591V67.96h-.434v-1.6a.863.863,0,0,0-.069-.375.417.417,0,0,0-.413-.238.838.838,0,0,0-.249.031.641.641,0,0,0-.309.209.63.63,0,0,0-.139.26,1.74,1.74,0,0,0-.032.383V67.96h-.427Z" transform="translate(-161.974 -46.67)" fill="#404040"/>
    <path id="Path_49" data-name="Path 49" d="M237.3,65.55a1.167,1.167,0,0,1,.247.242v-.32h.394v2.312a1.707,1.707,0,0,1-.142.765,1.022,1.022,0,0,1-1,.517,1.231,1.231,0,0,1-.691-.184.718.718,0,0,1-.313-.576h.435a.481.481,0,0,0,.123.264.781.781,0,0,0,1.1-.2,1.943,1.943,0,0,0,.083-.729.84.84,0,0,1-.309.289,1.107,1.107,0,0,1-1.2-.2,1.289,1.289,0,0,1-.31-.97,1.47,1.47,0,0,1,.312-1,.967.967,0,0,1,.754-.358.928.928,0,0,1,.522.147m.052.458a.623.623,0,0,0-.5-.228.613.613,0,0,0-.617.423,1.653,1.653,0,0,0-.088.591,1.049,1.049,0,0,0,.174.654.563.563,0,0,0,.469.224.658.658,0,0,0,.648-.415,1.334,1.334,0,0,0,.1-.548,1.06,1.06,0,0,0-.195-.7" transform="translate(-168.305 -46.7)" fill="#404040"/>
    <path id="Path_50" data-name="Path 50" d="M251.724,65.513a1,1,0,0,1,.324.719h-.415a.769.769,0,0,0-.174-.391.547.547,0,0,0-.434-.155.6.6,0,0,0-.584.4,1.581,1.581,0,0,0-.114.638,1.2,1.2,0,0,0,.162.643.625.625,0,0,0,.929.1.893.893,0,0,0,.215-.445h.415a1.005,1.005,0,0,1-1.085.973.973.973,0,0,1-.8-.365,1.394,1.394,0,0,1-.3-.91,1.533,1.533,0,0,1,.325-1.042,1.051,1.051,0,0,1,.829-.373,1.108,1.108,0,0,1,.7.209" transform="translate(-178.416 -46.629)" fill="#404040"/>
    <path id="Path_51" data-name="Path 51" d="M258.977,62.215h.427v1.3a1.236,1.236,0,0,1,.273-.271.92.92,0,0,1,.515-.135.761.761,0,0,1,.75.387,1.319,1.319,0,0,1,.107.586v1.631h-.439v-1.6a.9.9,0,0,0-.071-.411.455.455,0,0,0-.437-.209.728.728,0,0,0-.482.182.88.88,0,0,0-.216.691v1.348h-.427Z" transform="translate(-184.918 -44.423)" fill="#404040"/>
    <path id="Path_52" data-name="Path 52" d="M269.5,66.409a.232.232,0,0,0,.2-.124.377.377,0,0,0,.029-.164.347.347,0,0,0-.155-.317.835.835,0,0,0-.445-.1.565.565,0,0,0-.475.18.593.593,0,0,0-.1.3h-.4a.735.735,0,0,1,.305-.654,1.252,1.252,0,0,1,.68-.184,1.381,1.381,0,0,1,.729.171.58.58,0,0,1,.278.532v1.464a.185.185,0,0,0,.027.107.131.131,0,0,0,.115.041.592.592,0,0,0,.064,0c.024,0,.049-.006.076-.011v.316a1.232,1.232,0,0,1-.152.036,1.137,1.137,0,0,1-.142.007.351.351,0,0,1-.32-.157.6.6,0,0,1-.074-.235,1.088,1.088,0,0,1-.375.3,1.16,1.16,0,0,1-.539.126.8.8,0,0,1-.578-.215.715.715,0,0,1-.224-.538.693.693,0,0,1,.22-.548,1.049,1.049,0,0,1,.579-.24Zm-.9,1.156a.5.5,0,0,0,.321.107.977.977,0,0,0,.437-.1.588.588,0,0,0,.356-.568v-.344a.731.731,0,0,1-.2.083,1.731,1.731,0,0,1-.242.047l-.259.033a1,1,0,0,0-.349.1.38.38,0,0,0-.2.356.352.352,0,0,0,.135.292" transform="translate(-191.372 -46.658)" fill="#404040"/>
    <rect id="Rectangle_42" data-name="Rectangle 42" width="0.427" height="3.487" transform="translate(79.479 17.804)" fill="#404040"/>
    <rect id="Rectangle_43" data-name="Rectangle 43" width="0.427" height="3.487" transform="translate(80.559 17.804)" fill="#404040"/>
    <path id="Path_53" data-name="Path 53" d="M286.668,65.487a.968.968,0,0,1,.387.329,1.133,1.133,0,0,1,.171.449,2.921,2.921,0,0,1,.038.56H285.4a1.086,1.086,0,0,0,.182.621.613.613,0,0,0,.53.234.683.683,0,0,0,.534-.221.739.739,0,0,0,.161-.3h.42a.886.886,0,0,1-.111.312,1.091,1.091,0,0,1-.21.281,1,1,0,0,1-.482.257,1.456,1.456,0,0,1-.349.038,1.071,1.071,0,0,1-.8-.345,1.344,1.344,0,0,1-.33-.967,1.462,1.462,0,0,1,.332-.995,1.1,1.1,0,0,1,.869-.382,1.161,1.161,0,0,1,.525.127m.157,1a1.11,1.11,0,0,0-.121-.444.621.621,0,0,0-.586-.309.65.65,0,0,0-.494.212.8.8,0,0,0-.211.54Z" transform="translate(-203.457 -46.669)" fill="#404040"/>
    <path id="Path_54" data-name="Path 54" d="M294.895,65.418h.406v.361a1.135,1.135,0,0,1,.382-.32,1.018,1.018,0,0,1,.448-.1.74.74,0,0,1,.731.377,1.339,1.339,0,0,1,.1.591V67.96h-.434v-1.6a.863.863,0,0,0-.069-.375.417.417,0,0,0-.413-.238.838.838,0,0,0-.249.031.641.641,0,0,0-.309.209.63.63,0,0,0-.139.26,1.74,1.74,0,0,0-.032.383V67.96h-.427Z" transform="translate(-210.564 -46.67)" fill="#404040"/>
    <path id="Path_55" data-name="Path 55" d="M305.348,65.55a1.181,1.181,0,0,1,.247.242v-.32h.394v2.312a1.707,1.707,0,0,1-.143.765,1.022,1.022,0,0,1-1,.517,1.232,1.232,0,0,1-.691-.184.719.719,0,0,1-.313-.576h.434a.483.483,0,0,0,.123.264.781.781,0,0,0,1.1-.2,1.937,1.937,0,0,0,.083-.729.838.838,0,0,1-.309.289,1.107,1.107,0,0,1-1.2-.2,1.289,1.289,0,0,1-.31-.97,1.471,1.471,0,0,1,.312-1,.967.967,0,0,1,.754-.358.929.929,0,0,1,.522.147m.052.458a.623.623,0,0,0-.5-.228.613.613,0,0,0-.617.423,1.647,1.647,0,0,0-.088.591,1.05,1.05,0,0,0,.174.654.563.563,0,0,0,.469.224.657.657,0,0,0,.647-.415,1.329,1.329,0,0,0,.1-.548,1.062,1.062,0,0,0-.195-.7" transform="translate(-216.894 -46.7)" fill="#404040"/>
    <path id="Path_56" data-name="Path 56" d="M315.032,65.487a.969.969,0,0,1,.387.329,1.137,1.137,0,0,1,.171.449,2.947,2.947,0,0,1,.038.56h-1.863a1.087,1.087,0,0,0,.183.621.613.613,0,0,0,.529.234.684.684,0,0,0,.534-.221.742.742,0,0,0,.161-.3h.42a.88.88,0,0,1-.11.312,1.1,1.1,0,0,1-.21.281,1,1,0,0,1-.482.257,1.454,1.454,0,0,1-.349.038,1.071,1.071,0,0,1-.8-.345,1.345,1.345,0,0,1-.33-.967,1.461,1.461,0,0,1,.332-.995,1.1,1.1,0,0,1,.869-.382,1.159,1.159,0,0,1,.524.127m.157,1a1.11,1.11,0,0,0-.121-.444.621.621,0,0,0-.587-.309.65.65,0,0,0-.494.212.8.8,0,0,0-.211.54Z" transform="translate(-223.71 -46.669)" fill="#404040"/>
    <path id="Path_57" data-name="Path 57" d="M323.121,67.139a.624.624,0,0,0,.107.328.672.672,0,0,0,.56.206.828.828,0,0,0,.418-.1.343.343,0,0,0,.18-.319.273.273,0,0,0-.145-.249,1.7,1.7,0,0,0-.365-.121l-.34-.086a1.672,1.672,0,0,1-.48-.18.54.54,0,0,1-.275-.48.731.731,0,0,1,.26-.584,1.037,1.037,0,0,1,.7-.223.97.97,0,0,1,.828.337.73.73,0,0,1,.154.46h-.4a.493.493,0,0,0-.1-.263.653.653,0,0,0-.51-.168.608.608,0,0,0-.367.093.289.289,0,0,0-.125.244.3.3,0,0,0,.164.266.988.988,0,0,0,.28.1l.283.069a2.189,2.189,0,0,1,.617.216.572.572,0,0,1,.249.515.784.784,0,0,1-.257.586,1.1,1.1,0,0,1-.784.247,1.054,1.054,0,0,1-.8-.257.977.977,0,0,1-.253-.637Z" transform="translate(-230.425 -46.646)" fill="#404040"/>
  </g>
</svg>
