<svg id="Group_800" data-name="Group 800" xmlns="http://www.w3.org/2000/svg" width="176.729" height="156.635" viewBox="0 0 176.729 156.635">
  <path id="Path_7090" data-name="Path 7090" d="M732.717,461.391a25.278,25.278,0,0,1-3.128-1.339,9.462,9.462,0,0,1-4.817-8.748q.022-24.49.006-48.979,0-23.454,0-46.909c0-6.7,3.882-10.558,10.614-10.576,3.966-.01,8.088.627,11.855-.25s7.173-3.261,10.723-5.014q22.239-10.98,44.483-21.949a2.1,2.1,0,0,0,1.4-2.331,10.032,10.032,0,1,1,20.028.183,1.86,1.86,0,0,0,1.268,2.062q27.122,13.344,54.212,26.754a5.275,5.275,0,0,0,2.479.557c2.645-.029,5.29-.01,7.935-.01,6.863,0,9.178,1.55,11.729,7.85V453.454a10.652,10.652,0,0,1-7.938,7.937h-39c-1.059-.909-2.135-1.827-1.544-3.454.509-1.4,1.619-1.78,3.018-1.776,7.708.023,15.415.011,23.123.01,4.026,0,8.053.014,12.079,0,3.382-.015,5.07-1.712,5.071-5.117q.009-47.874,0-95.748c0-3.633-1.616-5.248-5.283-5.251q-22.519-.016-45.038-.005c-.518,0-1.036.013-1.553-.007-1.889-.071-3.005-1.053-2.984-2.612s1.151-2.567,3.046-2.574c7.247-.027,14.495-.012,21.743-.012h1.746c-.188-.623-.625-.673-.956-.837q-22.09-10.913-44.174-21.837a1.787,1.787,0,0,0-2.382.252,9.846,9.846,0,0,1-13.213,0,1.591,1.591,0,0,0-2.072-.4q-22.3,11.07-44.631,22.075a1.159,1.159,0,0,0-.62.746H761.9q35.116,0,70.232,0a9.291,9.291,0,0,1,2.055.131,2.539,2.539,0,0,1-.273,5.01,18.821,18.821,0,0,1-2.068.057q-48.058,0-96.116,0a6.618,6.618,0,0,0-3.523.6A4.6,4.6,0,0,0,729.96,355q.029,13.37.008,26.74,0,34.331,0,68.662c0,4.3,1.474,5.766,5.806,5.766H842.59c.46,0,.922.021,1.38,0,1.523-.081,2.935.1,3.531,1.781.572,1.616-.48,2.552-1.572,3.442Zm86.008-146.559a4.888,4.888,0,0,0-4.786-4.871A4.946,4.946,0,0,0,809,314.876a4.873,4.873,0,0,0,4.811,4.841A4.8,4.8,0,0,0,818.725,314.832Z" transform="translate(-724.772 -304.756)" fill="#1374c4"/>
  <path id="Path_7091" data-name="Path 7091" d="M832.641,546.414H758.96c-3.475,0-4.159-.674-4.159-4.1q0-43.818,0-87.637c0-3.359.7-4.08,4.017-4.081q17.342,0,34.684,0c.287,0,.575-.009.862,0,1.948.088,3.169,1.165,3.1,2.732-.066,1.521-1.21,2.458-3.134,2.46-10.756.013-21.512.043-32.268-.03-1.635-.011-2.113.367-2.11,2.067q.086,40.713.006,81.426c0,1.555.369,2,1.976,2q70.834-.068,141.668,0c1.555,0,2.008-.367,2-1.974q-.078-40.713,0-81.426c0-1.659-.417-2.095-2.082-2.092q-48.315.075-96.63.035a13.836,13.836,0,0,1-2.066-.07,2.533,2.533,0,0,1-.444-4.876,6.517,6.517,0,0,1,2.037-.246q50.3-.017,100.6-.007c2.9,0,3.739.831,3.739,3.669q0,44.25,0,88.5c0,2.821-.849,3.645-3.751,3.645Q869.827,546.416,832.641,546.414Z" transform="translate(-744.416 -400.157)" fill="#1374c4"/>
  <path id="Path_7092" data-name="Path 7092" d="M1019.223,549.271q0,7.733,0,15.468a13.151,13.151,0,0,1-.05,1.894,2.5,2.5,0,0,1-2.754,2.275,2.352,2.352,0,0,1-2.363-2.466c-.064-1.895-.028-3.793-.029-5.691,0-7.071.017-14.142-.014-21.213-.007-1.544.168-2.966,1.9-3.425,1.8-.478,2.693.69,3.479,2.106,3.262,5.87,6.577,11.71,9.894,17.6.6-.434.325-.991.328-1.445.024-5.174.015-10.348.017-15.522a2.551,2.551,0,0,1,1.912-2.736,2.462,2.462,0,0,1,2.946,1.22,3.019,3.019,0,0,1,.33,1.664q0,13.452.01,26.9c0,1.412-.436,2.528-1.87,2.927-1.5.418-2.524-.308-3.251-1.607q-5.044-9.016-10.112-18.017Z" transform="translate(-913.982 -456.029)" fill="#1374c4"/>
  <path id="Path_7093" data-name="Path 7093" d="M813,552.347c0-4.313-.017-8.626.006-12.939.013-2.586.835-3.373,3.437-3.38,3.279-.008,6.557-.014,9.836,0,1.9.01,3.058.96,3.1,2.487.047,1.575-1.183,2.664-3.127,2.693-2.185.032-4.373.055-6.557-.011-1.073-.032-1.554.228-1.5,1.414.087,2.009.066,4.026.007,6.037-.029,1,.355,1.275,1.3,1.252,2.242-.054,4.486-.034,6.729-.011,1.96.02,3.183,1.076,3.146,2.657-.036,1.528-1.2,2.5-3.083,2.522-2.243.021-4.487.035-6.73-.008-.9-.018-1.393.164-1.365,1.211.057,2.126.05,4.256,0,6.382-.021.95.419,1.157,1.255,1.144q3.364-.05,6.73,0c1.98.026,3.2,1.056,3.188,2.623s-1.209,2.553-3.227,2.571c-3.336.03-6.672.04-10.008,0-2.254-.029-3.119-.905-3.136-3.185C812.973,561.319,813,556.833,813,552.347Z" transform="translate(-782.481 -456.042)" fill="#1374c4"/>
  <path id="Path_7094" data-name="Path 7094" d="M882.117,562.155q3.162-11.353,6.327-22.706a12.963,12.963,0,0,1,.633-1.961,2.373,2.373,0,0,1,2.993-1.393,2.4,2.4,0,0,1,1.872,2.725,6.016,6.016,0,0,1-.267,1.169q-3.438,12.353-6.888,24.7c-.814,2.9-2.4,4.24-4.887,4.234-2.476-.007-4.071-1.39-4.876-4.262q-3.414-12.181-6.814-24.365c-.047-.166-.07-.338-.112-.505-.492-1.94.138-3.343,1.678-3.727,1.572-.392,2.768.44,3.328,2.413,1.239,4.359,2.441,8.729,3.661,13.094q1.475,5.277,2.956,10.553Z" transform="translate(-819.733 -456.009)" fill="#1374c4"/>
  <path id="Path_7095" data-name="Path 7095" d="M950.987,552.515c0-4.369-.013-8.738,0-13.107.01-2.6.8-3.372,3.405-3.378,3.277-.008,6.555-.014,9.833,0,1.9.01,3.048.956,3.088,2.489.042,1.6-1.149,2.661-3.114,2.69-2.242.033-4.486.046-6.727-.009-.946-.023-1.333.236-1.3,1.245q.1,3.1,0,6.208c-.031,1,.339,1.273,1.293,1.249,2.242-.058,4.485-.036,6.728-.012,1.962.021,3.163,1.068,3.123,2.665-.038,1.532-1.2,2.5-3.079,2.514-2.185.02-4.373.076-6.554-.022-1.255-.056-1.567.416-1.515,1.579.082,1.836.092,3.682,0,5.517-.064,1.242.255,1.75,1.6,1.676,2.064-.113,4.139-.044,6.209-.025,2.149.02,3.353.985,3.336,2.633-.016,1.586-1.17,2.544-3.22,2.563q-4.916.046-9.833,0c-2.467-.025-3.261-.853-3.272-3.37C950.974,561.253,950.987,556.884,950.987,552.515Z" transform="translate(-872.751 -456.042)" fill="#1374c4"/>
  <path id="Path_7096" data-name="Path 7096" d="M1093.942,554.359c0-3.909-.04-7.818.025-11.726.019-1.152-.353-1.5-1.472-1.435-1.49.087-2.989.043-4.483.015-1.9-.035-3.006-1-3.029-2.567-.024-1.6,1.057-2.6,2.952-2.609q8.624-.033,17.249,0a2.619,2.619,0,0,1,2.91,2.512c.034,1.526-1.154,2.616-2.972,2.659-1.494.035-3,.089-4.483-.016-1.229-.087-1.535.339-1.527,1.537.054,7.53.03,15.06.022,22.591a5.981,5.981,0,0,1-.131,1.707,2.569,2.569,0,0,1-5.049-.772c-.014-3.966,0-7.933,0-11.9Z" transform="translate(-960.408 -456.041)" fill="#1374c4"/>
</svg>
