<svg id="Group_845" data-name="Group 845" xmlns="http://www.w3.org/2000/svg" xmlns:xlink="http://www.w3.org/1999/xlink" width="204.272" height="126.214" viewBox="0 0 204.272 126.214">
  <defs>
    <clipPath id="clip-path">
      <rect id="Rectangle_375" data-name="Rectangle 375" width="204.272" height="126.214" fill="none"/>
    </clipPath>
  </defs>
  <g id="Group_844" data-name="Group 844" clip-path="url(#clip-path)">
    <path id="Path_7100" data-name="Path 7100" d="M211.189,135.209c-1-15.418,5.746-31.375,17.107-40.5.352,15.5-6.326,31.179-17.107,40.5" transform="translate(-101.728 -45.639)" fill="#a2c7eb"/>
    <path id="Path_7101" data-name="Path 7101" d="M215.608,102.715A204.505,204.505,0,0,0,203.241,130.6c-4.181,11.693-7.471,24.117-14.631,33.919" transform="translate(-90.893 -49.5)" fill="none" stroke="#6f8bbf" stroke-linecap="round" stroke-width="1"/>
    <path id="Path_7102" data-name="Path 7102" d="M204.36,168.04c5.751-12.864,17.164-22.583,29.749-25.335-5.357,13.786-17.408,24.3-29.749,25.335" transform="translate(-98.484 -68.771)" fill="#a2c7eb"/>
    <path id="Path_7103" data-name="Path 7103" d="M231.43,148.175q-12.893,11.346-26.22,22.05" transform="translate(-98.893 -71.407)" fill="none" stroke="#6f8bbf" stroke-linecap="round" stroke-width="1"/>
    <path id="Path_7104" data-name="Path 7104" d="M197.81,199.207c7.683-11.476,21.858-17.465,33.588-14.19-8.626,11.331-22.832,17.335-33.588,14.19" transform="translate(-95.327 -88.733)" fill="#a2c7eb"/>
    <path id="Path_7105" data-name="Path 7105" d="M227.317,187.445A111.833,111.833,0,0,1,195.18,201.2" transform="translate(-94.06 -90.332)" fill="none" stroke="#6f8bbf" stroke-linecap="round" stroke-width="1"/>
    <path id="Path_7106" data-name="Path 7106" d="M195.846,149.8c2.456-12.921-1.228-27.324-9.429-36.852-3.362,12.7-.155,27.578,9.429,36.852" transform="translate(-89.213 -54.43)" fill="#a2c7eb"/>
    <path id="Path_7107" data-name="Path 7107" d="M189.25,119.3a139.872,139.872,0,0,0,8.947,34.282" transform="translate(-91.202 -57.494)" fill="none" stroke="#6f8bbf" stroke-linecap="round" stroke-width="1"/>
    <path id="Path_7108" data-name="Path 7108" d="M181.112,174.95c-1.047-13.284-7.854-25.759-17.812-32.645a56.768,56.768,0,0,0,5.414,19.983c3.414,7.082,8.429,11.574,12.4,12.662" transform="translate(-78.696 -68.578)" fill="#a2c7eb"/>
    <path id="Path_7109" data-name="Path 7109" d="M166.15,147.495a105.53,105.53,0,0,0,16.584,30.236" transform="translate(-80.07 -71.08)" fill="none" stroke="#6f8bbf" stroke-linecap="round" stroke-width="1"/>
    <path id="Path_7110" data-name="Path 7110" d="M168.25,177.465s1.135,10.4,2.4,11.232c2.269,1.5,28.536,4.958,28.536,4.958l-.86,6.834s-35.976,3.233-37.5,1.435c-2.653-3.119-7.315-18.164-7.315-18.164Z" transform="translate(-73.978 -85.522)" fill="#e06a58"/>
    <path id="Path_7111" data-name="Path 7111" d="M148.48,119.3l2.906-6.979s7.885,3.7,10.486,8.279c2.782,4.891,6.186,30.894,6.186,30.894s-13.921,3.207-16.48,1.844-3.1-34.038-3.1-34.038" transform="translate(-71.554 -54.131)" fill="#f2ae30"/>
    <path id="Path_7112" data-name="Path 7112" d="M78.7,62.1a15.391,15.391,0,0,0-6.372-1.233c-2.181.166-4.409,1.321-5.15,3.238-.528,1.357-.285,2.958-1.119,4.181A5,5,0,0,1,62.2,70.046c-1.487.1-2.984-.093-4.461.1-4.559.606-7.813,5.559-6.315,9.616.6,1.616,1.818,3.16,1.539,4.844-.3,1.8-2.186,2.989-2.963,4.663-1.031,2.228.2,4.927,2.238,6.445s4.684,2.088,7.253,2.471a30.12,30.12,0,0,0,10.688.031c3.5-.746,6.839-2.59,8.647-5.471a44.707,44.707,0,0,1,2.223-3.912c1.927-2.471,5.341-3.43,8.03-5.181,2.938-1.922,5.093-5.663,3.362-8.59-1.668-2.813-6.01-3.44-7.751-6.212a19.459,19.459,0,0,1-1.357-3.756c-.477-1.254-1.616-1.886-4.627-2.989" transform="translate(-23.914 -29.322)" fill="#0a2240"/>
    <path id="Path_7113" data-name="Path 7113" d="M113.99,101.173a3.057,3.057,0,0,0,1.958,1.3,2.935,2.935,0,0,0,2.2-1.171,22.3,22.3,0,0,0,5.673-10.88c-.73-.414-1.435-.813-2.072-1.186a3.147,3.147,0,0,1-1.29-1.42,2.727,2.727,0,0,1-.192-1.337,38.206,38.206,0,0,1,2.15-10.02c-6.5-1.466-12.626-3.207-16.149-6.15-.43,1.813-.938,5.362-2.021,8.88-1.155,3.725-2.958,7.409-6.015,8.994a64.459,64.459,0,0,1,15.76,12.994" transform="translate(-47.338 -33.881)" fill="#f9a07b"/>
    <path id="Path_7114" data-name="Path 7114" d="M125.859,86.485a2.718,2.718,0,0,0,.192,1.337c-3.844,4.663-12.439-1.43-16.211-8.626,1.083-3.518,1.591-7.067,2.021-8.88,3.518,2.943,9.652,4.689,16.149,6.15a38.162,38.162,0,0,0-2.15,10.02" transform="translate(-52.933 -33.886)" fill="#e06a58"/>
    <path id="Path_7115" data-name="Path 7115" d="M116.463,157.657c-.85,5.626,5.222,11.683,5.373,14.688-12.9,0-39.908.788-53.664-1.083-.627-3.471,6.165-11.279,6.165-18.988,0-1.021-.041-2.14-.124-3.342-.218-3.44-.725-7.533-1.29-11.73-1.534-11.258-3.575-23.3-2.067-25.8,2.953-4.865,9.859-8.17,13.284-9.59,1.176-.487,1.943-.751,2-.782,4.295,7.326,13.035,13.574,16.335,13.294.917-.073,3.637-1.021,5.435-10.072.7.4,1.4.767,2.093,1.124,3.414,1.777,6.616,3.243,7.538,5.528,2.435,6.015,4.823,21.179,4.295,26.573-.534,5.44-2.72,9.595-4.254,15.056-.357,1.28-.684,2.637-.948,4.1-.067.326-.119.668-.171,1.021" transform="translate(-32.833 -48.69)" fill="#ffc73c"/>
    <path id="Path_7116" data-name="Path 7116" d="M121.836,200.677c-12.9,0-39.908.787-53.664-1.083-.627-3.471,6.165-11.279,6.165-18.988,0-1.021-.041-2.14-.124-3.342-.218-3.44-.725-7.533-1.29-11.73,2.44,2.575,6-8.3,7.574-5.119,8.523,17.2,15.242,21.723,26.92,21.723a44.834,44.834,0,0,0,10.165-1.269c-.357,1.28-.684,2.637-.948,4.1q-.093.5-.171,1.026c-.85,5.616,5.222,11.673,5.373,14.683" transform="translate(-32.833 -77.022)" fill="#fb3"/>
    <path id="Path_7117" data-name="Path 7117" d="M124.893,105.382c-.554,4.026-2.2,9.45-6.973,10.88-6.455,1.932-15.8-10.129-18.889-14.444,1.176-.487,1.943-.751,2-.782,4.295,7.326,13.035,13.574,16.335,13.294.917-.073,3.637-1.021,5.435-10.072.7.394,1.4.762,2.093,1.124" transform="translate(-47.724 -48.69)" fill="#fce172"/>
    <path id="Path_7118" data-name="Path 7118" d="M154.027,226.869l-.047,4.492,80.3.477.166-5.093Z" transform="translate(-74.205 -109.271)" fill="#325f73"/>
    <path id="Path_7119" data-name="Path 7119" d="M292.794,147.592l-1.787-1.813-58.492-.383L203.17,187.832l1.534,1.233Z" transform="translate(-97.91 -70.068)" fill="#325f73"/>
    <path id="Path_7120" data-name="Path 7120" d="M235.07,148.425l-28.94,42.1,55.28.275,32.811-41.748Z" transform="translate(-99.336 -71.528)" fill="#0b2d50"/>
    <path id="Path_7121" data-name="Path 7121" d="M282.965,187.875c3.554,0,6.435,1.44,6.435,3.217s-2.881,3.217-6.435,3.217-6.435-1.44-6.435-3.217,2.881-3.217,6.435-3.217" transform="translate(-133.263 -90.539)" fill="#3c738c"/>
    <path id="Path_7122" data-name="Path 7122" d="M156.148,60.918c.912-4.892,4.266-8.37,7.493-7.769s5.1,5.054,4.191,9.946-4.266,8.37-7.493,7.768-5.1-5.054-4.191-9.946" transform="translate(-75.139 -25.581)" fill="#56c4f9"/>
    <path id="Path_7123" data-name="Path 7123" d="M166.771,26.241c-.6,4.259-2.5,8.953-5.274,14.139-.974-4.248-1.6-9.424-2.456-14.6-.876-5.186-1.989-10.372-3.922-14.61a25.364,25.364,0,0,0-1.42-2.663,9.453,9.453,0,0,1,3.409.306,11.422,11.422,0,0,1,4.663,2.544,16.349,16.349,0,0,1,4.544,7.424,16.661,16.661,0,0,1,.456,7.46" transform="translate(-74.07 -4.08)" fill="#0b2d50"/>
    <path id="Path_7124" data-name="Path 7124" d="M138.613,28.687c-.031.839-.088,1.694-.166,2.544-1.181,13.781-6.968,23.236-15.822,23.236-12.5,0-20.6-14.019-20.6-27.754,0-13.548,8.3-23.355,18.014-22.221,5.6.642,9.693,2.5,12.6,5.228a17.173,17.173,0,0,1,4.259,6.5,28.4,28.4,0,0,1,1.715,9.357c0,.01.01.021.01.031.041,1.005.031,2.031-.005,3.083" transform="translate(-49.165 -2.122)" fill="#f9a07b"/>
    <path id="Path_7125" data-name="Path 7125" d="M143.938,38.008a13.85,13.85,0,0,0-1.684-3.8,39.34,39.34,0,0,1-24.49,3.932c-1.585,1.321-3.134,2.622-4.694,3.922.031-6.269.119-10.512,2.565-13.548,2.3-2.849,6.124-3.922,9.75-4.388a45.1,45.1,0,0,1,12.3.078,12.452,12.452,0,0,1,4.533,1.342,28.4,28.4,0,0,1,1.715,9.357c0,.01.01.021.01.031.036.995.026,2.021-.01,3.072" transform="translate(-54.49 -11.443)" fill="#e06a58"/>
    <path id="Path_7126" data-name="Path 7126" d="M136.968,18.083a23.1,23.1,0,0,1-6.279,3.627c-6.87,2.772-15.8,3.689-22.754,3.352-3.419,7.512-4.8,10.206-5.678,16.76-3.342-3.134-6.062-8.875-6.87-13.387A30.62,30.62,0,0,1,95.92,14.8a20.394,20.394,0,0,1,10.4-12.512,19.554,19.554,0,0,1,2.238-1.036,21.432,21.432,0,0,1,13.9-.166,16.555,16.555,0,0,1,6.29,3.658c3.528,3.186,5.709,7.5,7.119,10.735.446.99.8,1.886,1.1,2.606" transform="translate(-45.717 -0.005)" fill="#0b2d50"/>
    <path id="Path_7127" data-name="Path 7127" d="M149.085,22.161a21.092,21.092,0,0,0-1.311-4.378,15.084,15.084,0,0,0-1.233-2.316,12.7,12.7,0,0,0-6.616-5.393A24.344,24.344,0,0,0,137.439,7.1,19.191,19.191,0,0,0,126.73,1.448a20.345,20.345,0,0,0-9.73.829,19.554,19.554,0,0,1,2.238-1.036,21.432,21.432,0,0,1,13.9-.166,16.555,16.555,0,0,1,6.29,3.658,11.422,11.422,0,0,1,4.663,2.544,16.349,16.349,0,0,1,4.544,7.424,16.737,16.737,0,0,1,.451,7.46" transform="translate(-56.384 0)" fill="#225570"/>
    <path id="Path_7128" data-name="Path 7128" d="M127.78,57.821a8.77,8.77,0,0,1,8.072-.689" transform="translate(-61.579 -27.21)" fill="none" stroke="#0b2d50" stroke-linecap="round" stroke-width="2"/>
    <path id="Path_7129" data-name="Path 7129" d="M158.32,57.822c1.979-1.477,4.911-1.627,6.44,0" transform="translate(-76.296 -27.304)" fill="none" stroke="#0b2d50" stroke-linecap="round" stroke-width="2"/>
    <path id="Path_7130" data-name="Path 7130" d="M153.334,73.445a9.483,9.483,0,0,1-.4,4.4" transform="translate(-73.699 -35.394)" fill="none" stroke="#cc454e" stroke-linecap="round" stroke-width="2"/>
    <path id="Path_7131" data-name="Path 7131" d="M137.753,69c.526,0,.953.672.953,1.5s-.427,1.5-.953,1.5-.953-.672-.953-1.5.427-1.5.953-1.5" transform="translate(-65.926 -33.254)" fill="#262d40"/>
    <path id="Path_7132" data-name="Path 7132" d="M161.8,67.655c.526,0,.953.672.953,1.5s-.427,1.5-.953,1.5-.953-.672-.953-1.5.427-1.5.953-1.5" transform="translate(-77.516 -32.604)" fill="#262d40"/>
    <path id="Path_7133" data-name="Path 7133" d="M144.228,84a7.321,7.321,0,0,1-.544.855,5.917,5.917,0,0,1-2.813,2.192h-.005a3.674,3.674,0,0,1-1.808.119c-1.948-.347-2.461-2.145-2.554-3.528a7.409,7.409,0,0,1-.016-.746,7.062,7.062,0,0,1,.073-.933A22.182,22.182,0,0,0,144.228,84" transform="translate(-65.773 -39.495)" fill="#cc454e"/>
    <path id="Path_7134" data-name="Path 7134" d="M144.23,84a7.32,7.32,0,0,1-.544.855,21.4,21.4,0,0,1-7.2-1.964,7.063,7.063,0,0,1,.073-.933A22.181,22.181,0,0,0,144.23,84" transform="translate(-65.776 -39.495)" fill="#fff"/>
    <path id="Path_7135" data-name="Path 7135" d="M140.882,88.594a3.673,3.673,0,0,1-1.808.119c-1.948-.347-2.461-2.145-2.554-3.528a5.3,5.3,0,0,1,4.362,3.409" transform="translate(-65.791 -41.052)" fill="#e8729b"/>
    <path id="Path_7136" data-name="Path 7136" d="M107.282,30.235a35.814,35.814,0,0,1,2.58-12.88A18.509,18.509,0,0,1,126.777,5.62a18.168,18.168,0,0,1,13.066,5.108,13.7,13.7,0,0,0-7.777-5.942,21.677,21.677,0,0,0-12.605.658c-4.228,1.715-9.5,6.476-11.4,11.507s-2.829,12.864-2.829,12.864Z" transform="translate(-50.712 -2.001)" fill="#3d86e0"/>
    <path id="Path_7137" data-name="Path 7137" d="M100.189,50.5c3.441-.357,6.669,3.579,7.211,8.792s-1.808,9.73-5.248,10.088-6.669-3.579-7.211-8.792,1.808-9.73,5.248-10.088" transform="translate(-45.715 -24.326)" fill="#56c4f9"/>
    <path id="Path_7138" data-name="Path 7138" d="M98.889,56.391c2.221-.334,4.5,2.563,5.085,6.471s-.737,7.346-2.959,7.68-4.5-2.563-5.085-6.471.738-7.346,2.959-7.68" transform="translate(-46.163 -27.163)" fill="#3d86e0"/>
    <path id="Path_7139" data-name="Path 7139" d="M143.816,93.385c1.843,0,3.336.93,3.336,2.078s-1.494,2.078-3.336,2.078-3.336-.93-3.336-2.078,1.494-2.078,3.336-2.078" transform="translate(-67.699 -45.003)" fill="#3a92c9"/>
    <path id="Path_7140" data-name="Path 7140" d="M114.57,83.985a20.158,20.158,0,0,0,13.424,6.948" transform="translate(-55.213 -40.473)" fill="none" stroke="#3a92c9" stroke-linecap="round" stroke-width="2"/>
    <path id="Path_7141" data-name="Path 7141" d="M112.613,184.342l-.321,8.284S82.33,201.6,77.383,198.765c-2.414-1.388-4.668-9.025-6.352-16.48-1.762-7.833-2.891-15.46-2.891-15.46l17.563-3.44s.01,10.709.606,16.9c.212,2.305.518,3.984.927,4.259,1.549,1.021,25.376-.2,25.376-.2" transform="translate(-32.837 -78.737)" fill="#f9a07b"/>
    <path id="Path_7142" data-name="Path 7142" d="M86.309,180.27c-3.191,1.036-9.351,2.637-15.278,2.005-1.762-7.833-2.891-15.46-2.891-15.46l17.563-3.44c0-.005.01,10.7.606,16.895" transform="translate(-32.837 -78.732)" fill="#e06a58"/>
    <path id="Path_7143" data-name="Path 7143" d="M150.9,200.182c4.456-.953,12-3.243,15.128-4.031,2.223-.56,8.01,2.435,9.538,5.259.668,1.233,1.3,8.217-1.015,7.5-1.161-.363-.969-3.357-1.331-4.58a5.4,5.4,0,0,0-2.673-2.787,15.8,15.8,0,0,1,.819,7.051,3.656,3.656,0,0,1-.332,1.658,1.19,1.19,0,0,1-1.4.627c-.528-.218-.71-.876-.829-1.451a47.166,47.166,0,0,1-.99-6.227c.041,2.212-.005,4.43-.145,6.637-.1,1.689-.943,2.616-1.974,2.321-.461-.13-.648-.554-.844-1.114-.311,1.083-1.088,2.28-2.093,1.824-.611-.275-.99-2.482-.881-4.751a13.294,13.294,0,0,1-6.611,1.818c-2.249.1-4.549-.316-5.9-1.844a39.747,39.747,0,0,1,1.534-7.906" transform="translate(-71.983 -94.495)" fill="#f9a07b"/>
    <path id="Path_7144" data-name="Path 7144" d="M178.921,219.326a15.84,15.84,0,0,0-.461-5.341" transform="translate(-86.002 -103.122)" fill="none" stroke="#cc454e" stroke-linecap="round" stroke-width="1"/>
    <path id="Path_7145" data-name="Path 7145" d="M81.253,119.672c-1.275-3.59-5.942-10.937-5.942-10.937s-7.124,2.963-9.652,7.994c-4.279,8.517-2.1,32.971-2.1,32.971,5.766,2.414,17.34,2.451,22.267,1.756,0,0-2.015-24.609-4.57-31.785" transform="translate(-30.362 -52.401)" fill="#ffc73c"/>
    <path id="Path_7146" data-name="Path 7146" d="M99.98,132.745a158.4,158.4,0,0,1,3.316,26.469" transform="translate(-48.182 -63.971)" fill="none" stroke="#f2ae30" stroke-linecap="round" stroke-width="1"/>
    <rect id="Rectangle_374" data-name="Rectangle 374" width="204.272" height="5.124" transform="translate(0 121.09)" fill="#0b2d50"/>
  </g>
</svg>
