<svg id="Group_795" data-name="Group 795" xmlns="http://www.w3.org/2000/svg" width="138.585" height="135.831" viewBox="0 0 138.585 135.831">
  <g id="lPyDl2.tif" transform="translate(0 0)">
    <g id="Group_785" data-name="Group 785" transform="translate(0 0)">
      <path id="Path_7087" data-name="Path 7087" d="M777.853,438.607a2.894,2.894,0,0,1-1-2.394q.04-27.429.022-54.858c0-1.934.449-2.314,2.7-2.316q8.319-.007,16.637,0c.785,0,1.656.156,1.57-.97-.068-.9.319-1.941-1.38-2.032a14.98,14.98,0,0,1-3.766-.833c-5.826-1.87-8.291-5.873-6.835-11.149a18.832,18.832,0,0,1,1.892-4.427q4.206-7.269,8.37-14.555c.722-1.27,1.575-2.295,3.393-2.27a3.58,3.58,0,0,1,3.255,2.221c2.788,4.907,5.626,9.794,8.445,14.688a16.583,16.583,0,0,1,2.137,5.9c.572,3.907-1.336,7.123-5.353,8.938a19.224,19.224,0,0,1-5.8,1.553c-1.645.185-1,1.277-1.106,2.062-.125.91.6.881,1.316.88,4.98-.006,9.96-.036,14.939.022,1.2.014,1.365-.4,1.36-1.3-.034-6.425.015-12.85-.046-19.274a3.013,3.013,0,0,1,1.606-2.856c6.976-4.472,13.892-9.016,20.852-13.508a1.12,1.12,0,0,0,.647-1.084,12.76,12.76,0,0,1,.01-2.074c.121-1-.313-1.432-1.462-1.511a16.759,16.759,0,0,1-3.925-.894c-5.722-1.825-8.34-5.963-7.046-11.158a18.888,18.888,0,0,1,1.986-4.869c3-5.2,6.028-10.391,8.983-15.612a3.6,3.6,0,0,1,3.34-2.121,3.487,3.487,0,0,1,3.205,2.065c2.995,5.259,6.055,10.489,9.045,15.75A14.742,14.742,0,0,1,858.061,328c-.015,3.427-1.75,5.959-5.1,7.669a18.328,18.328,0,0,1-6.4,1.826c-1.135.123-1.545.478-1.61,1.573a4.017,4.017,0,0,0,2.285,4.107c6.5,4.032,12.808,8.3,19.233,12.429a3.068,3.068,0,0,1,1.638,2.854q-.061,19.2-.014,38.4c0,.472-.287,1.123.225,1.38s1.006-.3,1.471-.547c4.945-2.59,9.846-5.247,14.838-7.766,1.334-.673.815-1.581.879-2.428.069-.919-.854-.721-1.467-.828a24.018,24.018,0,0,1-4.383-1.117c-5.19-1.969-7.375-5.753-6.144-10.585a18.694,18.694,0,0,1,1.944-4.723c2.816-4.895,5.648-9.783,8.438-14.689a3.591,3.591,0,0,1,6.594.038c2.791,4.907,5.63,9.792,8.431,14.694a14.527,14.527,0,0,1,2.224,7.075q.046,5.049-4.959,7.559a20.764,20.764,0,0,1-5.909,1.751c-.567.1-1.443-.069-1.378.739.068.841-.552,1.789.774,2.472q9.495,4.893,18.89,9.932a65.406,65.406,0,0,1,6.84,3.794c0,11.211-.034,22.421.045,33.632.009,1.29-.425,1.395-1.7,1.394Q845.8,438.585,777.853,438.607Zm40.778-29.778c0-8.45-.028-16.9.032-25.351.009-1.195-.275-1.581-1.736-1.574q-17.484.085-34.969,0c-1.389-.006-1.79.274-1.786,1.53q.076,25.351,0,50.7c0,1.19.27,1.588,1.734,1.58q17.485-.084,34.969,0c1.394.006,1.8-.284,1.787-1.536C818.6,425.73,818.631,417.279,818.631,408.829Zm68.627,26.845c7.7,0,15.393-.025,23.088.024,1.287.008,1.721-.236,1.713-1.445-.062-9.341-.049-18.682-.011-28.023a1.872,1.872,0,0,0-1.223-1.871q-10.908-5.717-21.753-11.524a3.573,3.573,0,0,0-3.758-.016Q874.547,398.6,863.7,404.261a2.107,2.107,0,0,0-1.394,2.091q.08,13.937,0,27.874c-.007,1.166.354,1.484,1.691,1.475C871.752,435.645,879.505,435.674,887.258,435.674Zm-22.466-70.646c0-1.878-.024-3.757.012-5.635.015-.74-.245-.949-1.091-.764-1.808.395-3.637.719-5.458,1.072q-17.458,3.392-34.919,6.769c-.863.166-1.427.314-1.413,1.27.057,3.657.048,7.316.006,10.973-.01.852.353,1.022,1.211.845,1.925-.4,3.857-.766,5.788-1.141,11.364-2.2,22.725-4.419,34.1-6.58,1.316-.25,1.929-.629,1.8-1.919C864.674,368.3,864.793,366.659,864.792,365.028Zm0,16.008c0-1.828-.035-3.658.016-5.485.023-.841-.211-1.151-1.25-.947q-20.257,3.975-40.53,7.887c-.855.165-1.1.474-1.094,1.183.026,3.657.038,7.314-.006,10.971-.011.943.377,1.036,1.317.852q20.09-3.941,40.2-7.814c1.034-.2,1.416-.525,1.372-1.458C864.735,384.5,864.793,382.766,864.792,381.036Zm-42.837,24.017c0,1.828.051,3.657-.02,5.482-.038.984.268,1.124,1.358.909,10.683-2.115,21.384-4.164,32.072-6.261,1.6-.313,3.555-.109,4.235-2,.092-.256.616-.4.953-.581,1.112-.588,2.215-1.19,3.35-1.742a1.4,1.4,0,0,0,.914-1.429c-.04-2.618-.061-5.237.006-7.853.025-.978-.318-1.183-1.372-.976q-20.084,3.932-40.185,7.8c-1.05.2-1.371.568-1.332,1.469C822.006,401.593,821.954,403.324,821.955,405.052Zm37.064,8.988c0-1.829-.036-3.658.016-5.485.024-.851-.187-1.086-1.234-.88q-17.282,3.4-34.589,6.692c-1.075.2-1.306.633-1.287,1.5.055,2.519-.024,5.041.037,7.56.033,1.363-.711,3.219.342,3.934.788.535,2.852-.331,4.336-.616q15.475-2.981,30.947-5.968c1.031-.2,1.526-.528,1.462-1.55C858.94,417.5,859.019,415.77,859.019,414.04Zm-15.5-108.347c-.247.367-.4.566-.523.78q-4.431,7.745-8.857,15.492a15.636,15.636,0,0,0-1.492,3.454c-1.256,4.383.493,7.18,5.4,8.612.853.249,1.757.362,2.617.6.9.247,1.06-.117,1.051-.8-.025-1.976,0-3.952-.011-5.928-.007-.96.338-1.7,1.569-1.731,1.334-.035,1.721.759,1.736,1.762.016,1.037.006,2.075.006,3.112,0,4.327.2,4.433,4.959,2.7,3.767-1.373,5.248-3.639,4.708-7.145a10.992,10.992,0,0,0-1.31-3.811C850.143,317.142,846.877,311.51,843.521,305.693ZM861.55,356.1c-.546-.4-.831-.623-1.139-.823-5.119-3.343-10.263-6.656-15.345-10.042a2.686,2.686,0,0,0-3.451.006c-5.213,3.48-10.364,7.05-15.8,10.245-3,1.763-4.418,3.687-3.946,6.865.193,1.3.581,1.378,1.794,1.137,6.06-1.2,12.133-2.348,18.2-3.528C848.309,358.707,854.753,357.436,861.55,356.1Zm-62.128-10.364c-3.3,5.754-6.495,11.247-9.6,16.777a10.752,10.752,0,0,0-1.018,3.117c-.59,2.875.779,5.157,3.787,6.452a19.772,19.772,0,0,0,4.026,1.108c.969.191,1.212-.1,1.188-.87-.032-1.036-.009-2.073.007-3.11a1.607,1.607,0,0,1,3.212.006c.018,1.086.014,2.173.021,3.259,0,.494.078.869.859.752,5.4-.81,9.859-3.133,7.645-9.355a6.839,6.839,0,0,0-.431-1.119C805.936,357.152,802.739,351.553,799.422,345.739Zm87.733,10.91c-.384.087-.432.424-.573.666q-4.206,7.263-8.384,14.539a14.267,14.267,0,0,0-1.405,3.325c-1.119,4.057.567,6.7,5.128,8.027.8.233,1.637.366,2.452.561.861.205,1.208-.005,1.18-.844-.062-1.826-.02-3.655-.016-5.483a1.655,1.655,0,1,1,3.309-.059c.027,1.185.01,2.371.011,3.557,0,3.361,0,3.361,3.744,2.228,4.377-1.326,6.034-3.924,4.989-7.847a6.5,6.5,0,0,0-.528-1.559q-4.843-8.547-9.739-17.072C887.308,356.658,887.221,356.662,887.155,356.648Zm-46.663,79.039c5.653,0,11.307-.035,16.959.026,1.285.014,1.625-.316,1.6-1.414-.082-3.208-.062-6.418-.01-9.627.016-.982-.2-1.237-1.409-1-10.515,2.077-21.05,4.079-31.573,6.124-4.225.821-4.178.845-4.14,4.677.009.985.361,1.238,1.446,1.23C829.073,435.666,834.782,435.688,840.492,435.688Z" transform="translate(-776.857 -302.803)" fill="#1374c4"/>
      <path id="Path_7088" data-name="Path 7088" d="M1054.96,666.308c.472-2.465.934-5.1,1.506-7.718a1.506,1.506,0,0,0-.632-1.682c-2.056-1.7-4.064-3.438-6.1-5.155-.629-.53-1.207-1.063-.917-1.923.3-.881,1.132-.99,2-1.1,2.742-.344,5.473-.765,8.223-1.033a2.239,2.239,0,0,0,2.01-1.291c1.181-2.187,2.445-4.34,3.654-6.515a1.908,1.908,0,0,1,3.581-.01c1.19,2.129,2.449,4.229,3.595,6.375a2.455,2.455,0,0,0,2.252,1.441c2.809.252,5.593.71,8.39,1.067.784.1,1.432.329,1.655,1.059a1.555,1.555,0,0,1-.681,1.719c-2.081,1.747-4.123,3.528-6.227,5.252a1.7,1.7,0,0,0-.724,1.936c.552,2.318.958,4.663,1.407,7,.15.778.382,1.6-.5,2.187a2.393,2.393,0,0,1-2.526-.167c-2.448-1.13-4.915-2.231-7.337-3.4a2.239,2.239,0,0,0-2.183.02q-3.861,1.857-7.8,3.586C1056.014,668.648,1054.9,667.983,1054.96,666.308Zm24-15.073c-2.435-.323-4.6-.692-6.787-.871a2.92,2.92,0,0,1-2.638-1.741c-.9-1.728-1.924-3.407-3.048-5.374-1.156,2.041-2.176,3.78-3.129,5.547a2.77,2.77,0,0,1-2.439,1.541c-2.247.214-4.475.583-6.677.883,1.68,1.541,3.2,3,4.8,4.38a2.281,2.281,0,0,1,.871,2.52c-.459,1.9-.776,3.835-1.21,6.051,2.155-.978,4.042-1.745,5.822-2.673a3.814,3.814,0,0,1,3.925-.018c1.765.938,3.652,1.7,5.8,2.681-.391-2.088-.622-3.892-1.091-5.647a2.784,2.784,0,0,1,1.211-3.261C1075.926,654.053,1077.313,652.693,1078.959,651.234Z" transform="translate(-956.179 -538.813)" fill="#1374c4"/>
    </g>
  </g>
</svg>
