<svg xmlns="http://www.w3.org/2000/svg" xmlns:xlink="http://www.w3.org/1999/xlink" width="1826" height="980.91" viewBox="0 0 1826 980.91">
  <defs>
    <clipPath id="clip-path">
      <rect id="Rectangle_384" data-name="Rectangle 384" width="1826" height="980.91" fill="none"/>
    </clipPath>
  </defs>
  <g id="Group_859" data-name="Group 859" transform="translate(0 0.002)" opacity="0.41">
    <g id="Group_858" data-name="Group 858" transform="translate(0 -0.002)" clip-path="url(#clip-path)">
      <path id="Path_7330" data-name="Path 7330" d="M238.8,94.931c-11.853,7.73-26.736-7.047-40.784-5.355-3.257.393-6.459,1.688-9.715,1.287-5.37-.662-9.816-5.814-15.182-5.112-2.733.361-5.328,2.252-8.016,1.642-2.268-.511-3.748-2.631-5.6-4.037-4.26-3.229-10.211-2.543-15.474-1.633A529.072,529.072,0,0,0,89.793,94.11C83.9,95.787,77,98.7,76.135,104.77a5.67,5.67,0,1,1-3.607,10.117c1.258-1.4-.2-3.821-2.043-4.156s-3.655.641-5.281,1.586q-7.682,4.466-15.359,8.935l-5.871-3.792c-3.544.755-2.75,6.682.522,8.245s7.1.47,10.7.108,8.088.667,9.08,4.151q-8.813,1.413-17.629,2.823c-11.425,1.831-23.549,8.621-32.658,15.757-3.086,2.419-5.7,7.94-2.067,9.419a8.456,8.456,0,0,1,7.115-1.36,18.54,18.54,0,0,0-5.435,10.18,16.561,16.561,0,0,1,21.059.366q-15.227,6.2-30.457,12.413a7.372,7.372,0,0,0-3.684,2.48c-1.914,3.018,1.77,7.017,5.344,6.9s6.526-2.647,9.327-4.869a82.493,82.493,0,0,1,22.038-12.5c1.68-.633,3.542-1.221,5.243-.644,1.406.478,2.436,1.654,3.592,2.582,5.362,4.287,13.426,3,19.369-.44s10.683-8.646,16.446-12.383c7.7-4.99,16.839-7.131,25.777-9.189,5.435-1.251,11.37-2.453,16.391-.026,4.958,2.4,7.927,7.876,12.964,10.093,2.638,1.161,5.892,1.481,7.65,3.769,2.268,2.961.613,7.242-1.4,10.385s-4.444,6.669-3.467,10.267,7.7,4.205,7.652.476a23.71,23.71,0,0,1,1.966,19.387c-3.565,4.477,1.313,10.618,5.593,14.415s8.292,10.951,3.771,14.462c-1.3,1-2.98,1.319-4.531,1.855a16.036,16.036,0,0,0-10.525,14.8c-11.978,13.3-25.225,28.508-28.725,46.064-2.144,10.738-.717,21.83.717,32.687.356,2.7.783,5.563,2.563,7.626,1.445,1.675,3.584,2.574,5.253,4.022,2.145,1.866,3.4,4.536,4.463,7.17,5.217,12.915,7.326,26.872,11.769,40.072a118.774,118.774,0,0,0,17.136,32.8,87.282,87.282,0,0,0-10.915-43.741c-1.369-2.464-2.9-5.012-2.913-7.827s2.248-5.86,5.043-5.5c6.235.807,2.012,12.56,7.259,16.027-1.837,7.68,9.312,13.269,11.792,20.765,1.2,3.629.617,7.9,2.82,11.021,1.3,1.84,3.363,2.957,5.127,4.361a18.837,18.837,0,0,1,6.8,17.1c-.532,3.7-2.189,7.267-1.98,11,.4,7.16,7.393,12.133,14.181,14.445s14.273,3.2,20.085,7.4c3.007,2.177,5.392,5.128,8.417,7.285a20.576,20.576,0,0,0,21.463,1.178c2.329-4.518,8.746-2.9,11.492,1.368s3.952,9.907,8.272,12.583c5.054,3.124,11.723.612,17.489,2.034,14.792,3.663,13.72,28.182,27.524,34.642,4.139,1.943,9.316,2.02,12.488,5.311,1.427,1.475,2.3,3.492,4.01,4.636,3.579,2.4,8.258-.26,12.548-.639,10.81-.939,17,13.426,13.927,23.831s-11.384,18.36-16.388,27.986c-6.578,12.657-7.134,27.471-7.55,41.728-.214,7.336-.188,15.4,4.542,21,2.975,3.532,7.387,5.505,10.818,8.6,12.453,11.207,8.989,33.435,21.49,44.6,7.184,6.414,17.79,7.35,25.8,12.692,9.3,6.209,13.891,17.632,15.166,28.744s-.217,22.333-.331,33.519a135.825,135.825,0,0,0,7.326,45.3c1.732,5.057,3.795,10.135,3.9,15.484.083,4.305-1.115,8.52-2.026,12.734a97.872,97.872,0,0,0,9.217,66.087c-.563-3.683,4.926-5.883,7.957-3.716s3.635,6.474,3.064,10.152-2.036,7.231-2.113,10.955c-.12,5.683,2.977,10.89,6.2,15.568A171.759,171.759,0,0,0,471.889,986.3c10.287,8.373,25.528,15.525,35.988,7.371a24.06,24.06,0,0,1-18.226-22.354c-.207-11.372,6.783-25.584-2.346-32.375-3.857-2.867-9.877-3.315-11.823-7.71-2.936-6.628,6.9-12.733,6.46-19.972-.245-4.039-3.6-7.073-5.907-10.4s-3.2-8.744.3-10.786c3.425-1.994,8.508.958,11.475-1.671,1.79-1.584,1.764-4.4,3.08-6.4,2.337-3.548,7.57-3.138,11.524-4.705,5.555-2.2,8.466-8.647,8.375-14.619s-2.561-11.628-4.988-17.086c16.144-1.52,36.169-6.331,39.345-22.226.807-4.038.3-8.327,1.657-12.216,2.518-7.215,11.047-12.08,10.89-19.715-.092-4.628-3.522-8.616-4-13.226-1-9.818,10.869-15.55,20.647-16.848s21.583-2.305,26.086-11.083c5.118-9.975-3.263-23.382,2.7-32.87,3.366-5.359,10.528-7.817,12.892-13.685,3.088-7.666-3.729-15.664-4.391-23.893-.723-9,5.875-16.712,9.408-25.02s1.443-21.144-7.554-21.882c-2.735-11.35-15.75-22.369-27.423-22.683-5.022-.133-10.311,1.1-14.927-.9-3.606-1.564-6.121-4.837-9-7.514a33.75,33.75,0,0,0-33.008-7.141,113.433,113.433,0,0,0-14.351-42.023c-1.468-2.527-3.122-5.084-5.619-6.6-5.917-3.568-13.418.077-20.326.039-11.178-.059-19.625-9.609-27.13-17.892s-17.874-16.725-28.65-13.758c-3.758,1.034-7.4,3.443-11.226,2.691-2.949-.582-5.182-2.913-7.777-4.433s-6.493-1.935-8.117.6a7.48,7.48,0,1,0-14.226,3.84c.8-5.62-11.146-10.544-16.5-8.648-2.652.932-4.705,3.161-7.384,4.025-2.967.953-6.868.4-8.556,3.021-1.519,2.358.021,5.627-1,8.242-1.378,3.518-6.426,3.78-9.858,2.205s-6.38-4.348-10.1-5.026c-5.537-1.01-11.14,2.928-16.635,1.729-9.265-2.01-9.685-15-7.635-24.249s2.595-21.958-6.375-25.009c-4.181-1.417-8.7.174-13.069.761s-9.84-.587-11.183-4.793c-.979-3.068.733-6.282,2.387-9.047q4.119-6.91,8.249-13.817c1.75-2.931,3.553-6.042,3.576-9.457s-2.489-7.093-5.9-7.032c-1.993.034-3.745,1.279-5.284,2.548-12.013,9.908-23.776,25.731-38.895,22-13.63-3.365-18.134-20.994-15.672-34.819a68.739,68.739,0,0,1,28.739-44.3c5.193-3.521,12.265-6.276,17.474-2.781,2.782,1.861,4.574,5.288,7.808,6.147,10.112,2.677,10.442-19.977,20.9-19.98,1.849,11.052,20.814,7.8,27.2,17.007,3.74,5.392,1.57,12.666,1.468,19.227s5.17,14.724,11.211,12.159c8.852-13.752-1.161-33.432,6.572-47.844,8.641-16.11,34.106-16.411,43.068-32.342,5.6-9.944,5.418-25.938,16.626-28.061,15.906-3.014,28.287-19.209,42.24-27.432,3.405-2.009,6.915-4.056,10.818-4.663,8.656-1.357,18.556,4.337,25.716-.705,2.782-1.959,4.574-5.3,7.739-6.571,3.116-1.246,6.606-.114,9.95.217s7.519-.833,8.2-4.124c1.085-5.285-7.132-6.841-12.239-5.113s-12.483,3.229-14.4-1.81c-1.784-4.688,4.079-9.327,3.335-14.289-.6-3.969-5.4-6.131-9.336-5.372s-7.144,3.537-10.14,6.2c-2.3-.8-1.35-4.32.25-6.156,8.055-9.231,21.4-11.7,33.645-11.626s24.665,2.1,36.641-.477c6.725-1.448,14.451-8.184,10.509-13.822-3.342-4.781-12.337-3.221-14.671-8.568-1-2.288-.246-4.953-.667-7.414s-3.412-4.852-5.227-3.135c-1.758-5.707.489-11.818.476-17.79s-4.516-13.086-10.293-11.573c-3,6.8-10.164,14.926-16.181,10.552-4.409-3.206-2.936-10.037-4.58-15.235-3.142-9.936-16.294-11.57-26.716-11.368-4.379.083-9.305.409-12.19,3.7-1.8,2.063-2.4,4.871-3.335,7.446a27.531,27.531,0,0,1-10.727,13.524q2.145,6.42,4.286,12.841c-4.223,7.749-18.213,4.426-23.625,11.4-2.673,3.444-2.429,8.234-3.3,12.507a23.067,23.067,0,0,1-11.166,15.28c-7.492-2.527-10.556-13.316-5.521-19.4,1.215-1.469,2.78-2.666,3.729-4.321s1.042-4.055-.476-5.2c-1.959-1.481-4.647.118-7.056.576-8.458,1.6-13.185-11.088-21.7-12.368-4.459-.669-10.075,1.664-12.911-1.843-1.214-1.5-1.347-3.578-1.424-5.508-.166-4.089-.28-8.412,1.7-12,4.089-7.423,14.488-7.934,21.516-12.67,3.314-2.233,5.867-5.428,9.081-7.8s7.62-3.859,11.189-2.069c4.025-1.651,8.638-5.12,12.665-6.775,4.908-2.015,9.906-4.054,15.189-4.579,2.573-.255,5.185-.145,7.73-.583a32.8,32.8,0,0,0,8.4-3.009A153.775,153.775,0,0,0,492.566,97c3.983-3.333,10.786-6.538,13.432-2.067q-4.032,5.32-8.059,10.64c1.339,2.832,5.446,2.967,8.3,1.657s5.243-3.6,8.283-4.365,7.114,1.121,6.783,4.238a62.344,62.344,0,0,1-31.935,12.47c-2.506.226-5.157.349-7.261,1.732s-3.244,4.579-1.572,6.46c2.538,2.86,6.917-.309,10.417-1.85,8.08-3.55,16.792,3.037,23.034,9.275s14.445,13.179,22.8,10.349q.731-1.792,1.46-3.593-3.436-2.824-6.873-5.655c2.783-1.573,5.423,2.678,8.58,3.216,3.36.573,5.9-3.542,5.371-6.907s-2.908-6.091-4.774-8.941-3.286-6.553-1.745-9.592a9.894,9.894,0,0,1,11.96,4.3c1.627,2.983,2.707,7.56,6.091,7.3,2.126-.16,3.411-2.379,4.206-4.353a57.781,57.781,0,0,0,3.99-16.806c-2.326-1.851-5.653-1.249-8.624-1.273s-6.642-1.681-6.418-4.642c.214-2.838,3.859-4.2,4.758-6.9,1.436-4.305-5.019-7.216-9.31-5.738-1.654.571-3.378,1.468-5.055.982-3.184-.92-3.1-5.345-4.125-8.5-1.965-6.063-9.226-8.289-15.458-9.633-2.451-.522-5.136-1.022-7.351.147-2.943,1.554-5.359,5.891-8.327,4.376-1.2-.612-1.738-2-2.5-3.1-2.858-4.177-10.119-4.025-12.8.264.711-4.679-6.617-5.526-10.98-3.7a57.475,57.475,0,0,0-15.09,9.275c-2.393,2.042-4.733,4.49-5.283,7.585s1.537,6.808,4.684,6.842c1.075.011,2.186-.387,3.194-.015,2.573.951,1.308,4.911-.667,6.814a25.522,25.522,0,0,1-19.128,6.986c4.28.033,4.19-7.143.688-9.6-6.413-4.5-15.138-.432-21.83,3.649q-6.4,3.9-12.79,7.8c-3.6,2.195-10.964-1.968-14.113-4.759a25.535,25.535,0,0,1-27.3-1.73c2.212-3.723,7.379-4.314,11.662-3.681s8.7,2.044,12.846.787,7.175-6.926,4.11-9.984c-1.913,2.436-6.275-.073-6.421-3.164s2.166-5.7,4.353-7.892,4.563-4.691,4.606-7.789c-8.949-1.837-16.918,11.586-25.167,7.667-1.828-.868-3.306-2.538-5.3-2.869-2.758-.452-5.363,1.83-8.147,1.588-2.247-.2-3.983-1.96-5.706-3.411-13.651-11.534-34.734-7.216-50.25,1.648-4.118,2.352-8.635,7.093-6.089,11.091,2.75,4.318,9.354,1.481,13.628-1.331s11.885-4,12.893,1.026a11.571,11.571,0,0,1-5.474,3.765c-2.836,3.635,2.217,8.752,6.829,8.752s8.99-2.5,13.6-2.276,9.184,5.978,5.856,9.173c-1.529,1.469-3.9,1.489-6.02,1.421l-21.218-.687c3.4-3.3-1.97-8.881-6.7-8.638s-9.31,3.019-13.941,2.052c-5.433-1.131-9.933-7.222-15.233-5.568-2.511.787-4.288,3.205-6.835,3.862-2.429.625-4.92-.487-7.273-1.36a40.9,40.9,0,0,0-31.68,1.5c.751-.928-2.105.54-1.355-.391" transform="translate(0 -16.348)" fill="#eaeaf3"/>
      <path id="Path_7331" data-name="Path 7331" d="M822.277,12.514Q799.6,19.07,776.911,25.629c-4.152,1.2-9.382,4.777-7.21,8.514,2.346,4.041,8.642.4,13.2,1.448,5.041,1.152,6.91,7.935,11.763,9.714,5.668,2.073,12.059-3.736,17.685-1.546,6.515,2.533,5.2,12.05,2.709,18.579,5.061-.217,11.539.514,12.97,5.371,2.218,7.512-9.624,10.226-15.021,15.9-4.091,4.3-4.324,10.873-4.318,16.813.012,11.823,1.257,25.882,11.538,31.718,7.121,4.04,18.419,4.4,19.83,12.463a174.224,174.224,0,0,1,28.42-40.655c2.928-3.128,6.241-6.291,10.449-7.108,5.723-1.109,11.4,2.422,17.224,2.238,13.916-.444,22.861-21.05,36.339-17.534,5.822,1.514,10.686,7.55,16.553,6.193,9.046-2.089,6.11-16.594,12.148-23.646,3.111-3.629,8.185-4.71,12.873-5.61s9.77-2.062,12.779-5.769S988.828,42,984.129,41.135a34.717,34.717,0,0,0,15.262-22.769c5.39,1.571,9.479-6.6,6.364-11.27s-9.691-5.589-15.213-4.6-10.79,3.417-16.393,3.733c-7.388.416-14.41-2.849-21.606-4.573C934-2.787,915.085,2.878,896.618,4.871c-14.335,1.548-28.619-.385-42.933.835-10.707.912-21.123,3.836-31.408,6.808" transform="translate(-196.776 0.002)" fill="#eaeaf3"/>
      <path id="Path_7332" data-name="Path 7332" d="M1037.063,132.529a16.41,16.41,0,0,0-13,5.348c-1.007-1.229-1.3-2.883-2.041-4.286a7.386,7.386,0,0,0-13.921,3.329c-.068,4.138,3.209,7.47,6.247,10.28,3.984,3.685,8.58,7.6,14,7.392,5.187-.2,9.917-4.244,15.044-3.417,1.866.3,3.594,1.245,5.471,1.487,4.411.571,8.457-2.9,10.43-6.895,1.478-2.972,2.127-6.612.656-9.589s-5.6-4.679-8.328-2.79" transform="translate(-257.893 -33.169)" fill="#eaeaf3"/>
      <path id="Path_7333" data-name="Path 7333" d="M2033.119,104.88a576.488,576.488,0,0,0-69.394-15.912c-16.665-2.75-33.671-4.766-50.426-2.616-13.619,1.752-28.668,5.939-40.17-1.561-3.342-2.181-6.139-5.258-9.836-6.77-6.327-2.593-13.43-.008-20.212.887-26.042,3.437-53.252-18.441-77.04-7.3-7.659,3.585-15.291,10.538-23.308,7.836-4.049-1.367-7.353-5.131-11.625-5.058-3.353.051-6.255,2.515-9.593,2.8-5.764.493-9.8-5.211-14.136-9.031-22.475-19.8-61.936,8.636-86.572-8.408,5.8-1.437,5.87-10.781.982-14.219s-11.648-2.29-17.133.085-10.6,5.848-16.493,6.84c-10.44,1.758-20.388-4.583-30.816-6.432-11.5-2.038-23.188,1.468-34.344,4.94q-21.294,6.615-42.587,13.239c-5.878,1.825-12.947,6.11-13.428,11.364-3.638-5.359-10.258-8.747-16.426-6.928-8.181,2.414-11.714,18.344-3.373,20.1a5.518,5.518,0,0,1,4.1,6.285,66.86,66.86,0,0,0-41.312-8.3l1.651,7.359a40.149,40.149,0,0,0-25.137-2.138c-2.388.577-4.808,1.383-7.24,1.06-3.841-.506-7.077-3.745-10.946-3.59-8.51.341-12.778,16.049-20.485,12.428-2.719-1.278-3.784-4.529-5.7-6.849s-6.44-3.2-7.363-.339c2.91,3.259-.3,8.45-4.025,10.743s-8.449,3.993-9.933,8.111c-.958,2.669-.4,6.1-2.558,7.953-1.546,1.337-3.847,1.212-5.86.877a46.127,46.127,0,0,1-24.87-12.789,65.3,65.3,0,0,1,32.728,1.506c3.585-5.722-4.41-11.585-10.832-13.668l-46.858-15.183a32.823,32.823,0,0,0-7.617-1.814c-5.779-.435-11.311,2.179-17.021,3.169-10.558,1.833-22.133-1.789-31.748,2.947-13.368,6.586-15.708,25.5-27.709,34.341-4.059,2.983-8.954,4.593-13.322,7.108a36.9,36.9,0,0,0-17.566,24.566,8.5,8.5,0,0,0,.227,5.255c1.758,3.7,7.16,3.579,10.923,1.956s7.525-4.223,11.57-3.547c9.738,1.624,8.06,17.856,16.324,23.264,6.067,3.97,14.036.139,20.207-3.67,3.078-1.9,6.41-4.133,7.307-7.636s-2.719-7.9-5.926-6.234c-1.66-2.538,1.418-5.591,4.28-6.607s6.464-1.981,7.125-4.944c1.034-4.623-6.213-6.929-7.325-11.532-1.592-6.6,8.71-8.39,13.932-12.732,3.784-3.149,4.981-8.383,7.7-12.479s9.132-6.881,12.318-3.129c4.4,5.175-3.641,11.368-8.889,15.681-7.252,5.959-9,19.692-.416,23.5,6.64,2.946,13.828-1.981,20.574-4.676s17.493-.21,16.58,7a80.419,80.419,0,0,0-25.339.294,6.009,6.009,0,0,0-3.833,1.7c-3.756,4.611,7.791,7.655,8.936,13.492-4.913,5.727-15.292-6.565-20.937-1.551-4.025,3.577.47,11.139-2.88,15.364-3.292,4.15-9.827.947-15.123.982-9.662.071-17.992,12.082-26.841,8.2-9.526-4.17-9.092-23.377-19.4-22-5.059.671-7.421,6.491-8.8,11.4l-3.067,10.95c-.6,2.141-1.91,4.782-4.112,4.477-1.112-.156-1.026-1.324-.586-2.166-5.348,1.22-10.96,6.433-12.883,11.348-.643,1.648-1.034,3.458-2.2,4.789-3.556,4.082-10.515.251-12.882-4.615s-2.968-10.875-7.031-14.45c-4.5-3.952-13.111-5.348-12.681-11.323.134-1.942,1.373-3.606,2.054-5.429,2.084-5.578-2.223-12.547-8.144-13.174s-11.592,5.275-10.727,11.166c.286,1.925,1.13,3.906.492,5.744a6.515,6.515,0,0,1-2.376,2.833c-4.319,3.3-9.654,4.934-14.358,7.651s-9.074,7.2-9.062,12.632,6.787,10.323,11.093,7.015c1.44-1.111,2.27-2.812,3.285-4.321,4.788-7.108,13.71-9.933,21.955-12.28,3.894.307,3.167,6.626.138,9.087s-7.432,4.159-8.107,8.005c-.832,4.787,5.207,8.088,10.031,7.521s9.242-3.285,14.091-3.581,10.593,3.827,8.975,8.411c-1.272,3.6-6.09,4.5-9.786,3.55s-7.061-3.137-10.861-3.524a21.694,21.694,0,0,0-3.541,9.625,5.847,5.847,0,1,0-10.335,5.423c2.027,3.342,6.572,3.786,10.185,5.273,7.9,3.252,11.986,13.57,8.446,21.348a5.744,5.744,0,0,1-2.677,3.086c-1.969.855-4.181-.241-6.126-1.151a38.58,38.58,0,0,0-35.054,1.563c-4.63,2.687-9.089,7.536-7.825,12.74.841,3.455,4.019,5.966,4.924,9.406,2.3,8.72-10.608,18.066-5.145,25.238,2.8,3.686,8.34,3.2,12.833,4.327s8.357,7.635,4.291,9.853c2.815,15.317-30.126,19.968-28.914,35.5.239,3.023,1.79,5.889,1.644,8.922-.278,5.909-6.43,9.447-11.522,12.458a83.268,83.268,0,0,0-32.369,35.163c-1.264,2.617-2.42,5.462-2.035,8.342.352,2.6,1.909,4.86,3,7.245,8.28,18.078-10.323,40.94-.561,58.259,2.55,4.518,6.711,7.854,10.173,11.718,7.934,8.85,12.124,20.351,18.266,30.525s15.674,19.769,27.553,20.274c9.636.412,18.7-5.283,28.34-5.177,4.5.048,8.953,1.363,13.426.916,8.131-.813,14.454-7.106,21.563-11.141s17.98-4.843,21.78,2.391c2.125,4.049,1.468,9.8,5.247,12.359,4.394,2.984,10.295-1.226,15.545-.436,7.193,1.084,9.52,10.653,7.774,17.715s-5.834,13.813-5.07,21.048c.989,9.4,9.625,15.844,17.491,21.084,5.419,3.606,4.936,9.27,5.893,15.708s.294,13.22,2.7,19.273c1.431,3.6,3.9,6.785,4.89,10.538,3.966,15.051-16.8,26.645-16.685,42.214.083,11.079,10.561,19.051,14.625,29.354,4.553,11.536.7,25.141,5.472,36.59,3.512,8.435,11.466,15.068,12.464,24.143.672,6.091-1.887,12.818,1.233,18.092,2.809,4.747,9.478,6.7,11.09,11.98,1.414,4.625-1.59,10.526,1.725,14.051,1.277,1.352,3.169,1.894,4.96,2.384,8.5,2.3,17.694,4.584,25.937,1.477,7.932-2.989,13.781-10.594,22.092-12.275,4.327-.875,8.863-.009,13.19-.884,10.777-2.177,16.545-13.9,19.317-24.54s4.647-22.51,12.942-29.723c2.851-2.482,6.418-4.357,8.23-7.671,3-5.494-.045-12.183-.318-18.44-.49-10.929,7.623-20.256,15.983-27.32s17.885-13.682,22.138-23.762c9.046-21.415-10.031-45.286-6.681-68.292,2.346-16.136,15.069-28.4,26.08-40.427a274.533,274.533,0,0,0,45.662-67.949c1.028-2.166,2.031-4.7,1.014-6.868-.865-1.866-2.97-2.82-4.984-3.265-6.974-1.543-14.079,1.176-21.091,2.542s-15.549.75-19.506-5.2c-2.321-3.5-2.47-8.074-4.648-11.673-4.461-7.361-15.092-7.718-21.84-13.058-4.092-3.236-6.5-8.106-8.572-12.894a186.431,186.431,0,0,1-11.443-36.2c-1.018-4.929-1.864-9.987-4.213-14.439-3.71-7.041-10.657-11.672-16.14-17.441s-9.7-14.367-6.225-21.529c4.863-2.944,10.95,1.062,14.75,5.286a72.888,72.888,0,0,1,15.78,28.3c1.073,3.673,1.907,7.544,4.188,10.62,1.928,2.6,4.722,4.392,7.04,6.641,8.993,8.711,9.727,22.544,12.436,34.765s10.9,25.885,23.405,25.313c14.881-.677,24.4-21.374,39.1-18.985,2.9.47,5.579,1.855,8.479,2.32,5.754.923,11.5-1.924,16-5.622,8.574-7.049,14.025-17.1,19.332-26.848,4.167-7.661,8.516-16.2,6.576-24.7s-13.86-14.478-19.661-7.962a27.365,27.365,0,0,1-1.3-11.142c-6.791-2.5-10.735,8.2-17.373,11.081-6.527,2.832-13.74-2.875-17.074-9.156s-4.938-13.714-10.017-18.695-14.067-10.2-10.583-16.4c3.183-5.656,12-1.965,16.3,2.9,8.449,9.572,16.5,23.175,29.231,22.216,5.406-.408,11.725-3.352,15.622.412,1.72,1.664,2.3,4.212,3.891,6s5.272,2.073,5.8-.259c11.25,8.369,23.971,8.638,37.567,5.221,5.041-1.269,10.609-3.313,15.152-.8,8.81,4.87,6.29,22.61,16.3,23.64,3.766.388,8.743-1.811,10.642,1.464.84,1.443.45,3.268.791,4.9,1.126,5.359,11.183,3.984,10.825-1.48,8,23.65,4.5,51.52,19.067,71.793,8.013,11.145,21.268,19.7,23.176,33.3q4-1.066,8-2.127c3.655.878,3.489,6.619,6.608,8.721,3.628,2.448,8.47-2.3,8.168-6.664s-3.406-7.924-5.64-11.686c-7.257-12.235-5.485-27.59-3.486-41.676.571-4.007,1.182-8.129,3.228-11.617,3.711-6.32,11.234-9.2,16.556-14.239,6.626-6.281,9.444-15.5,14.405-23.159S1677.409,416,1685.8,419.6c4.574,1.962,7.483,6.408,11.095,9.835s9.319,5.913,13.425,3.1c-.162,6.742-.281,13.741,2.457,19.9s9.219,11.219,15.858,10.035c1.542,10.643,15.051,16.247,16.96,26.834,1.442,8.006-4.352,15.663-4.378,23.8-.037,12.481,12.722,20.758,18.313,31.919,6.063,12.09,6.051,30.4,19.147,33.789,2.627.68,4.921,3.539,7.63,3.457s5.514-2.489,4.935-5.136c-.64-2.9-4.333-3.721-6.523-5.723-4.747-4.33-1.249-12.132-2-18.517-.895-7.614-7.9-12.76-14.024-17.365-6-4.505-11.854-9.56-15.31-16.213s-4.043-15.262.287-21.383,14.267-8.074,19.559-2.76c5.2,5.226,4.378,14.78,10.22,19.277q3.618-.254,7.233-.522c-2.038,1.388-.115,4.978,2.345,5.093s4.51-1.761,6.25-3.509c10.228-10.269,21.243-25.016,14.358-37.766-5.118-9.476-18.055-12.474-23.4-21.826-6.143-10.739,3.43-26.553,15.792-26.1-1.243,5.584-2.459,11.585-.278,16.874s9.283,8.865,13.831,5.4a20.111,20.111,0,0,1,6.826-22.715c4.624-3.35,10.425-4.5,15.765-6.529a47.249,47.249,0,0,0,25.4-22.834c6.772-13.711,6.1-29.764,5.287-45.032-.159-2.977-.365-6.105-1.959-8.63-4.25-6.747-15.434-5.374-20.367-11.64-5.383-6.824.369-16.567,5.965-23.214-1.113-3.208-5.9-2.758-8.8-.989s-6.023,4.337-9.263,3.318c-1.768-.556-3.035-2.078-4.181-3.528-3-3.787-6.118-8.194-5.442-12.978s7.66-8.158,10.461-4.225c1.119,1.578,1.154,3.711,2.161,5.36,3.193,5.2,11.073,1.314,15.936-2.379s14.361-4.955,14.839,1.135c-4.679,5.222-1.706,15.041,5.082,16.793,1.992.515,4.366.557,5.632,2.174s.744,3.918.742,5.97c-.021,6.618,7.2,12.206,13.6,10.526s9.95-10.1,6.68-15.855c-3.362-5.907-11.343-7.5-15.658-12.746-5.558-6.749-3.277-16.744-.707-25.1.575-1.863,1.293-3.913,3.017-4.828,1.522-.809,3.363-.482,5.089-.478,7.035.01,12.952-5.948,15.214-12.612s1.67-13.911,1.055-20.919c-.631-7.163-.022-15.139-4.3-20.918a31.954,31.954,0,0,1-3.681-5.15c-2.037-4.322-.542-9.685-2.578-14.009-3.189-6.757-12.484-7.147-19.944-6.695s-16.871-.458-19.464-7.469c-1.059-2.867-.589-6.059.115-9.037,1.881-8,5.531-15.912,11.952-21.046s16-6.834,23-2.523c5.538,3.413,10.368,10.419,16.629,8.671,3.524-.981,5.625-4.479,7.472-7.637,4.646-7.955,10.541-16.09,19.342-18.817s20.491,3.3,19.912,12.495c-.434,6.922-7.191,12.112-7.963,19-.778,6.953,4.722,12.97,10.34,17.133s12.11,7.949,14.962,14.336c2.043,4.577,2.256,10.478,6.4,13.294,5.991,4.057,13.839-2.3,16.713-8.934,1.344-3.107,2.244-6.746.8-9.806-1.344-2.856-4.443-4.56-5.886-7.369-3.087-6.021,2.467-14.509-1.892-19.684-3.678-4.36-11.7-2.622-15.146-7.17-2.813-3.716.552-10.111,5.213-9.892,2.1-4.551,5.877-8.738,10.732-7.485,3.422.884,6.278,3.4,9.738,4.1,6.9,1.385,13.618-6.86,10.864-13.335a25.974,25.974,0,0,0,14.305-2.288,37.4,37.4,0,0,0-25.078-11.771c1.417-6.4,10.052-8.3,16.258-6.193s11.352,6.71,17.609,8.675,14.88-.387,15.86-6.868c-6.341-4.318-13.771-6.7-21.134-8.873m-683.2,179.337c-6.231,1-12.481-1.591-17.947-4.751-2.318-1.338-4.9-2.853-7.506-2.256-3.18.726-4.843,4.171-7.436,6.152-7.9,6.04-20.426-3.268-28.92,1.907q-.6,4.183-1.2,8.359c-2.963.726-5.886-.993-8.759-2s-6.876-.838-8.009,1.99c-1.422,3.542,2.916,6.39,5.643,9.057,5.25,5.127,7.56,15.217,14.886,14.864,3.321-.156,6.186-2.76,9.508-2.772,5.276-.016,8.879,6.323,14.151,6.456,4.294.106,7.758-3.99,12.052-4.172,5.409-.232,9.071,5.935,9.015,11.353s-2.477,10.514-3.263,15.873c-.517,3.482-.343,7.085-1.383,10.451s-3.777,6.59-7.3,6.663c-5.842.124-9.48-8.014-15.308-7.582-3.986.295-6.531,4.5-10.29,5.846-7.5,2.689-14.263-6.751-22.229-6.86-3.542-.049-7.162,1.784-10.5.608-3.435-1.21-5.066-5.043-7.731-7.519a11.5,11.5,0,0,0-19.27,9.64c.257,2.384,1.183,5.059-.233,6.99a5.971,5.971,0,0,1-3.729,1.953c-8.7,1.828-18.126-2.192-23.535-9.242-2.33-3.035-4.092-6.666-7.277-8.792-4.453-2.973-10.295-2.154-15.65-2.355s-11.717-2.642-12.423-7.955c-.9-6.725,8.132-12.319,6.116-18.8a12.218,12.218,0,0,0-1.943-3.414l-3.69-5.1c-3.078-4.26-6.629-8.839-11.778-9.895q.224,7.073.446,14.142c-19.137,7.791-42.394-.688-60.872,8.558-4.539,2.269-8.778,5.6-13.829,6.095s-10.959-3.9-9.406-8.734c1.3-4.051,5.991-4.547,9.615-4.813,5.734-.416,13.294.1,17.176-5.044,4.637-6.138,2.432-15.608,8.266-20.99,4.447-4.1,12.63-4.045,14.827-9.674,1.168-2.989.056-6.641,1.711-9.389,1.959-3.262,6.633-3.441,10.329-2.551s7.537,2.454,11.166,1.321c3.913-1.22,6.416-5.273,10.313-6.537,4.865-1.579,10.014,1.757,13.205,5.752s5.4,8.837,9.281,12.164c4.822,4.129,11.546,5.34,16.673,9.072s7.69,12.624,2.267,15.925c-2.852,1.735-6.483,1-9.808,1.274s-7.2,2.817-6.349,6.044c.5,1.881,2.425,3,4.283,3.582,8.827,2.756,19.339-3.649,20.944-12.755.54-3.079.2-6.292,1.018-9.305s3.448-5.953,6.552-5.56c-.651-4.281-8.3-.7-11.45-3.666-1.238-1.168-1.385-3.044-1.872-4.678-1.343-4.472-5.525-7.428-9.6-9.7s-8.512-4.4-11.146-8.26-2.419-10.125,1.733-12.263c19.329,11.259,40.425,24.809,45.57,46.577,1.779,7.548,3.081,17.51,10.672,19.076,5.544,1.142,11.153-5,9.52-10.411-.855-2.839-3.2-5.092-3.808-7.995-.974-4.638,3.047-9.111,7.588-10.485s9.4-.5,14.094.153c3.795.533,9.15-.314,9.219-4.151.063-3.035-3.512-4.72-4.947-7.4-1.739-3.256.027-7.319,2.418-10.132s5.477-5.171,6.946-8.561c.984-2.264,1.161-4.824,2.171-7.075,2.808-6.257,12.609-7.72,17.121-2.556,2.044,2.342,2.916,5.449,4.282,8.24s3.646,5.54,6.739,5.816,6.186-3.516,4.3-5.984c-1.523-1.993-5.172-1.988-5.849-4.4-.641-2.291,2.073-3.986,4.3-4.813q7.538-2.784,15.07-5.578c1.392-.517,3.009-1.024,4.311-.3,2.295,1.275,1.381,4.9-.476,6.755s-4.457,3.262-5.167,5.787a49.021,49.021,0,0,0,27.272,19.678c1.133,6.214-4.645,12.056-10.882,13.053m83.156,30.952c-4.41.459-8.7-1.36-12.759-3.141-3.42-1.5-6.917-3.053-9.606-5.642s-4.442-6.483-3.49-10.092c1.056-4.027,5.246-7.665,3.708-11.533a10.55,10.55,0,0,1-11.083-8.624c-.333-2.23.029-4.7-1.233-6.573-1.65-2.431-5.141-2.576-7.682-4.053-4.4-2.549-4.864-9.79-.835-12.888,2.406-1.853,4.692-2.788,6.541-5.313,1.421-1.948,2.511-4.273,4.376-5.855,3-2.546,8.49-2.931,12.269-3.137,3.475-.191,7.647-.115,10.7,1.817,2.872,1.817,3.315,4.976,2.006,7.978-2.331,5.363-9.229,4.629-12.084,9.275a6.043,6.043,0,0,0,2.885,8.432c2.474.936,5.687.254,7.465,2.213,1.419,1.563,1.109,3.962,1.194,6.074s1.3,4.693,3.4,4.523a5.058,5.058,0,1,1,8.616,4.857c-1.429,1.61-3.78,2.21-5.09,3.922-2.324,3.033-.079,7.441,2.647,10.127s6.18,5.3,6.507,9.115c.372,4.417-4.04,8.062-8.449,8.519M1481.19,95.316c-2.437,3.056-7.76.95-9.507-2.544-1.729-3.463-1.4-7.56-2.18-11.355,2.079,1.848,5.045,2.913,7.568,4.306,3.484,1.918,6.6,6.486,4.12,9.592" transform="translate(-255.676 -11.093)" fill="#eaeaf3"/>
      <path id="Path_7334" data-name="Path 7334" d="M2238.128,288.22c5.189,7.446,10.583,15.536,10.527,24.608,2.349-2.006,6.27.155,7.177,3.106s-.126,6.111-.976,9.083-1.458,6.359.149,9c.924,1.515,2.445,2.54,3.753,3.734,5.232,4.773,7.01,12.157,8.536,19.074,1.2,5.482,1.482,12.864-3.733,14.943-3.784,1.5-9.589-.326-11.1,3.457-.687,1.721.128,3.789-.626,5.485-1.957,4.385-8.615-.039-13.342.79a8.777,8.777,0,0,0-4.609,2.806c-8.746,9.1-4.938,26.708,6.8,31.366-2.657-9.642,5.938-20.606,15.933-20.329,3.863.106,8.457,1.351,11.062-1.5,1.825-1.991,1.753-5.255,3.7-7.12,2.513-2.4,6.589-1.126,10.035-1.535,7.491-.89,10.846-12.3,5.034-17.1-1.624-1.341-3.676-2.147-5.109-3.688-4.674-5.025-.235-14.179-4.423-19.619-2.107-2.73-5.753-3.629-8.765-5.309s-5.708-5.38-3.989-8.374c3.115-5.434,13.4,1.124,17.313-3.768,2.07-2.594.4-6.686-2.364-8.523s-6.211-2.183-9.425-3.007a31.435,31.435,0,0,1-22.72-25.1c-.674-4.411-.4-9.038-2.052-13.182-2.1-5.28-10.485-13.5-16.772-10.255-4.167,2.153-.786,5.487,1.063,8.139q4.461,6.413,8.924,12.815" transform="translate(-569.498 -68.182)" fill="#eaeaf3"/>
      <path id="Path_7335" data-name="Path 7335" d="M1984.793,715.722c-4.521.375-10.032,1.978-12.885-1.551-2.383,5.575,3.306,11.082,8.359,14.423,11.8,7.818,25.239,17.394,25.915,31.532.185,3.911-.6,8.183,1.516,11.48,1.979,3.079,5.944,4.333,8.178,7.235,4.344,5.636,1.14,15.833,7.32,19.355,5.4,3.082,14.554-1.654,17.344,3.911.752,1.493.627,3.263,1.011,4.9,1.819,7.652,12.268,8.126,20.138,8.247a67.226,67.226,0,0,1,32,8.715c2.248,1.273,4.537,2.721,7.122,2.884,2.462.157,4.82-.879,7.149-1.7a44.865,44.865,0,0,1,25.685-1.243c.158-6.62-9.088-8.293-15.687-7.684l-20.538,1.894c1.281-4.615-2.071-9.493-6.375-11.593s-9.287-2.095-14.078-2.054q-10,.094-20,.183c-2.383.02-5.071-.084-6.668-1.85-1.534-1.7-1.45-4.255-1.494-6.541a34.9,34.9,0,0,0-5.563-18.1,69.637,69.637,0,0,0-7.1-8.721q-11.053-12.172-22.109-24.346c-6.459-7.112-14.407-14.052-19.167-22.417-2.07-3.632-5.476-7.326-10.075-6.948" transform="translate(-504.314 -182.699)" fill="#eaeaf3"/>
      <path id="Path_7336" data-name="Path 7336" d="M2109.084,735.23c-3.372.281-1.989,7.85-5.36,7.55a7.6,7.6,0,0,1-2.195-1.008c-3.308-1.439-6.048,2.885-7.084,6.333-.729,2.41-1.433,5.11-.287,7.35,1.189,2.315,3.935,3.315,5.772,5.153,3.259,3.264,3.154,8.458,3.433,13.065s1.9,10.046,6.344,11.274c5.814,1.6,12.2-5.328,17.39-2.253,2.208,1.307,3.283,4.1,5.6,5.192,2.8,1.315,6.128-.435,8.2-2.733,6.106-6.776,5.813-17.525,11.616-24.567,2.067-2.515,4.952-4.642,5.645-7.827,1.544-7.115-8.86-13.142-6.57-20.056,1.313-3.969,6.2-5.607,8.266-9.24,2.415-4.246-.651-10.48-5.487-11.166-1.161-.166-2.461-.09-3.367-.842-2.184-1.816.453-5.336-.054-8.129-.453-2.532-3.642-3.8-6.106-3.067s-4.257,2.852-5.661,5.007a36.446,36.446,0,0,0-5.1,12.248c-.489,2.288-.778,4.678-1.884,6.746-1.033,1.934-3.233,3.833-5.564,3.384-.1-2.439-1.864-.032-2.5.743a21.511,21.511,0,0,1-4.113,4.43c-3.756,2.673-6.747,2.068-10.929,2.414" transform="translate(-535.576 -179.087)" fill="#eaeaf3"/>
      <path id="Path_7337" data-name="Path 7337" d="M2189.049,586.785a3.54,3.54,0,0,0-2.276.7c-4.106,2.7-4.413,8.623-3.475,13.448s2.683,9.862,1.109,14.524c-1.347,4-5.062,7.832-3.553,11.771,2.031,5.289,10.507,3.758,14.488,7.78,4.819,4.88.1,14.314,4.578,19.508,1.519,1.76,3.864,2.673,5.278,4.519,3.073,4.013.3,9.842,1.218,14.811,1.162,6.245,8.969,9.971,14.836,7.527s8.824-9.86,6.922-15.923c4.007,1.022,7.573-3.821,6.8-7.881s-4.284-7-7.83-9.118-7.475-3.844-10.172-6.969c-6.255-7.245-3.69-17.865-7.042-26.251-.923-2.3-2.221-4.441-4.648-5.331-1.779-.645-3.735-.434-5.491-1.318-2.94-1.478-4-4.231-4.577-7.309-.7-3.753-.77-13.9-6.161-14.482" transform="translate(-557.819 -150.107)" fill="#eaeaf3"/>
      <path id="Path_7338" data-name="Path 7338" d="M2284.625,785.14c2.227,1.517,5.073,1.744,7.555,2.794s4.8,3.687,3.846,6.211c-.523,1.362-1.856,2.244-2.6,3.5-2.271,3.8,1.977,8.539,6.327,9.394s8.928-.349,13.241.659c7.192,1.678,11.534,8.8,15.081,15.276,1.445,2.647,2.936,5.645,2.134,8.548-.419,1.506-1.441,2.943-1.157,4.474.533,2.866,4.748,2.975,7.312,1.58s5.114-3.644,7.966-3.03c2.873.618,4.307,3.786,6.538,5.7a8.862,8.862,0,0,0,12.327-1.35c2.768-3.69,3.161-10.016,7.692-10.869a7.116,7.116,0,0,1,4.32.85c10.62,5.126,13.458,19.715,23.483,25.929,3.965,2.461,11.011,1.846,11.187-2.823.149-3.965-4.751-5.7-8.1-7.822a14.755,14.755,0,0,1-6.154-15.945c1.072-3.867,3.588-8.485.792-11.369-2.635-2.726-7.372-.81-10.891-2.211-5.24-2.09-4.969-9.662-8.269-14.234-3.34-4.628-9.769-5.485-15.464-5.892-6.338-.452-12.849-1.054-18.856-3.272-5.777-2.137-9.551-7.526-15.335-9.295-4.357-1.337-8.685.163-13.084.273-6.627.166-10.766-4.494-16.922-5.548-3.787-.647-9.787-.292-13.278,1.474-2.941,1.482-2.324,5.209.313,7" transform="translate(-583.878 -198.609)" fill="#eaeaf3"/>
      <path id="Path_7339" data-name="Path 7339" d="M2188.454,917.266c-2.189,1.595-4.911,2.246-7.293,3.524-10.026,5.4-11.714,20.266-21.658,25.826-4.205,2.355-9.206,2.608-13.974,3.351-14.3,2.221-29.049,10.99-32.236,25.115a50.585,50.585,0,0,0-.861,10.68l-.4,42.5c-.046,4.668-.122,9.495-2.015,13.763-2.735,6.174-9.213,12.324-6.209,18.373,2.612,5.261,10.433,5.023,15.581,2.2s9.473-7.4,15.194-8.725c6.646-1.541,13.438,1.7,20.26,1.827,12.711.244,22.8-9.9,33.553-16.7s27.986-8.851,33.64,2.538c2.171,4.372,1.944,9.766,4.736,13.763s11.066,3.742,10.766-1.124c5.1.76,7.006,7.181,6.834,12.339s-1.113,10.955,2.163,14.94c6.506,7.913,19.6-.517,29.432,2.359,3.977,1.165,7.677,4.281,11.745,3.475,2.583-.515,4.573-2.518,6.375-4.432q25.834-27.34,49.446-56.664c11.017-13.684,22.137-32.213,13.665-47.606-2.669-4.841-6.98-8.543-10.247-13a68.353,68.353,0,0,1-6.9-12.805q-15.8-35.411-28.205-72.211c-4.007-.755-6.951,3.76-7.947,7.719-2.347,9.309-.876,19.415-4.241,28.4s-15.44,15.949-22.466,9.4c-5.614-5.231-4.3-15.754-10.792-19.835.764.482,3.888-7.338,4.08-8.09a19.954,19.954,0,0,0,.667-4.749c.025-2.37-.345-2.562-2.513-3.353-4.542-1.658-9.808-2.591-14.583-1.4-6.567,1.642-11.149,6.925-15.119,12.062-3.085,4-6.473,10.023-11.675,11.515-8.179,2.337-12.865-7.92-18.756-11.237-10.78-6.074-13.736,11.67-20.044,16.257" transform="translate(-538 -225.247)" fill="#eaeaf3"/>
      <path id="Path_7340" data-name="Path 7340" d="M1527.142,924.4c-4.295.506-6.862,5.505-6.325,9.8s3.246,7.953,5.863,11.395q-4.013,8.122-8.024,16.237c-1.944,3.927-3.931,8.045-3.9,12.427.044,6.224,4.1,11.629,8.208,16.306,1.92,2.188,4.161,4.467,7.055,4.773,4.181.436,7.632-3.535,8.751-7.584s.729-8.373,1.607-12.484c2.784-13.028,17.481-21.208,19.48-34.38.586-3.85-.006-7.8.527-11.661.568-4.135,2.4-7.979,3.887-11.882,2.134-5.569,3.734-12.6-.683-17.537-2.5-2.788-7.888-4.466-11.246-2.119-2.572,1.8-3.032,5.581-3.669,8.393-.939,4.129-1.946,8.253-4.458,11.75a17.649,17.649,0,0,1-6.692,5.755c-3.611,1.676-6.684.377-10.378.813" transform="translate(-387.507 -229.361)" fill="#eaeaf3"/>
    </g>
  </g>
</svg>
