<svg xmlns="http://www.w3.org/2000/svg" xmlns:xlink="http://www.w3.org/1999/xlink" width="2342.563" height="1021.445" viewBox="0 0 2342.563 1021.445">
  <defs>
    <clipPath id="clip-path">
      <rect id="Rectangle_382" data-name="Rectangle 382" width="2342.563" height="1021.445" fill="none"/>
    </clipPath>
  </defs>
  <g id="Group_854" data-name="Group 854" transform="translate(507.246 -15378.832)" opacity="0.32">
    <g id="Group_853" data-name="Group 853" transform="translate(-507.246 15378.832)">
      <g id="Group_852" data-name="Group 852">
        <g id="Group_851" data-name="Group 851" clip-path="url(#clip-path)">
          <path id="Path_7256" data-name="Path 7256" d="M721.489,158.38c-11.3,7.367-25.484-6.717-38.875-5.105-3.1.375-6.157,1.609-9.26,1.227-5.119-.631-9.357-5.541-14.471-4.872-2.605.343-5.078,2.146-7.641,1.565-2.162-.487-3.572-2.508-5.34-3.848-4.061-3.077-9.733-2.424-14.75-1.557A504.293,504.293,0,0,0,579.46,157.6c-5.617,1.6-12.194,4.379-13.019,10.161A5.405,5.405,0,1,1,563,177.4c1.2-1.331-.187-3.642-1.947-3.962s-3.484.611-5.034,1.512q-7.323,4.257-14.64,8.517l-5.6-3.614c-3.379.72-2.622,6.369.5,7.86s6.766.448,10.2.1,7.709.636,8.655,3.957l-16.8,2.691c-10.891,1.745-22.446,8.217-31.129,15.019-2.942,2.306-5.434,7.569-1.97,8.979a8.055,8.055,0,0,1,6.782-1.3,17.669,17.669,0,0,0-5.18,9.7,15.786,15.786,0,0,1,20.073.349q-14.514,5.914-29.031,11.832a7.036,7.036,0,0,0-3.513,2.364c-1.824,2.877,1.688,6.689,5.094,6.574s6.221-2.523,8.89-4.641a78.652,78.652,0,0,1,21.006-11.918c1.6-.6,3.376-1.164,5-.614,1.34.456,2.321,1.577,3.424,2.461,5.111,4.087,12.8,2.856,18.462-.419s10.183-8.241,15.676-11.8c7.336-4.755,16.05-6.8,24.57-8.759,5.18-1.192,10.838-2.338,15.624-.025,4.726,2.287,7.556,7.507,12.357,9.621,2.515,1.106,5.616,1.412,7.292,3.592,2.161,2.822.584,6.9-1.331,9.9s-4.236,6.357-3.3,9.787,7.342,4.009,7.294.453A22.6,22.6,0,0,1,636.3,264.1c-3.4,4.267,1.252,10.121,5.331,13.74s7.9,10.439,3.6,13.785a14.433,14.433,0,0,1-4.32,1.768A15.286,15.286,0,0,0,630.871,307.5c-11.417,12.682-24.044,27.174-27.38,43.908-2.044,10.234-.684,20.808.684,31.156.339,2.573.746,5.3,2.443,7.269,1.377,1.6,3.416,2.454,5.007,3.834,2.044,1.779,3.238,4.323,4.254,6.834,4.973,12.311,6.983,25.613,11.218,38.2a113.21,113.21,0,0,0,16.334,31.267,83.2,83.2,0,0,0-10.4-41.693c-1.305-2.349-2.764-4.777-2.776-7.461s2.143-5.585,4.807-5.241c5.943.769,1.917,11.971,6.919,15.276-1.751,7.321,8.875,12.649,11.24,19.793,1.146,3.459.588,7.527,2.688,10.505,1.24,1.754,3.206,2.819,4.887,4.157a17.955,17.955,0,0,1,6.478,16.3c-.507,3.526-2.087,6.927-1.888,10.483.38,6.825,7.047,11.565,13.517,13.769s13.6,3.047,19.144,7.05c2.866,2.075,5.139,4.888,8.023,6.944a19.613,19.613,0,0,0,20.458,1.123c2.219-4.306,8.336-2.768,10.953,1.3s3.767,9.443,7.884,11.993c4.817,2.978,11.174.584,16.67,1.939,14.1,3.491,13.077,26.863,26.236,33.02,3.945,1.852,8.88,1.926,11.9,5.063,1.36,1.406,2.2,3.329,3.822,4.419,3.411,2.288,7.872-.248,11.96-.609,10.3-.9,16.207,12.8,13.275,22.715s-10.851,17.5-15.62,26.675c-6.27,12.064-6.8,26.185-7.2,39.774-.2,6.993-.179,14.676,4.329,20.021,2.836,3.367,7.041,5.248,10.312,8.194,11.87,10.683,8.568,31.87,20.484,42.508,6.847,6.114,16.957,7.006,24.593,12.1,8.867,5.919,13.24,16.806,14.456,27.4s-.206,21.287-.316,31.949a129.481,129.481,0,0,0,6.982,43.177c1.651,4.82,3.618,9.66,3.715,14.759.079,4.1-1.063,8.121-1.931,12.137a93.29,93.29,0,0,0,8.786,62.993c-.536-3.51,4.7-5.608,7.584-3.542s3.464,6.17,2.921,9.677-1.941,6.893-2.014,10.442c-.114,5.417,2.838,10.38,5.907,14.839a163.694,163.694,0,0,0,31.448,34.1c9.805,7.982,24.333,14.8,34.3,7.027A22.934,22.934,0,0,1,960.6,993.732c-.2-10.839,6.466-24.386-2.236-30.859-3.676-2.733-9.414-3.16-11.27-7.35-2.8-6.319,6.576-12.137,6.157-19.037-.233-3.851-3.435-6.741-5.63-9.917s-3.049-8.335.287-10.281c3.264-1.9,8.11.913,10.938-1.592,1.706-1.509,1.681-4.2,2.936-6.1,2.228-3.382,7.216-2.991,10.985-4.486,5.3-2.1,8.069-8.242,7.983-13.933s-2.442-11.083-4.755-16.286c15.388-1.449,34.475-6.035,37.5-21.186.769-3.849.286-7.937,1.579-11.644,2.4-6.877,10.53-11.514,10.38-18.792-.089-4.411-3.357-8.213-3.808-12.606-.957-9.358,10.36-14.822,19.681-16.059s20.572-2.2,24.865-10.564c4.878-9.508-3.11-22.287,2.576-31.331,3.208-5.108,10.035-7.451,12.289-13.045,2.943-7.307-3.555-14.931-4.185-22.774-.69-8.582,5.6-15.93,8.968-23.849s1.375-20.154-7.2-20.857c-2.607-10.819-15.013-21.322-26.139-21.621-4.786-.127-9.828,1.052-14.228-.853-3.437-1.49-5.834-4.611-8.579-7.162a32.17,32.17,0,0,0-31.463-6.807,108.121,108.121,0,0,0-13.679-40.056c-1.4-2.409-2.976-4.846-5.356-6.29-5.64-3.4-12.79.073-19.374.038-10.654-.056-18.706-9.159-25.86-17.055s-17.038-15.942-27.309-13.114c-3.582.985-7.057,3.282-10.7,2.565-2.811-.555-4.94-2.777-7.413-4.225s-6.189-1.844-7.737.567a7.129,7.129,0,1,0-13.56,3.66c.767-5.357-10.624-10.05-15.732-8.243-2.527.888-4.485,3.013-7.039,3.837-2.828.909-6.546.386-8.155,2.88-1.448,2.247.02,5.363-.951,7.857-1.314,3.353-6.125,3.6-9.4,2.1s-6.081-4.144-9.624-4.791c-5.277-.963-10.618,2.79-15.856,1.648-8.831-1.916-9.232-14.3-7.278-23.114s2.473-20.93-6.078-23.838c-3.984-1.351-8.288.165-12.456.726s-9.38-.56-10.659-4.568c-.933-2.925.7-5.987,2.275-8.623q3.926-6.586,7.862-13.171c1.668-2.793,3.386-5.758,3.408-9.014s-2.373-6.761-5.628-6.7c-1.9.032-3.57,1.219-5.036,2.429-11.452,9.444-22.663,24.527-37.073,20.969C716.833,498,712.54,481.2,714.887,468.019A65.52,65.52,0,0,1,742.281,425.8c4.95-3.356,11.69-5.983,16.656-2.651,2.651,1.774,4.36,5.04,7.442,5.858,9.638,2.552,9.953-19.041,19.92-19.045,1.762,10.535,19.839,7.436,25.926,16.211,3.565,5.14,1.5,12.073,1.4,18.326s4.927,14.034,10.686,11.59c8.438-13.108-1.107-31.867,6.264-45.6,8.237-15.355,32.51-15.642,41.052-30.827,5.335-9.478,5.164-24.724,15.847-26.747,15.162-2.873,26.963-18.31,40.263-26.148,3.246-1.914,6.591-3.865,10.312-4.444,8.251-1.294,17.687,4.134,24.512-.672,2.651-1.868,4.36-5.056,7.377-6.263,2.97-1.188,6.3-.109,9.485.207s7.167-.794,7.813-3.933c1.034-5.036-6.8-6.52-11.666-4.872s-11.9,3.079-13.729-1.724c-1.7-4.468,3.888-8.89,3.179-13.621-.568-3.782-5.143-5.844-8.9-5.12s-6.81,3.371-9.666,5.913c-2.191-.767-1.287-4.118.238-5.868,7.678-8.8,20.4-11.151,32.07-11.083s23.51,2,34.926-.455c6.41-1.38,13.775-7.8,10.017-13.175-3.186-4.557-11.759-3.07-13.984-8.167-.951-2.181-.235-4.721-.636-7.066s-3.252-4.625-4.982-2.988c-1.676-5.441.466-11.265.454-16.958s-4.3-12.474-9.811-11.031c-2.862,6.485-9.687,14.226-15.423,10.058-4.2-3.056-2.8-9.567-4.366-14.522-2.995-9.47-15.531-11.027-25.465-10.835-4.174.079-8.87.388-11.619,3.53-1.719,1.966-2.289,4.643-3.179,7.1a26.248,26.248,0,0,1-10.224,12.891q2.045,6.119,4.085,12.24c-4.025,7.386-17.36,4.218-22.519,10.863-2.548,3.284-2.315,7.85-3.148,11.922a21.987,21.987,0,0,1-10.644,14.565c-7.141-2.409-10.062-12.692-5.263-18.494,1.157-1.4,2.65-2.541,3.555-4.118s.993-3.865-.453-4.959c-1.868-1.411-4.429.113-6.725.549-8.062,1.527-12.568-10.569-20.684-11.789-4.25-.638-9.6,1.587-12.306-1.756-1.158-1.434-1.284-3.41-1.357-5.251-.158-3.9-.267-8.018,1.616-11.433,3.9-7.076,13.809-7.564,20.508-12.078,3.159-2.128,5.592-5.174,8.655-7.438s7.264-3.679,10.666-1.971c3.836-1.574,8.234-4.88,12.072-6.458,4.678-1.922,9.442-3.865,14.478-4.365,2.453-.243,4.943-.138,7.369-.556a31.215,31.215,0,0,0,8.01-2.868,146.6,146.6,0,0,0,30.992-19.908c3.8-3.178,10.281-6.233,12.8-1.971q-3.843,5.071-7.681,10.141c1.276,2.7,5.191,2.829,7.907,1.579s5-3.427,7.895-4.161,6.781,1.069,6.466,4.04a59.418,59.418,0,0,1-30.44,11.886c-2.388.216-4.916.333-6.921,1.651s-3.092,4.365-1.5,6.159c2.42,2.725,6.593-.3,9.929-1.764,7.7-3.383,16,2.895,21.956,8.84s13.769,12.563,21.734,9.865q.7-1.708,1.392-3.425-3.275-2.691-6.551-5.39c2.653-1.5,5.169,2.552,8.178,3.065,3.2.546,5.627-3.376,5.119-6.583s-2.772-5.805-4.55-8.523-3.132-6.246-1.663-9.143a9.431,9.431,0,0,1,11.4,4.1c1.551,2.843,2.58,7.206,5.806,6.96,2.027-.152,3.252-2.267,4.009-4.149a55.071,55.071,0,0,0,3.8-16.019c-2.217-1.764-5.388-1.191-8.22-1.213s-6.331-1.6-6.117-4.425c.2-2.7,3.678-4,4.536-6.578,1.368-4.1-4.784-6.878-8.874-5.469-1.576.544-3.22,1.4-4.819.936-3.035-.877-2.956-5.094-3.932-8.1-1.873-5.78-8.794-7.9-14.734-9.182-2.336-.5-4.9-.973-7.007.14-2.805,1.481-5.109,5.615-7.937,4.171-1.143-.583-1.656-1.9-2.38-2.957-2.725-3.981-9.646-3.835-12.2.252.678-4.46-6.307-5.268-10.466-3.528a54.791,54.791,0,0,0-14.383,8.84c-2.281,1.946-4.511,4.279-5.036,7.23s1.465,6.49,4.465,6.522c1.024.01,2.083-.37,3.045-.015,2.452.907,1.247,4.681-.636,6.495a24.327,24.327,0,0,1-18.232,6.659c4.08.032,3.994-6.808.655-9.153-6.113-4.291-14.429-.411-20.808,3.479q-6.1,3.722-12.191,7.438c-3.428,2.093-10.451-1.875-13.453-4.535a24.341,24.341,0,0,1-26.021-1.65c2.109-3.548,7.033-4.112,11.116-3.509s8.293,1.949,12.245.751,6.839-6.6,3.918-9.517c-1.823,2.321-5.981-.069-6.12-3.015s2.065-5.434,4.149-7.523,4.35-4.471,4.391-7.423c-8.531-1.751-16.126,11.043-23.989,7.308-1.743-.828-3.152-2.42-5.056-2.734-2.629-.431-5.112,1.744-7.766,1.513-2.141-.192-3.8-1.868-5.438-3.252-13.012-10.994-33.108-6.878-47.9,1.571-3.925,2.242-8.23,6.761-5.8,10.572,2.621,4.116,8.916,1.412,12.99-1.269s11.328-3.809,12.289.978a11.033,11.033,0,0,1-5.219,3.589c-2.7,3.464,2.114,8.343,6.51,8.343s8.569-2.382,12.96-2.171,8.754,5.7,5.582,8.744c-1.458,1.4-3.714,1.419-5.738,1.355q-10.11-.329-20.225-.655c3.237-3.144-1.878-8.466-6.384-8.234s-8.874,2.878-13.288,1.956c-5.179-1.078-9.468-6.883-14.52-5.307-2.393.75-4.087,3.055-6.514,3.681-2.315.6-4.689-.463-6.932-1.3a38.986,38.986,0,0,0-30.2,1.426c.716-.885-2.007.515-1.292-.372" transform="translate(-143.55 -37.44)" fill="#eaeaf3"/>
          <path id="Path_7257" data-name="Path 7257" d="M1313.663,76.829q-21.62,6.25-43.242,12.5c-3.957,1.141-8.943,4.553-6.873,8.115,2.237,3.852,8.238.385,12.582,1.38,4.805,1.1,6.586,7.564,11.212,9.259,5.4,1.976,11.494-3.561,16.858-1.473,6.209,2.415,4.961,11.486,2.582,17.709,4.824-.206,11,.491,12.363,5.119,2.114,7.161-9.173,9.747-14.317,15.156-3.9,4.1-4.123,10.364-4.117,16.026.011,11.269,1.2,24.67,11,30.233,6.788,3.851,17.557,4.194,18.9,11.88a166.06,166.06,0,0,1,27.089-38.753c2.791-2.981,5.949-6,9.961-6.776,5.455-1.057,10.862,2.308,16.417,2.133,13.265-.423,21.791-20.064,34.637-16.713,5.549,1.443,10.185,7.2,15.778,5.9,8.623-1.992,5.824-15.818,11.579-22.539,2.965-3.459,7.8-4.489,12.271-5.346s9.313-1.966,12.181-5.5,1.892-10.21-2.587-11.035a33.09,33.09,0,0,0,14.548-21.7c5.138,1.5,9.035-6.293,6.066-10.742s-9.237-5.327-14.5-4.381-10.285,3.257-15.626,3.558c-7.042.4-13.736-2.716-20.595-4.358-17.675-4.24-35.7,1.16-53.306,3.059-13.664,1.475-27.279-.367-40.923.8-10.206.869-20.134,3.656-29.937,6.489" transform="translate(-367.126 -18.864)" fill="#eaeaf3"/>
          <path id="Path_7258" data-name="Path 7258" d="M1529.577,197.3a15.642,15.642,0,0,0-12.393,5.1c-.96-1.171-1.241-2.748-1.945-4.085a7.04,7.04,0,0,0-13.27,3.173c-.065,3.944,3.059,7.12,5.954,9.8,3.8,3.513,8.178,7.248,13.347,7.046,4.944-.192,9.453-4.045,14.339-3.257,1.779.288,3.427,1.187,5.215,1.417,4.2.544,8.061-2.768,9.941-6.572,1.409-2.833,2.027-6.3.626-9.14s-5.335-4.46-7.938-2.659" transform="translate(-436.566 -56.553)" fill="#eaeaf3"/>
          <path id="Path_7259" data-name="Path 7259" d="M2478.594,166.9a549.458,549.458,0,0,0-66.145-15.167c-15.884-2.622-32.094-4.543-48.065-2.493-12.98,1.67-27.325,5.661-38.289-1.488-3.185-2.079-5.852-5.011-9.375-6.453-6.031-2.471-12.8-.008-19.265.846-24.823,3.276-50.76-17.577-73.433-6.96-7.3,3.417-14.576,10.044-22.217,7.469-3.859-1.3-7.01-4.891-11.082-4.821-3.195.049-5.962,2.4-9.143,2.671-5.5.47-9.338-4.967-13.475-8.609-21.422-18.877-59.037,8.232-82.519-8.015,5.524-1.37,5.6-10.276.937-13.553s-11.1-2.183-16.33.081-10.107,5.574-15.721,6.52c-9.95,1.675-19.433-4.369-29.373-6.131-10.965-1.943-22.1,1.4-32.736,4.709q-20.3,6.305-40.593,12.619c-5.6,1.74-12.341,5.824-12.8,10.832-3.469-5.108-9.778-8.338-15.656-6.6-7.8,2.3-11.167,17.485-3.216,19.161a5.26,5.26,0,0,1,3.911,5.991,63.731,63.731,0,0,0-39.378-7.908l1.574,7.015a38.271,38.271,0,0,0-23.961-2.038c-2.276.55-4.583,1.318-6.9,1.01-3.662-.482-6.746-3.569-10.434-3.422-8.112.325-12.179,15.3-19.526,11.846-2.592-1.218-3.607-4.317-5.431-6.529s-6.139-3.053-7.018-.323c2.774,3.107-.286,8.055-3.837,10.24s-8.054,3.806-9.468,7.731c-.913,2.544-.386,5.814-2.438,7.581-1.474,1.275-3.667,1.156-5.586.835a43.963,43.963,0,0,1-23.706-12.19,62.24,62.24,0,0,1,31.2,1.436c3.417-5.454-4.2-11.042-10.325-13.028L1744.1,145.289a31.289,31.289,0,0,0-7.261-1.729c-5.509-.414-10.781,2.077-16.224,3.02-10.063,1.747-21.1-1.705-30.262,2.809-12.742,6.278-14.973,24.308-26.412,32.733-3.869,2.844-8.535,4.378-12.7,6.776a35.172,35.172,0,0,0-16.744,23.416,8.106,8.106,0,0,0,.216,5.009c1.675,3.53,6.825,3.412,10.412,1.865s7.172-4.025,11.028-3.381c9.282,1.548,7.682,17.02,15.559,22.175,5.783,3.784,13.379.133,19.261-3.5,2.934-1.811,6.11-3.94,6.965-7.278s-2.592-7.535-5.648-5.942c-1.582-2.42,1.352-5.329,4.079-6.3s6.161-1.888,6.792-4.713c.986-4.406-5.922-6.6-6.982-10.992-1.517-6.293,8.3-8,13.28-12.136,3.607-3,4.748-7.991,7.343-11.895s8.7-6.559,11.741-2.982c4.194,4.933-3.47,10.836-8.472,14.946-6.913,5.68-8.577,18.77-.4,22.4,6.329,2.808,13.181-1.888,19.611-4.457s16.674-.2,15.8,6.674a76.65,76.65,0,0,0-24.152.28,5.729,5.729,0,0,0-3.654,1.617c-3.58,4.4,7.426,7.3,8.518,12.86-4.683,5.459-14.576-6.258-19.957-1.478-3.836,3.409.448,10.617-2.745,14.644-3.138,3.956-9.367.9-14.415.936-9.209.067-17.15,11.516-25.584,7.82-9.08-3.974-8.667-22.282-18.49-20.973-4.822.64-7.073,6.187-8.384,10.866l-2.923,10.437c-.571,2.041-1.82,4.558-3.92,4.267-1.06-.148-.977-1.261-.559-2.064-5.1,1.163-10.447,6.132-12.28,10.817-.613,1.571-.986,3.3-2.094,4.565-3.39,3.891-10.021.239-12.278-4.4s-2.829-10.366-6.7-13.773c-4.288-3.767-12.5-5.1-12.087-10.793.128-1.851,1.309-3.437,1.958-5.175,1.986-5.316-2.119-11.959-7.763-12.557s-11.049,5.028-10.225,10.643c.272,1.835,1.078,3.723.469,5.475a6.212,6.212,0,0,1-2.265,2.7c-4.116,3.142-9.2,4.7-13.685,7.293s-8.649,6.862-8.638,12.041,6.469,9.84,10.573,6.686c1.373-1.059,2.164-2.681,3.131-4.119,4.564-6.776,13.068-9.468,20.927-11.7,3.712.292,3.018,6.316.131,8.662s-7.083,3.964-7.728,7.63c-.793,4.562,4.963,7.709,9.561,7.169s8.809-3.131,13.431-3.413,10.1,3.648,8.555,8.017c-1.212,3.429-5.805,4.292-9.328,3.384s-6.73-2.991-10.353-3.359a20.677,20.677,0,0,0-3.375,9.175,5.573,5.573,0,1,0-9.851,5.169c1.932,3.186,6.264,3.609,9.708,5.026,7.53,3.1,11.425,12.935,8.051,20.349a5.472,5.472,0,0,1-2.552,2.941c-1.877.816-3.985-.229-5.839-1.1a36.773,36.773,0,0,0-33.413,1.49c-4.413,2.561-8.664,7.183-7.459,12.143.8,3.293,3.831,5.687,4.694,8.965,2.193,8.312-10.112,17.22-4.9,24.056,2.672,3.513,7.95,3.05,12.232,4.125s7.966,7.277,4.09,9.392c2.683,14.6-28.715,19.033-27.56,33.833.228,2.881,1.706,5.614,1.567,8.5-.265,5.632-6.129,9-10.983,11.875a79.371,79.371,0,0,0-30.854,33.517c-1.2,2.494-2.307,5.206-1.939,7.951.335,2.481,1.819,4.633,2.86,6.906,7.892,17.232-9.84,39.023-.534,55.531,2.429,4.306,6.4,7.486,9.7,11.169,7.563,8.435,11.556,19.4,17.411,29.1s14.94,18.843,26.263,19.325c9.185.392,17.821-5.036,27.013-4.935,4.285.046,8.534,1.3,12.8.873,7.75-.775,13.777-6.773,20.553-10.62s17.138-4.616,20.76,2.279c2.025,3.859,1.4,9.338,5,11.78,4.188,2.844,9.813-1.169,14.817-.416,6.856,1.034,9.074,10.154,7.41,16.886s-5.56,13.165-4.833,20.062c.943,8.961,9.174,15.1,16.672,20.1,5.166,3.438,4.7,8.836,5.617,14.973s.28,12.6,2.569,18.37c1.365,3.436,3.72,6.467,4.661,10.044,3.78,14.346-16.017,25.4-15.9,40.237.079,10.56,10.066,18.158,13.94,27.98,4.34,11,.67,23.964,5.216,34.877,3.347,8.04,10.93,14.363,11.881,23.012.641,5.806-1.8,12.218,1.176,17.245,2.678,4.525,9.035,6.388,10.57,11.419,1.348,4.408-1.516,10.033,1.644,13.393a9.812,9.812,0,0,0,4.728,2.272c8.106,2.2,16.865,4.37,24.723,1.407,7.561-2.849,13.136-10.1,21.057-11.7,4.124-.834,8.448-.008,12.572-.843,10.272-2.075,15.771-13.248,18.412-23.391s4.43-21.456,12.336-28.331c2.718-2.366,6.118-4.153,7.845-7.312,2.862-5.237-.043-11.613-.3-17.577-.467-10.417,7.266-19.307,15.235-26.041s17.047-13.041,21.1-22.649c8.623-20.413-9.562-43.166-6.368-65.094,2.236-15.381,14.363-27.074,24.858-38.534a261.648,261.648,0,0,0,43.524-64.768c.98-2.065,1.936-4.479.968-6.546-.826-1.779-2.831-2.688-4.751-3.112-6.647-1.471-13.419,1.121-20.1,2.423s-14.82.715-18.592-4.958c-2.212-3.336-2.354-7.7-4.43-11.127-4.253-7.017-14.385-7.357-20.818-12.447-3.9-3.085-6.195-7.726-8.17-12.29a177.7,177.7,0,0,1-10.907-34.507c-.97-4.7-1.777-9.519-4.016-13.763-3.536-6.712-10.158-11.126-15.384-16.625s-9.241-13.694-5.934-20.521c4.636-2.806,10.437,1.012,14.06,5.038A69.478,69.478,0,0,1,1827.7,459.79c1.023,3.5,1.818,7.191,3.992,10.123,1.838,2.476,4.5,4.186,6.71,6.33,8.572,8.3,9.272,21.489,11.854,33.137s10.392,24.673,22.31,24.128c14.184-.645,23.253-20.373,37.269-18.1,2.762.448,5.319,1.768,8.083,2.212,5.484.88,10.957-1.834,15.246-5.358,8.172-6.719,13.37-16.3,18.427-25.591,3.972-7.3,8.118-15.438,6.268-23.544s-13.211-13.8-18.741-7.589a26.111,26.111,0,0,1-1.241-10.62c-6.473-2.388-10.232,7.813-16.559,10.562-6.221,2.7-13.1-2.74-16.275-8.728s-4.707-13.072-9.548-17.819-13.407-9.721-10.087-15.628c3.034-5.391,11.442-1.873,15.539,2.766,8.054,9.124,15.73,22.09,27.863,21.176,5.153-.389,11.177-3.195,14.89.393,1.64,1.586,2.2,4.015,3.709,5.718s5.025,1.976,5.533-.247c10.723,7.977,22.85,8.234,35.808,4.977,4.805-1.209,10.113-3.158,14.444-.759,8.4,4.642,5.994,21.552,15.536,22.534,3.589.37,8.333-1.727,10.143,1.4.8,1.375.43,3.115.755,4.668,1.073,5.108,10.658,3.8,10.319-1.411,7.622,22.543,4.288,49.108,18.175,68.432,7.638,10.623,20.271,18.78,22.091,31.737q3.814-1.016,7.624-2.027c3.485.837,3.325,6.31,6.3,8.313,3.459,2.333,8.073-2.19,7.785-6.352s-3.246-7.553-5.375-11.139c-6.917-11.662-5.229-26.3-3.323-39.725.544-3.82,1.126-7.749,3.075-11.073,3.538-6.024,10.709-8.767,15.781-13.573,6.317-5.987,9-14.77,13.731-22.075s13.734-13.582,21.729-10.149c4.36,1.871,7.134,6.108,10.576,9.375s8.883,5.636,12.8,2.957c-.155,6.426-.268,13.1,2.342,18.971s8.789,10.693,15.116,9.565c1.47,10.146,14.346,15.487,16.167,25.579,1.375,7.631-4.149,14.93-4.174,22.686-.036,11.9,12.126,19.786,17.457,30.425,5.779,11.524,5.767,28.975,18.251,32.207,2.5.648,4.69,3.374,7.273,3.295s5.255-2.372,4.7-4.9c-.611-2.767-4.131-3.547-6.218-5.455-4.525-4.127-1.191-11.564-1.9-17.65-.852-7.258-7.53-12.162-13.367-16.552-5.717-4.294-11.3-9.113-14.593-15.454s-3.853-14.547.273-20.382,13.6-7.7,18.644-2.631c4.96,4.982,4.173,14.088,9.742,18.375q3.448-.243,6.894-.5c-1.944,1.323-.109,4.745,2.234,4.855s4.3-1.679,5.958-3.344c9.749-9.788,20.249-23.844,13.686-36-4.878-9.032-17.209-11.89-22.3-20.8-5.856-10.236,3.269-25.31,15.052-24.874-1.186,5.322-2.344,11.043-.266,16.084s8.848,8.45,13.183,5.144a19.168,19.168,0,0,1,6.506-21.652c4.407-3.193,9.935-4.29,15.026-6.223a45.036,45.036,0,0,0,24.208-21.765c6.456-13.069,5.819-28.371,5.04-42.924-.152-2.837-.347-5.819-1.867-8.225-4.051-6.432-14.711-5.123-19.415-11.1-5.13-6.5.353-15.791,5.686-22.127-1.062-3.058-5.622-2.629-8.386-.943s-5.741,4.134-8.829,3.163c-1.685-.53-2.893-1.981-3.986-3.363-2.858-3.61-5.832-7.811-5.187-12.371s7.3-7.776,9.971-4.027c1.067,1.5,1.1,3.537,2.06,5.109,3.043,4.959,10.554,1.253,15.19-2.268s13.688-4.723,14.144,1.082c-4.46,4.977-1.626,14.337,4.845,16.007,1.9.491,4.162.531,5.368,2.073s.709,3.735.707,5.69c-.02,6.308,6.861,11.635,12.967,10.034s9.484-9.624,6.366-15.113c-3.2-5.63-10.811-7.149-14.925-12.149-5.3-6.433-3.123-15.96-.673-23.926.547-1.776,1.232-3.73,2.875-4.6,1.451-.771,3.206-.459,4.851-.455,6.705.01,12.345-5.67,14.5-12.021s1.593-13.26,1.007-19.939c-.6-6.827-.021-14.43-4.095-19.939a30.508,30.508,0,0,1-3.508-4.909c-1.942-4.12-.516-9.231-2.457-13.353-3.04-6.441-11.9-6.812-19.011-6.381s-16.081-.436-18.553-7.12c-1.009-2.733-.562-5.775.109-8.613,1.793-7.628,5.272-15.167,11.393-20.061s15.252-6.514,21.924-2.4c5.28,3.253,9.883,9.931,15.852,8.265,3.359-.935,5.361-4.27,7.121-7.28,4.43-7.583,10.049-15.337,18.437-17.936s19.532,3.147,18.98,11.91c-.413,6.6-6.854,11.545-7.591,18.114-.741,6.627,4.5,12.362,9.857,16.331s11.543,7.576,14.261,13.665c1.947,4.363,2.151,9.987,6.1,12.672,5.711,3.867,13.191-2.189,15.931-8.516,1.281-2.961,2.139-6.43.763-9.347-1.281-2.722-4.236-4.347-5.61-7.024-2.944-5.739,2.351-13.83-1.8-18.763-3.506-4.156-11.156-2.5-14.438-6.834-2.681-3.542.527-9.638,4.969-9.429,2-4.338,5.6-8.329,10.231-7.135,3.261.843,5.984,3.242,9.282,3.906,6.578,1.32,12.98-6.539,10.354-12.711a24.759,24.759,0,0,0,13.636-2.181,35.644,35.644,0,0,0-23.9-11.22c1.35-6.1,9.582-7.908,15.5-5.9s10.82,6.4,16.784,8.269,14.183-.369,15.117-6.546c-6.044-4.116-13.126-6.383-20.145-8.457M1827.38,337.842c-5.939.957-11.9-1.517-17.107-4.528-2.21-1.275-4.666-2.72-7.154-2.15-3.031.692-4.616,3.976-7.088,5.864-7.532,5.757-19.469-3.115-27.566,1.818q-.572,3.987-1.143,7.968c-2.824.692-5.611-.947-8.349-1.9s-6.554-.8-7.634,1.9c-1.355,3.376,2.78,6.09,5.379,8.633,5,4.887,7.206,14.5,14.19,14.168,3.165-.149,5.9-2.631,9.063-2.642,5.029-.016,8.463,6.027,13.489,6.154,4.093.1,7.395-3.8,11.488-3.977,5.156-.221,8.646,5.657,8.593,10.822s-2.361,10.022-3.11,15.129c-.493,3.319-.327,6.753-1.318,9.961s-3.6,6.282-6.955,6.351c-5.568.118-9.036-7.639-14.591-7.227-3.8.281-6.225,4.286-9.807,5.573-7.149,2.563-13.6-6.435-21.19-6.539-3.375-.047-6.827,1.7-10.01.58-3.274-1.153-4.829-4.807-7.369-7.167a10.959,10.959,0,0,0-18.368,9.189c.245,2.272,1.128,4.822-.222,6.663a5.692,5.692,0,0,1-3.554,1.862c-8.291,1.743-17.277-2.09-22.433-8.809-2.221-2.893-3.9-6.354-6.936-8.38-4.245-2.834-9.813-2.053-14.917-2.245s-11.168-2.518-11.842-7.583c-.858-6.41,7.751-11.742,5.829-17.916a11.655,11.655,0,0,0-1.852-3.254l-3.517-4.862c-2.934-4.06-6.319-8.426-11.227-9.431q.214,6.742.425,13.48c-18.24,7.426-40.409-.656-58.022,8.157-4.326,2.163-8.367,5.341-13.182,5.809s-10.447-3.721-8.966-8.325c1.239-3.862,5.711-4.334,9.166-4.588,5.465-.4,12.671.1,16.371-4.808,4.42-5.851,2.318-14.878,7.879-20.008,4.239-3.9,12.039-3.856,14.133-9.221,1.114-2.849.054-6.33,1.631-8.949,1.867-3.109,6.322-3.28,9.846-2.432s7.183,2.339,10.642,1.259c3.73-1.163,6.116-5.026,9.83-6.231,4.637-1.505,9.545,1.675,12.587,5.482s5.145,8.423,8.846,11.594c4.6,3.936,11.005,5.09,15.893,8.648s7.33,12.033,2.161,15.179c-2.718,1.653-6.18.956-9.349,1.214s-6.867,2.686-6.052,5.761c.478,1.792,2.312,2.863,4.083,3.414,8.413,2.627,18.433-3.478,19.964-12.158.515-2.935.187-6,.97-8.87s3.287-5.675,6.246-5.3c-.62-4.081-7.914-.664-10.914-3.494-1.18-1.114-1.32-2.9-1.785-4.459-1.28-4.263-5.267-7.081-9.155-9.25s-8.114-4.2-10.624-7.874-2.305-9.651,1.651-11.688c18.424,10.732,38.532,23.647,43.436,44.4,1.7,7.195,2.937,16.69,10.172,18.183,5.285,1.089,10.631-4.765,9.074-9.924-.815-2.706-3.051-4.854-3.63-7.62-.928-4.421,2.9-8.684,7.233-9.994s8.958-.48,13.434.145c3.617.508,8.721-.3,8.787-3.957.06-2.893-3.347-4.5-4.715-7.052-1.658-3.1.026-6.976,2.3-9.658s5.22-4.929,6.62-8.16c.938-2.158,1.107-4.6,2.069-6.744,2.676-5.964,12.018-7.359,16.32-2.436,1.949,2.232,2.779,5.194,4.082,7.854s3.476,5.281,6.424,5.544,5.9-3.352,4.1-5.7c-1.451-1.9-4.93-1.895-5.575-4.2-.611-2.183,1.976-3.8,4.1-4.587q7.185-2.654,14.364-5.316c1.327-.493,2.868-.976,4.109-.289,2.188,1.215,1.317,4.675-.453,6.439s-4.248,3.109-4.925,5.516a46.726,46.726,0,0,0,26,18.756c1.08,5.923-4.428,11.492-10.373,12.442m79.263,29.5c-4.2.438-8.295-1.3-12.162-2.994-3.261-1.429-6.594-2.91-9.156-5.378s-4.234-6.18-3.327-9.619c1.006-3.838,5-7.306,3.534-10.993a10.055,10.055,0,0,1-10.563-8.22c-.318-2.125.027-4.483-1.176-6.266-1.573-2.317-4.9-2.455-7.323-3.863-4.19-2.43-4.636-9.332-.8-12.284,2.294-1.766,4.472-2.658,6.234-5.065,1.354-1.856,2.394-4.073,4.172-5.582,2.859-2.426,8.092-2.793,11.695-2.99,3.311-.182,7.289-.109,10.2,1.732,2.737,1.731,3.159,4.743,1.912,7.6-2.222,5.112-8.8,4.412-11.518,8.84a5.761,5.761,0,0,0,2.75,8.037c2.358.892,5.421.242,7.115,2.11,1.353,1.49,1.057,3.776,1.138,5.79s1.235,4.473,3.242,4.311a4.821,4.821,0,1,1,8.212,4.629c-1.362,1.535-3.6,2.107-4.851,3.737-2.215,2.892-.075,7.093,2.522,9.653s5.891,5.055,6.2,8.688c.355,4.211-3.852,7.684-8.054,8.12m45.863-209.559c-2.323,2.913-7.4.906-9.063-2.425-1.648-3.3-1.336-7.206-2.078-10.823,1.981,1.761,4.809,2.776,7.213,4.1,3.322,1.829,6.289,6.182,3.928,9.143" transform="translate(-434.048 -31.47)" fill="#eaeaf3"/>
          <path id="Path_7260" data-name="Path 7260" d="M2731.438,352.106c4.946,7.1,10.087,14.807,10.033,23.455,2.239-1.912,5.977.148,6.841,2.961s-.121,5.826-.931,8.658-1.39,6.061.143,8.577a17.987,17.987,0,0,0,3.577,3.56c4.987,4.55,6.682,11.587,8.135,18.18,1.149,5.226,1.413,12.262-3.557,14.243-3.607,1.433-9.141-.311-10.581,3.3-.656,1.64.122,3.61-.6,5.228-1.865,4.179-8.211-.038-12.718.753a8.365,8.365,0,0,0-4.393,2.674c-8.337,8.669-4.706,25.458,6.48,29.9-2.532-9.19,5.66-19.641,15.187-19.378,3.682.1,8.061,1.288,10.544-1.426,1.739-1.9,1.671-5.009,3.531-6.785,2.4-2.287,6.28-1.073,9.564-1.464,7.139-.848,10.337-11.722,4.8-16.3-1.548-1.279-3.5-2.046-4.871-3.515-4.454-4.79-.223-13.516-4.215-18.7-2.008-2.6-5.484-3.459-8.354-5.06s-5.441-5.128-3.8-7.981c2.969-5.18,12.775,1.071,16.5-3.592,1.972-2.473.379-6.372-2.254-8.124s-5.919-2.081-8.983-2.866a29.964,29.964,0,0,1-21.656-23.922c-.643-4.2-.384-8.614-1.956-12.564-2-5.033-9.994-12.872-15.987-9.775-3.972,2.052-.75,5.23,1.013,7.758q4.252,6.113,8.506,12.215" transform="translate(-790.609 -96.334)" fill="#eaeaf3"/>
          <path id="Path_7261" data-name="Path 7261" d="M2478.035,780.55c-4.309.357-9.563,1.885-12.282-1.478-2.271,5.314,3.152,10.563,7.968,13.748,11.25,7.452,24.057,16.579,24.7,30.055.176,3.728-.573,7.8,1.445,10.942,1.887,2.935,5.666,4.13,7.8,6.9,4.141,5.372,1.087,15.092,6.977,18.448,5.151,2.937,13.873-1.576,16.532,3.728.716,1.423.6,3.11.963,4.666,1.734,7.294,11.693,7.746,19.2,7.861a64.081,64.081,0,0,1,30.506,8.307c2.141,1.214,4.324,2.593,6.788,2.749,2.347.15,4.594-.838,6.814-1.622a42.764,42.764,0,0,1,24.483-1.185c.151-6.31-8.662-7.9-14.953-7.325l-19.576,1.805c1.221-4.4-1.974-9.048-6.076-11.05s-8.852-2-13.419-1.958q-9.529.089-19.064.174c-2.271.019-4.833-.08-6.356-1.763-1.463-1.619-1.382-4.055-1.424-6.234a33.266,33.266,0,0,0-5.3-17.257,66.373,66.373,0,0,0-6.769-8.313q-10.535-11.6-21.074-23.206c-6.157-6.779-13.733-13.394-18.27-21.367-1.973-3.462-5.219-6.983-9.6-6.622" transform="translate(-716.548 -226.447)" fill="#eaeaf3"/>
          <path id="Path_7262" data-name="Path 7262" d="M2602.228,798.485c-3.214.267-1.9,7.483-5.109,7.2a7.236,7.236,0,0,1-2.091-.961c-3.154-1.372-5.766,2.75-6.754,6.036-.693,2.3-1.365,4.871-.273,7.006,1.133,2.207,3.751,3.16,5.5,4.911,3.107,3.111,3.006,8.062,3.272,12.453s1.809,9.576,6.046,10.746c5.542,1.529,11.632-5.079,16.576-2.148,2.1,1.246,3.128,3.906,5.342,4.949,2.665,1.253,5.842-.414,7.818-2.6,5.82-6.458,5.541-16.7,11.071-23.417,1.971-2.4,4.721-4.425,5.381-7.46,1.472-6.782-8.445-12.528-6.263-19.117,1.253-3.783,5.908-5.344,7.879-8.808,2.3-4.048-.621-9.99-5.232-10.644-1.106-.158-2.345-.086-3.209-.8-2.082-1.731.432-5.086-.052-7.749-.432-2.413-3.471-3.623-5.821-2.923s-4.057,2.718-5.4,4.772a34.709,34.709,0,0,0-4.863,11.675c-.466,2.181-.741,4.459-1.8,6.43-.986,1.844-3.082,3.653-5.3,3.225-.092-2.325-1.777-.031-2.388.708a20.508,20.508,0,0,1-3.92,4.223c-3.581,2.548-6.431,1.971-10.417,2.3" transform="translate(-752.068 -222.344)" fill="#eaeaf3"/>
          <path id="Path_7263" data-name="Path 7263" d="M2682.519,651.685a3.372,3.372,0,0,0-2.168.662c-3.914,2.578-4.207,8.219-3.313,12.818s2.557,9.4,1.057,13.844c-1.283,3.814-4.824,7.465-3.386,11.22,1.936,5.041,10.015,3.582,13.81,7.415,4.595,4.652.093,13.644,4.364,18.595,1.448,1.678,3.683,2.548,5.031,4.307,2.93,3.826.283,9.381,1.161,14.117,1.107,5.952,8.549,9.5,14.141,7.174s8.411-9.4,6.6-15.178c3.819.974,7.219-3.642,6.478-7.512s-4.083-6.676-7.463-8.692-7.125-3.663-9.7-6.642c-5.963-6.906-3.518-17.029-6.713-25.022-.88-2.195-2.117-4.233-4.43-5.081-1.7-.615-3.561-.414-5.235-1.256-2.8-1.409-3.809-4.033-4.362-6.967-.67-3.578-.734-13.247-5.873-13.8" transform="translate(-777.341 -189.417)" fill="#eaeaf3"/>
          <path id="Path_7264" data-name="Path 7264" d="M2778.39,849.631c2.124,1.446,4.837,1.663,7.2,2.663s4.58,3.515,3.666,5.92c-.5,1.3-1.769,2.139-2.481,3.337-2.164,3.624,1.885,8.139,6.031,8.954s8.509-.333,12.621.627c6.854,1.6,10.994,8.385,14.375,14.561,1.377,2.522,2.8,5.381,2.033,8.147-.4,1.436-1.373,2.805-1.1,4.264.509,2.732,4.525,2.836,6.969,1.506s4.875-3.474,7.595-2.888c2.737.589,4.1,3.609,6.231,5.429a8.447,8.447,0,0,0,11.75-1.287c2.639-3.518,3.013-9.547,7.332-10.361a6.784,6.784,0,0,1,4.118.811c10.123,4.886,12.827,18.792,22.383,24.715,3.78,2.346,10.5,1.76,10.664-2.691.142-3.779-4.529-5.432-7.722-7.456a14.063,14.063,0,0,1-5.865-15.2c1.021-3.686,3.419-8.088.754-10.836-2.511-2.6-7.026-.772-10.381-2.107-4.995-1.993-4.736-9.211-7.882-13.568-3.184-4.411-9.311-5.229-14.74-5.617-6.04-.431-12.247-1-17.972-3.119-5.507-2.036-9.1-7.174-14.617-8.86-4.153-1.275-8.28.155-12.472.26-6.317.158-10.262-4.284-16.13-5.288-3.61-.616-9.329-.278-12.656,1.405-2.8,1.413-2.215,4.965.3,6.673" transform="translate(-806.948 -244.525)" fill="#eaeaf3"/>
          <path id="Path_7265" data-name="Path 7265" d="M2678.325,980.446c-2.085,1.52-4.68,2.141-6.952,3.36-9.555,5.146-11.166,19.317-20.643,24.616-4.008,2.244-8.775,2.486-13.32,3.195-13.633,2.117-27.689,10.475-30.728,23.939a48.335,48.335,0,0,0-.82,10.179l-.381,40.506c-.045,4.45-.117,9.051-1.922,13.119-2.606,5.884-8.781,11.747-5.918,17.512,2.489,5.014,9.943,4.788,14.852,2.1s9.03-7.051,14.482-8.316c6.335-1.468,12.809,1.62,19.312,1.742,12.116.233,21.738-9.436,31.981-15.918s26.677-8.437,32.066,2.419c2.069,4.167,1.854,9.308,4.514,13.118s10.547,3.567,10.262-1.071c4.865.724,6.678,6.844,6.515,11.76s-1.06,10.442,2.062,14.241c6.2,7.542,18.685-.493,28.053,2.249,3.791,1.111,7.318,4.08,11.195,3.313,2.464-.491,4.359-2.4,6.078-4.224q24.624-26.06,47.13-54.011c10.5-13.043,21.1-30.7,13.026-45.376-2.543-4.614-6.652-8.144-9.767-12.389a65.135,65.135,0,0,1-6.578-12.206q-15.063-33.753-26.884-68.83c-3.821-.721-6.626,3.584-7.576,7.357-2.237,8.873-.835,18.507-4.042,27.072s-14.717,15.2-21.414,8.96c-5.351-4.987-4.1-15.016-10.286-18.907.729.459,3.706-6.995,3.888-7.71a18.953,18.953,0,0,0,.635-4.526c.024-2.259-.328-2.442-2.395-3.2-4.329-1.58-9.349-2.47-13.9-1.331-6.26,1.565-10.628,6.6-14.412,11.5-2.941,3.812-6.17,9.554-11.129,10.976-7.8,2.228-12.262-7.549-17.877-10.711-10.276-5.79-13.093,11.124-19.106,15.5" transform="translate(-754.822 -274.79)" fill="#eaeaf3"/>
          <path id="Path_7266" data-name="Path 7266" d="M2020.433,987.994c-4.094.482-6.541,5.248-6.029,9.339s3.094,7.581,5.588,10.862q-3.825,7.741-7.648,15.476c-1.853,3.743-3.746,7.669-3.72,11.845.042,5.932,3.9,11.085,7.823,15.543,1.83,2.086,3.967,4.257,6.725,4.55,3.986.416,7.274-3.369,8.341-7.229s.694-7.981,1.531-11.9c2.654-12.418,16.663-20.214,18.569-32.771.558-3.669-.006-7.437.5-11.115.542-3.941,2.283-7.605,3.705-11.325,2.035-5.308,3.56-12.013-.651-16.716-2.387-2.657-7.518-4.257-10.719-2.019-2.452,1.714-2.891,5.32-3.5,8-.9,3.936-1.855,7.867-4.249,11.2a16.823,16.823,0,0,1-6.378,5.486c-3.442,1.6-6.371.359-9.892.775" transform="translate(-583.833 -279.464)" fill="#eaeaf3"/>
          <path id="Path_7267" data-name="Path 7267" d="M1211.394,1046.251a20.482,20.482,0,1,0-40.964,0c0,5.69,20.481,49.075,20.481,49.075s20.483-43.385,20.483-49.075" transform="translate(-340.201 -298.152)" fill="#ea536c"/>
          <path id="Path_7268" data-name="Path 7268" d="M1206.547,1050.544a12.269,12.269,0,1,1-12.269-12.269,12.268,12.268,0,0,1,12.269,12.269" transform="translate(-343.566 -301.788)" fill="#fbc57a"/>
          <path id="Path_7269" data-name="Path 7269" d="M1194.135,1063.019a12.618,12.618,0,1,1,12.618-12.618.348.348,0,0,1-.7,0,11.921,11.921,0,1,0-11.921,11.92.349.349,0,0,1,0,.7" transform="translate(-343.423 -301.645)" fill="#173449"/>
          <path id="Path_7270" data-name="Path 7270" d="M1202.03,1064.934a11.038,11.038,0,0,0,5.823-5.926c.111-.268-.326-.384-.434-.119a10.613,10.613,0,0,1-5.617,5.656c-.266.113-.036.5.228.389" transform="translate(-349.285 -307.736)" fill="#173449"/>
          <path id="Path_7271" data-name="Path 7271" d="M1211.585,1056.034l.642-2.119a.226.226,0,0,0-.435-.12l-.643,2.119c-.084.278.351.4.436.12" transform="translate(-352.033 -306.253)" fill="#173449"/>
          <path id="Path_7272" data-name="Path 7272" d="M1204.346,1060.144a17.31,17.31,0,0,1,2.07-3.612c.173-.234-.219-.459-.39-.228a17.858,17.858,0,0,0-2.116,3.72.23.23,0,0,0,.158.278.233.233,0,0,0,.277-.158" transform="translate(-349.929 -307)" fill="#173449"/>
          <path id="Path_7273" data-name="Path 7273" d="M1190.811,1045.723a8.837,8.837,0,0,0-2.678,11.068c.135.259.524.031.389-.228a8.379,8.379,0,0,1,2.518-10.45c.235-.165.009-.557-.229-.389" transform="translate(-345.074 -303.941)" fill="#173449"/>
          <path id="Path_7274" data-name="Path 7274" d="M1190.219,1052.041q-.295,1.523-.593,3.046c-.055.283.38.4.435.121.2-1.017.394-2.03.592-3.046.055-.283-.379-.407-.435-.121" transform="translate(-345.779 -305.742)" fill="#173449"/>
          <path id="Path_7275" data-name="Path 7275" d="M1182.093,1071.871q4.792,12.955,9.587,25.91c.1.27.535.154.434-.12q-4.793-12.954-9.585-25.91c-.1-.271-.537-.155-.436.12" transform="translate(-343.586 -311.474)" fill="#173449"/>
          <path id="Path_7276" data-name="Path 7276" d="M1371.563,133.51a20.484,20.484,0,0,0-40.968,0c0,5.691,20.484,49.076,20.484,49.076s20.483-43.385,20.483-49.076" transform="translate(-386.755 -32.852)" fill="#ea536c"/>
          <path id="Path_7277" data-name="Path 7277" d="M1366.715,137.8a12.269,12.269,0,1,1-12.269-12.269,12.267,12.267,0,0,1,12.269,12.269" transform="translate(-390.121 -36.489)" fill="#fbc57a"/>
          <path id="Path_7278" data-name="Path 7278" d="M1354.3,150.279a12.618,12.618,0,1,1,12.618-12.618.349.349,0,0,1-.7,0,11.921,11.921,0,1,0-11.92,11.92.349.349,0,1,1,0,.7" transform="translate(-389.978 -36.345)" fill="#173449"/>
          <path id="Path_7279" data-name="Path 7279" d="M1362.2,152.194a11.054,11.054,0,0,0,5.823-5.925c.11-.268-.327-.384-.436-.12a10.6,10.6,0,0,1-5.616,5.655c-.267.114-.036.5.229.39" transform="translate(-395.84 -42.437)" fill="#173449"/>
          <path id="Path_7280" data-name="Path 7280" d="M1371.754,143.294l.643-2.12a.227.227,0,0,0-.436-.121q-.32,1.061-.642,2.122a.226.226,0,0,0,.436.119" transform="translate(-398.588 -40.953)" fill="#173449"/>
          <path id="Path_7281" data-name="Path 7281" d="M1364.516,147.4a17.3,17.3,0,0,1,2.068-3.61c.174-.234-.219-.459-.39-.228a18.067,18.067,0,0,0-2.115,3.718.23.23,0,0,0,.159.278.234.234,0,0,0,.279-.158" transform="translate(-396.483 -41.701)" fill="#173449"/>
          <path id="Path_7282" data-name="Path 7282" d="M1350.98,132.982a8.84,8.84,0,0,0-2.678,11.068c.135.259.524.03.389-.227a8.383,8.383,0,0,1,2.517-10.452c.235-.165.011-.557-.227-.389" transform="translate(-391.629 -38.641)" fill="#173449"/>
          <path id="Path_7283" data-name="Path 7283" d="M1350.387,139.3l-.593,3.046c-.055.283.379.4.435.118q.3-1.524.593-3.045c.055-.282-.378-.4-.435-.119" transform="translate(-392.334 -40.443)" fill="#173449"/>
          <path id="Path_7284" data-name="Path 7284" d="M1342.262,159.131q4.8,12.955,9.584,25.911c.1.268.538.152.438-.121q-4.8-12.956-9.588-25.911c-.1-.27-.536-.154-.434.121" transform="translate(-390.142 -46.174)" fill="#173449"/>
          <path id="Path_7285" data-name="Path 7285" d="M2744.718,672.155a20.483,20.483,0,1,0-40.965,0c0,5.692,20.484,49.076,20.484,49.076s20.481-43.385,20.481-49.076" transform="translate(-785.881 -189.417)" fill="#ea536c"/>
          <path id="Path_7286" data-name="Path 7286" d="M2739.87,676.45a12.27,12.27,0,1,1-12.269-12.269,12.269,12.269,0,0,1,12.269,12.269" transform="translate(-789.246 -193.053)" fill="#fbc57a"/>
          <path id="Path_7287" data-name="Path 7287" d="M2727.459,688.925a12.618,12.618,0,1,1,12.618-12.618.349.349,0,0,1-.7,0,11.921,11.921,0,1,0-11.921,11.921.349.349,0,1,1,0,.7" transform="translate(-789.104 -192.91)" fill="#173449"/>
          <path id="Path_7288" data-name="Path 7288" d="M2735.353,690.839a11.049,11.049,0,0,0,5.824-5.924c.111-.269-.328-.384-.436-.12a10.61,10.61,0,0,1-5.615,5.655c-.268.113-.037.5.227.389" transform="translate(-794.965 -199.001)" fill="#173449"/>
          <path id="Path_7289" data-name="Path 7289" d="M2744.91,681.939c.211-.706.427-1.413.639-2.119a.226.226,0,0,0-.434-.122c-.215.708-.427,1.414-.643,2.121-.083.278.352.4.438.12" transform="translate(-797.713 -197.517)" fill="#173449"/>
          <path id="Path_7290" data-name="Path 7290" d="M2737.669,686.048a17.382,17.382,0,0,1,2.071-3.61c.173-.233-.221-.458-.391-.228a17.862,17.862,0,0,0-2.116,3.72.228.228,0,0,0,.158.277.233.233,0,0,0,.278-.159" transform="translate(-795.609 -198.265)" fill="#173449"/>
          <path id="Path_7291" data-name="Path 7291" d="M2724.134,671.627a8.841,8.841,0,0,0-2.677,11.07c.133.257.524.03.389-.228a8.378,8.378,0,0,1,2.517-10.453c.234-.165.01-.557-.229-.389" transform="translate(-790.755 -195.205)" fill="#173449"/>
          <path id="Path_7292" data-name="Path 7292" d="M2723.544,677.946q-.3,1.524-.593,3.044c-.056.284.378.406.434.123q.294-1.526.593-3.046c.055-.283-.38-.407-.434-.121" transform="translate(-791.459 -197.007)" fill="#173449"/>
          <path id="Path_7293" data-name="Path 7293" d="M2715.418,697.777q4.793,12.955,9.586,25.911c.1.269.537.151.433-.119q-4.791-12.955-9.585-25.913c-.1-.27-.536-.154-.434.121" transform="translate(-789.267 -202.738)" fill="#173449"/>
          <path id="Path_7294" data-name="Path 7294" d="M2459.313,231.189a20.11,20.11,0,1,0-40.219,0c0,5.588,20.111,48.18,20.111,48.18s20.108-42.592,20.108-48.18" transform="translate(-703.141 -61.353)" fill="#ea536c"/>
          <path id="Path_7295" data-name="Path 7295" d="M2454.554,235.405a12.047,12.047,0,1,1-12.047-12.045,12.046,12.046,0,0,1,12.047,12.045" transform="translate(-706.445 -64.922)" fill="#fbc57a"/>
          <path id="Path_7296" data-name="Path 7296" d="M2442.369,247.652a12.387,12.387,0,1,1,12.387-12.387.342.342,0,1,1-.684,0,11.7,11.7,0,1,0-11.7,11.7.343.343,0,0,1,0,.685" transform="translate(-706.306 -64.782)" fill="#173449"/>
          <path id="Path_7297" data-name="Path 7297" d="M2450.12,249.532a10.847,10.847,0,0,0,5.716-5.817c.108-.263-.32-.377-.427-.117a10.419,10.419,0,0,1-5.514,5.551c-.263.111-.037.492.225.382" transform="translate(-712.06 -70.762)" fill="#173449"/>
          <path id="Path_7298" data-name="Path 7298" d="M2459.5,240.795q.314-1.041.629-2.082c.084-.272-.345-.389-.426-.118-.209.7-.42,1.388-.631,2.083-.082.272.345.388.429.117" transform="translate(-714.758 -69.306)" fill="#173449"/>
          <path id="Path_7299" data-name="Path 7299" d="M2452.393,244.828a17.134,17.134,0,0,1,2.031-3.544c.171-.231-.212-.45-.382-.225a17.589,17.589,0,0,0-2.078,3.652.222.222,0,0,0,.428.116" transform="translate(-712.692 -70.04)" fill="#173449"/>
          <path id="Path_7300" data-name="Path 7300" d="M2439.1,230.672a8.675,8.675,0,0,0-2.628,10.868c.131.252.512.027.381-.224a8.231,8.231,0,0,1,2.469-10.262c.231-.162.012-.545-.221-.382" transform="translate(-707.926 -67.036)" fill="#173449"/>
          <path id="Path_7301" data-name="Path 7301" d="M2438.524,236.874q-.293,1.5-.582,2.99c-.055.279.372.4.426.12q.29-1.495.584-2.991c.053-.279-.374-.4-.428-.119" transform="translate(-708.618 -68.804)" fill="#173449"/>
          <path id="Path_7302" data-name="Path 7302" d="M2430.546,256.343q4.705,12.722,9.412,25.438c.1.264.526.151.424-.117q-4.7-12.72-9.408-25.438c-.1-.264-.527-.151-.428.117" transform="translate(-706.465 -74.432)" fill="#173449"/>
          <path id="Path_7303" data-name="Path 7303" d="M824.88,474.968a15.016,15.016,0,1,0-30.033,0c0,4.172,15.016,35.978,15.016,35.978s15.017-31.807,15.017-35.978" transform="translate(-231.033 -133.691)" fill="#ea536c"/>
          <path id="Path_7304" data-name="Path 7304" d="M821.326,478.115a8.995,8.995,0,1,1-8.994-8.994,8.994,8.994,0,0,1,8.994,8.994" transform="translate(-233.5 -136.356)" fill="#fbc57a"/>
          <path id="Path_7305" data-name="Path 7305" d="M818.015,488.665a8.09,8.09,0,0,0,4.269-4.343c.081-.2-.239-.284-.32-.088a7.786,7.786,0,0,1-4.116,4.145c-.2.084-.026.368.166.286" transform="translate(-237.693 -140.717)" fill="#173449"/>
          <path id="Path_7306" data-name="Path 7306" d="M825.021,482.14l.47-1.553a.166.166,0,0,0-.32-.087q-.234.777-.47,1.553a.166.166,0,0,0,.32.087" transform="translate(-239.708 -139.629)" fill="#173449"/>
          <path id="Path_7307" data-name="Path 7307" d="M819.712,485.153a12.758,12.758,0,0,1,1.518-2.646c.126-.171-.16-.336-.285-.168a13.117,13.117,0,0,0-1.553,2.727.167.167,0,0,0,.116.2.17.17,0,0,0,.2-.116" transform="translate(-238.165 -140.178)" fill="#173449"/>
          <path id="Path_7308" data-name="Path 7308" d="M809.79,474.581a6.481,6.481,0,0,0-1.963,8.114c.1.189.384.022.287-.167a6.14,6.14,0,0,1,1.843-7.662c.172-.123.007-.41-.167-.286" transform="translate(-234.606 -137.934)" fill="#173449"/>
          <path id="Path_7309" data-name="Path 7309" d="M809.356,479.216q-.218,1.114-.435,2.232c-.039.208.279.3.32.088q.217-1.116.435-2.233c.04-.208-.278-.3-.319-.087" transform="translate(-235.122 -139.255)" fill="#173449"/>
          <path id="Path_7310" data-name="Path 7310" d="M803.4,493.751q3.515,9.5,7.027,19c.075.2.394.114.32-.088q-3.513-9.5-7.028-19c-.073-.2-.393-.113-.319.088" transform="translate(-233.515 -143.457)" fill="#173449"/>
          <path id="Path_7311" data-name="Path 7311" d="M2038.657,995.507a15.016,15.016,0,1,0-30.032,0c0,4.172,15.016,35.979,15.016,35.979s15.016-31.807,15.016-35.979" transform="translate(-583.833 -284.992)" fill="#ea536c"/>
          <path id="Path_7312" data-name="Path 7312" d="M2035.1,998.655a8.995,8.995,0,1,1-9-9,9,9,0,0,1,9,9" transform="translate(-586.3 -287.657)" fill="#fbc57a"/>
          <path id="Path_7313" data-name="Path 7313" d="M2026,1007.8a9.25,9.25,0,1,1,9.25-9.249.255.255,0,0,1-.509,0,8.74,8.74,0,1,0-8.741,8.74.255.255,0,1,1,0,.509" transform="translate(-586.195 -287.553)" fill="#173449"/>
          <path id="Path_7314" data-name="Path 7314" d="M2031.79,1009.2a8.089,8.089,0,0,0,4.267-4.343c.083-.2-.238-.282-.316-.088a7.791,7.791,0,0,1-4.117,4.147c-.2.082-.029.37.166.284" transform="translate(-590.492 -292.018)" fill="#173449"/>
          <path id="Path_7315" data-name="Path 7315" d="M2038.8,1002.679c.155-.516.313-1.035.47-1.553.063-.206-.258-.292-.32-.089q-.234.777-.471,1.555c-.062.2.259.292.321.087" transform="translate(-592.507 -290.931)" fill="#173449"/>
          <path id="Path_7316" data-name="Path 7316" d="M2033.489,1005.693a12.642,12.642,0,0,1,1.516-2.648c.128-.171-.159-.335-.285-.167a12.958,12.958,0,0,0-1.552,2.728.167.167,0,0,0,.116.2.169.169,0,0,0,.2-.116" transform="translate(-590.964 -291.479)" fill="#173449"/>
          <path id="Path_7317" data-name="Path 7317" d="M2023.566,995.12a6.484,6.484,0,0,0-1.964,8.116c.1.189.385.021.286-.166a6.145,6.145,0,0,1,1.843-7.665c.174-.121.01-.409-.165-.286" transform="translate(-587.405 -289.236)" fill="#173449"/>
          <path id="Path_7318" data-name="Path 7318" d="M2023.13,999.753c-.146.744-.289,1.49-.435,2.232-.04.209.279.3.319.088q.217-1.116.435-2.232c.041-.208-.279-.3-.319-.088" transform="translate(-587.922 -290.557)" fill="#173449"/>
          <path id="Path_7319" data-name="Path 7319" d="M2017.174,1014.289q3.512,9.5,7.026,19c.075.2.4.113.32-.088q-3.513-9.5-7.027-19c-.072-.2-.394-.113-.319.087" transform="translate(-586.314 -294.759)" fill="#173449"/>
          <path id="Path_7320" data-name="Path 7320" d="M2592.7,402.7l91.674-13.719,6.985,22.573Z" transform="translate(-753.601 -113.062)" fill="#64bbe0"/>
          <path id="Path_7321" data-name="Path 7321" d="M2592.7,395.242l86.278-23.417-18.869-8.494Z" transform="translate(-753.601 -105.607)" fill="#64bbe0"/>
          <path id="Path_7322" data-name="Path 7322" d="M2678.975,375.306l-.248,10.545-86.03,12.872Z" transform="translate(-753.601 -109.087)" fill="#5a62b3"/>
          <path id="Path_7323" data-name="Path 7323" d="M2592.7,408.318l74.424,12.632,8.651-5.174Z" transform="translate(-753.601 -118.683)" fill="#5a62b3"/>
          <path id="Path_7324" data-name="Path 7324" d="M2743.381,317.678c27.688,11.972,55.45,23.951,84.229,33.088,27.908,8.867,57.7,15.9,87.17,15.1,25.612-.7,51.848-9.438,66.757-31.492,6.326-9.355,10.149-20.927,8.843-32.3a43.577,43.577,0,0,0-15.681-28.244c-8.2-6.7-19.443-10.341-29.875-7.249-5.068,1.5-8.236,5.074-11.059,9.353a33.641,33.641,0,0,0-5.492,15.464c-1.685,14.115,1.584,27.991,7.154,40.921a61.874,61.874,0,0,0,20.138,25.379c18.365,13.615,42.618,17.669,64.591,11.893,23.891-6.271,44.285-22.559,58.662-42.293,16.791-23.044,25.749-50.814,31.536-78.451,5.553-26.519,7.7-54.451,19.448-79.24a94.362,94.362,0,0,1,10.076-16.68c.191-.254-.239-.5-.429-.249-15.314,20.215-20.429,45.544-24.757,69.982-4.746,26.807-9.851,53.627-21.315,78.528-10.637,23.1-26.718,43.97-48.657,57.307-20,12.15-43.866,16.792-66.519,9.931a71.188,71.188,0,0,1-28.671-16.458c-8.954-8.592-14.343-19.579-17.9-31.353a74.4,74.4,0,0,1-3.331-20.664c-.065-6.429.356-13.537,3.312-19.36,2.442-4.816,5.862-10.34,10.934-12.652,5.549-2.53,12.349-2.448,18.139-.9,11.1,2.959,20.224,11.586,25.231,21.749,5.209,10.588,5.314,22.506,1.3,33.506-8.928,24.442-33.454,38.264-58.081,41.869-13.815,2.025-27.906,1.4-41.718-.319a310.82,310.82,0,0,1-42.914-8.622c-28.067-7.611-55.133-18.431-81.854-29.806q-9.522-4.048-19.011-8.179c-.29-.121-.544.3-.253.432" transform="translate(-797.362 -44.35)" fill="#173449"/>
          <path id="Path_7325" data-name="Path 7325" d="M1185.29,754.068l-98.993-7.409-5.676,24.66Z" transform="translate(-314.097 -217.026)" fill="#64bbe0"/>
          <path id="Path_7326" data-name="Path 7326" d="M1189.666,745.32l-93.991-18.2,19.476-10.561Z" transform="translate(-318.472 -208.278)" fill="#64bbe0"/>
          <path id="Path_7327" data-name="Path 7327" d="M1095.675,731.45l1.091,11.244,92.895,6.952Z" transform="translate(-318.472 -212.605)" fill="#5a62b3"/>
          <path id="Path_7328" data-name="Path 7328" d="M1192.065,757.1l-78.491,19.373-9.646-4.845Z" transform="translate(-320.871 -220.062)" fill="#5a62b3"/>
          <path id="Path_7329" data-name="Path 7329" d="M769.672,591.318c-51.1,46.609-110.686,91.122-182.262,95.656-33.132,2.1-70.322-4.46-97-25.487-11.955-9.426-22.163-24.322-17.127-40.156,4.635-14.6,20.039-24.729,35.03-25.3,15.531-.6,28.792,9.958,35.5,23.341a51.844,51.844,0,0,1,.522,45.368c-15.145,32.1-52.5,43.431-85.521,41.4-37.957-2.332-75.276-16.959-108.457-34.813-28.74-15.464-57.48-33.979-78.4-59.449-9.545-11.628-17.255-24.9-21.413-39.421-4.221-14.744-4.49-30.246-1.8-45.29,5.4-30.2,20.939-57.5,34.123-84.806,12.589-26.077,24.588-54,23.742-83.544-.837-29.252-15.237-56.905-36.769-76.359-24.911-22.507-58.751-33.432-91.972-34.05-28.606-.527-60.044,7.245-79.578,29.516-15.623,17.811-19.95,45.918-8.184,66.938,13.949,24.92,48.873,28.11,71.124,12.5,9.84-6.9,18.039-17.689,19.86-29.8,1.936-12.856-4.857-23.735-15.515-30.488-12.037-7.625-26.966-11.582-40.972-13.443a124.478,124.478,0,0,0-41.3,1.394c-28.4,5.827-53.422,22.37-67.994,47.7C-1.214,361.453-3.289,396.02,3.98,427.836A214.438,214.438,0,0,0,20.6,473.726c.131.272.526.017.4-.255C5.533,441.691-3.933,405.741,2.363,370.362,8.246,337.3,27.74,308.127,58.51,293.693c26.4-12.381,57.615-13.792,85.407-5.413,14.678,4.421,32.691,12.021,36.415,28.645,3.263,14.562-5.771,29.319-16.777,38.119-12.924,10.331-31.431,14-47.365,9.626-14.316-3.92-24.91-14.806-29.472-28.778a60.96,60.96,0,0,1,1.17-39.75c5.162-13.8,15.687-24.782,28.148-32.374,28.03-17.077,64.457-18.092,95.629-10.6,33.094,7.952,63.062,27.585,80.347,57.314a102.6,102.6,0,0,1,13.975,44.868c.95,15.054-1.614,30.069-6.039,44.424-9.1,29.51-25.23,56.162-37.617,84.3-11.2,25.445-19.576,53.2-14.014,81.15,5.7,28.669,24.966,52.165,46.917,70.464,26.258,21.882,57.289,39.258,88.853,52.147,32.01,13.072,69.036,23.588,103.8,17.292,27.276-4.937,55.052-23.572,60.964-52.234,4.929-23.881-9.544-54.92-36.195-57.226-25.3-2.188-49.572,23.048-37.937,47.889,5.822,12.429,17.709,21.056,29.5,27.351a143.472,143.472,0,0,0,46.114,15.034c67.515,10.249,131.087-21.7,182.583-62.481,12.779-10.117,25.065-20.84,37.1-31.818.223-.206-.131-.522-.35-.318" transform="translate(0 -72.197)" fill="#173449"/>
        </g>
      </g>
    </g>
  </g>
</svg>
