<svg id="Group_817" data-name="Group 817" xmlns="http://www.w3.org/2000/svg" xmlns:xlink="http://www.w3.org/1999/xlink" width="188.92" height="76.162" viewBox="0 0 188.92 76.162">
  <defs>
    <clipPath id="clip-path">
      <rect id="Rectangle_354" data-name="Rectangle 354" width="188.92" height="76.163" fill="#1374c4"/>
    </clipPath>
  </defs>
  <g id="Group_816" data-name="Group 816" transform="translate(0 0)" clip-path="url(#clip-path)">
    <path id="Path_7099" data-name="Path 7099" d="M92,.087a1.344,1.344,0,0,1,1.223,1.455A1.4,1.4,0,0,1,91.776,2.77l-.436-.03a21.558,21.558,0,0,0-4.625.2,1.352,1.352,0,0,1-1.527-1.138A1.338,1.338,0,0,1,86.322.282a24.72,24.72,0,0,1,5.2-.236Zm5.612,1.342a19,19,0,0,1,4.95,2.961,1.347,1.347,0,1,1-1.712,2.081A16.21,16.21,0,0,0,96.6,3.925a1.348,1.348,0,0,1,.6-2.594,1.283,1.283,0,0,1,.417.1M82.57,2.452a1.349,1.349,0,0,1-.859,1.7A39.515,39.515,0,0,0,76.9,6.126,1.347,1.347,0,1,1,75.719,3.7,42.286,42.286,0,0,1,80.861,1.6a1.359,1.359,0,0,1,1.708.853m24.036,5.923a23.648,23.648,0,0,1,2.931,4.877,1.346,1.346,0,1,1-2.452,1.114,21.37,21.37,0,0,0-2.606-4.336,1.347,1.347,0,1,1,2.127-1.654M72.734,6.814a1.345,1.345,0,0,1-.428,1.852c-.981.618-1.94,1.256-2.846,1.907-.489.347-.963.711-1.414,1.086A1.345,1.345,0,1,1,66.33,9.587c.492-.417,1.015-.82,1.559-1.211.96-.68,1.957-1.349,2.986-1.994a1.316,1.316,0,0,1,.809-.2,1.332,1.332,0,0,1,1.05.63M64.252,13.4a1.344,1.344,0,0,1,.2,1.9,27.3,27.3,0,0,0-2.815,4.275,1.346,1.346,0,1,1-2.377-1.261,29.423,29.423,0,0,1,3.1-4.7,1.358,1.358,0,0,1,1.145-.5,1.3,1.3,0,0,1,.753.291m47.062,5.226a29.89,29.89,0,0,1,.69,5.6,1.343,1.343,0,0,1-1.311,1.379,1.375,1.375,0,0,1-1.382-1.3,27.137,27.137,0,0,0-.626-5.091,1.346,1.346,0,0,1,2.629-.58M158.2,28.5a1.344,1.344,0,0,1-1.367,1.323,17.771,17.771,0,0,0-4.959.6,1.346,1.346,0,1,1-.687-2.6,20.657,20.657,0,0,1,5.7-.695c.02,0,.039,0,.062,0A1.341,1.341,0,0,1,158.2,28.5m4.346-.458a24.283,24.283,0,0,1,5.2,2.314,1.349,1.349,0,0,1-1.371,2.323,21.666,21.666,0,0,0-4.618-2.064,1.348,1.348,0,0,1,.489-2.632,1.379,1.379,0,0,1,.3.06M58.785,22.625a1.345,1.345,0,0,1,.876,1.688,31.649,31.649,0,0,0-1.151,5.035,1.313,1.313,0,0,1-1.531,1.135,1.343,1.343,0,0,1-1.137-1.524A34.038,34.038,0,0,1,57.1,23.5a1.341,1.341,0,0,1,1.365-.939,1.465,1.465,0,0,1,.321.064M147.72,30.47a1.347,1.347,0,0,1-.561,1.821,29.582,29.582,0,0,0-4.306,2.82,1.35,1.35,0,0,1-1.894-.238,1.337,1.337,0,0,1,.238-1.886,32.22,32.22,0,0,1,4.7-3.075,1.319,1.319,0,0,1,.723-.15,1.333,1.333,0,0,1,1.1.708m-37.2-2.177a1.348,1.348,0,0,1,1.122,1.54,27.808,27.808,0,0,1-1.412,5.465,1.347,1.347,0,0,1-2.528-.932,25.346,25.346,0,0,0,1.279-4.949,1.344,1.344,0,0,1,1.421-1.137c.037,0,.077.011.118.012m61.773,5.373a40.372,40.372,0,0,1,3.927,3.949,1.348,1.348,0,1,1-2.036,1.766,37.219,37.219,0,0,0-3.664-3.683,1.348,1.348,0,0,1,.975-2.365,1.325,1.325,0,0,1,.8.333m-144.9-5.079A1.346,1.346,0,0,1,28.5,30.13a1.375,1.375,0,0,1-1.543,1.119,16.9,16.9,0,0,0-1.8-.206A14.63,14.63,0,0,0,22,31.149a1.351,1.351,0,0,1-.379-2.675A18.027,18.027,0,0,1,25.3,28.35a12.585,12.585,0,0,1,2.089.237M138.961,36.68a1.343,1.343,0,0,1-.016,1.9c-1.246,1.227-2.5,2.507-3.77,3.816a1.347,1.347,0,1,1-1.93-1.879c1.283-1.319,2.547-2.614,3.808-3.853a1.351,1.351,0,0,1,1.042-.387,1.373,1.373,0,0,1,.867.4M32.827,30.046c1.528.553,3.189,1.248,5.08,2.142a1.347,1.347,0,1,1-1.149,2.437c-1.811-.857-3.4-1.524-4.844-2.046a1.348,1.348,0,0,1,.546-2.613,1.59,1.59,0,0,1,.367.08m-14.907.848a1.343,1.343,0,0,1-.531,1.826,22.255,22.255,0,0,0-4.128,2.938,1.346,1.346,0,1,1-1.8-2,25,25,0,0,1,4.627-3.293,1.343,1.343,0,0,1,1.83.532m40.239,3.618a36.7,36.7,0,0,0,.421,5.176,1.345,1.345,0,0,1-1.127,1.532,1.454,1.454,0,0,1-.492-.014c.129.05.249.1.375.152a1.347,1.347,0,0,1-1.021,2.494c-1.738-.71-3.408-1.436-4.991-2.146a1.351,1.351,0,0,1,1.108-2.464c1.3.595,2.669,1.193,4.087,1.779a1.327,1.327,0,0,1-.6-.929,38.266,38.266,0,0,1-.444-5.559A1.338,1.338,0,0,1,56.8,33.176a.826.826,0,0,1,.1,0,1.345,1.345,0,0,1,1.253,1.334m121.436,7.5c1.019,1.483,2,3.062,2.894,4.69a1.347,1.347,0,0,1-2.354,1.31c-.862-1.561-1.788-3.068-2.761-4.478a1.353,1.353,0,0,1,.354-1.875,1.352,1.352,0,0,1,1.868.354m-72.337-3.514a1.345,1.345,0,0,1,.366,1.868,23.158,23.158,0,0,1-3.739,4.31,1.348,1.348,0,0,1-1.795-2.01,20.3,20.3,0,0,0,3.3-3.8,1.358,1.358,0,0,1,1.212-.593,1.331,1.331,0,0,1,.66.228M42.773,34.6c1.451.736,2.858,1.444,4.239,2.079l.587.294a1.344,1.344,0,1,1-1.192,2.41l-.553-.268c-1.376-.635-2.82-1.363-4.3-2.115a1.346,1.346,0,0,1,.7-2.544,1.38,1.38,0,0,1,.519.144m88.629,9.76a1.343,1.343,0,0,1,.031,1.9q-1.861,1.943-3.777,3.878a1.346,1.346,0,1,1-1.917-1.891q1.9-1.928,3.758-3.857a1.366,1.366,0,0,1,1.9-.031M9.558,37.567a1.342,1.342,0,0,1,.282,1.882,30.765,30.765,0,0,0-2.685,4.4,1.349,1.349,0,1,1-2.41-1.212,32.948,32.948,0,0,1,2.93-4.789,1.336,1.336,0,0,1,1.883-.279m175.384,14.06c.745,1.664,1.429,3.387,2.04,5.114a1.365,1.365,0,0,1-.83,1.72,1.347,1.347,0,0,1-1.715-.825c-.585-1.659-1.244-3.313-1.955-4.913a1.349,1.349,0,0,1,.683-1.78,1.3,1.3,0,0,1,.637-.108,1.343,1.343,0,0,1,1.141.792M99.751,46.069a1.354,1.354,0,0,1-.589,1.814,25.063,25.063,0,0,1-5.332,1.959,1.346,1.346,0,1,1-.649-2.612,22.629,22.629,0,0,0,4.759-1.748,1.3,1.3,0,0,1,.7-.142,1.346,1.346,0,0,1,1.112.729M62.314,43.283c1.647.595,3.338,1.154,5.046,1.68a1.347,1.347,0,1,1-.784,2.578c-1.756-.535-3.484-1.118-5.176-1.726a1.346,1.346,0,0,1,.547-2.609,1.106,1.106,0,0,1,.367.077M59.73,44.748a36.065,36.065,0,0,0,1.86,4.843,1.344,1.344,0,0,1-2.43,1.147,38.7,38.7,0,0,1-2.01-5.21,1.348,1.348,0,0,1,2.581-.78m12.753,1.615c1.766.425,3.506.782,5.182,1.054a1.347,1.347,0,0,1-.429,2.659c-1.739-.283-3.549-.649-5.383-1.088a1.347,1.347,0,0,1,.405-2.652,1.3,1.3,0,0,1,.226.027m17.05,2.895a1.348,1.348,0,0,1-1.258,1.436,43.643,43.643,0,0,1-5.555,0h-.007a1.345,1.345,0,0,1-1.254-1.428A1.359,1.359,0,0,1,82.885,48a40.279,40.279,0,0,0,5.211,0c.061-.007.122,0,.183,0a1.352,1.352,0,0,1,1.253,1.253m34.3,2.789a1.341,1.341,0,0,1-.038,1.9q-1.969,1.9-3.995,3.7a1.348,1.348,0,0,1-1.784-2.021c1.318-1.172,2.628-2.383,3.912-3.62a1.349,1.349,0,0,1,1.9.039M4.309,46.935a1.345,1.345,0,0,1,.843,1.711,42.6,42.6,0,0,0-1.368,5.042,1.347,1.347,0,0,1-2.636-.557A47.314,47.314,0,0,1,2.6,47.777a1.361,1.361,0,0,1,1.368-.913,1.675,1.675,0,0,1,.339.07M188.575,62.007l.306,1.222a1.346,1.346,0,0,1-1,1.62,1.332,1.332,0,0,1-1.619-1l-.291-1.179a1.335,1.335,0,0,1,.969-1.63,1.216,1.216,0,0,1,.424-.047,1.341,1.341,0,0,1,1.211,1.012M64.149,54.089a32.142,32.142,0,0,0,3.228,4.023,1.347,1.347,0,1,1-1.953,1.856,33.96,33.96,0,0,1-3.5-4.369,1.348,1.348,0,0,1,.356-1.868,1.325,1.325,0,0,1,.845-.234,1.359,1.359,0,0,1,1.027.592m51.684,5.175a1.355,1.355,0,0,1-.229,1.9c-1.519,1.181-3.015,2.273-4.442,3.219a1.344,1.344,0,1,1-1.493-2.237c1.367-.916,2.805-1.96,4.273-3.108a1.356,1.356,0,0,1,1.891.225m-44.6,2.254c.274.21.555.4.834.6,1.188.822,2.377,1.575,3.552,2.239A1.346,1.346,0,1,1,74.3,66.7c-1.25-.7-2.51-1.5-3.763-2.367-.309-.211-.61-.427-.9-.642a1.347,1.347,0,0,1,.887-2.433,1.426,1.426,0,0,1,.713.256M1.772,57.39a1.357,1.357,0,0,1,1.2,1.481c-.064.635-.116,1.273-.163,1.9Q2.7,62.456,2.69,64.118a1.345,1.345,0,0,1-1.352,1.338A1.323,1.323,0,0,1,0,64.106c0-1.161.039-2.333.123-3.513.042-.664.1-1.332.171-2A1.343,1.343,0,0,1,1.721,57.39a.309.309,0,0,0,.05,0m105.2,8a1.336,1.336,0,0,1-.57,1.815,40.224,40.224,0,0,1-5.088,2.243,1.347,1.347,0,1,1-.9-2.539,37.616,37.616,0,0,0,4.744-2.09,1.368,1.368,0,0,1,.718-.15,1.345,1.345,0,0,1,1.1.721M80.306,66.6a30.39,30.39,0,0,0,4.931,1.479,1.348,1.348,0,0,1,1.047,1.589,1.363,1.363,0,0,1-1.593,1.051A32.965,32.965,0,0,1,79.32,69.1a1.346,1.346,0,0,1,.577-2.6,1.337,1.337,0,0,1,.409.093m16.685,2.732A1.351,1.351,0,0,1,95.9,70.9a30.224,30.224,0,0,1-5.615.45,1.349,1.349,0,0,1,.045-2.7,27.151,27.151,0,0,0,5.1-.409,1.186,1.186,0,0,1,.324-.015,1.352,1.352,0,0,1,1.237,1.108M2.935,69.36a45.3,45.3,0,0,0,.79,5.169,1.346,1.346,0,1,1-2.631.568,48.908,48.908,0,0,1-.843-5.474,1.343,1.343,0,0,1,1.208-1.47.978.978,0,0,1,.226-.005A1.351,1.351,0,0,1,2.935,69.36" transform="translate(0 -0.001)" fill="#1374c4"/>
  </g>
</svg>
