<svg id="Group_849" data-name="Group 849" xmlns="http://www.w3.org/2000/svg" xmlns:xlink="http://www.w3.org/1999/xlink" width="302.5" height="645.108" viewBox="0 0 302.5 645.108">
  <defs>
    <clipPath id="clip-path">
      <rect id="Rectangle_380" data-name="Rectangle 380" width="302.5" height="645.108" fill="none"/>
    </clipPath>
  </defs>
  <rect id="Rectangle_376" data-name="Rectangle 376" width="3.047" height="100.174" transform="translate(122.101 239.886)" fill="#173449"/>
  <g id="Group_848" data-name="Group 848">
    <g id="Group_847" data-name="Group 847" clip-path="url(#clip-path)">
      <path id="Path_7147" data-name="Path 7147" d="M151.35,319.626a9.746,9.746,0,1,0,9.745-9.745,9.741,9.741,0,0,0-9.745,9.745" transform="translate(-37.469 -76.716)" fill="#fbc57a"/>
      <path id="Path_7148" data-name="Path 7148" d="M80.678,727.048h81.933V436.82H80.678a25.363,25.363,0,0,0-25.364,25.361V701.69a25.363,25.363,0,0,0,25.364,25.358" transform="translate(-13.694 -108.142)" fill="#826c8e"/>
      <path id="Path_7149" data-name="Path 7149" d="M81.569,680.635h60.007a15.713,15.713,0,0,0,15.718-15.716V584.909a15.724,15.724,0,0,0-15.718-15.718H81.569a15.72,15.72,0,0,0-15.716,15.718v80.009a15.711,15.711,0,0,0,15.716,15.716" transform="translate(-16.303 -140.913)" fill="#5a62b3"/>
      <rect id="Rectangle_377" data-name="Rectangle 377" width="91.442" height="2.372" transform="translate(49.548 466.387)" fill="#173449"/>
      <path id="Path_7150" data-name="Path 7150" d="M41.184,731.543h5.7V572.464h-5.7a19.932,19.932,0,0,0-19.932,19.929V711.61a19.932,19.932,0,0,0,19.932,19.933" transform="translate(-5.261 -141.723)" fill="#715c7f"/>
      <path id="Path_7151" data-name="Path 7151" d="M50.019,823.037H169.231a.744.744,0,1,0,0-1.487H50.019a.744.744,0,1,0,0,1.487" transform="translate(-12.199 -203.389)" fill="#173449"/>
      <path id="Path_7152" data-name="Path 7152" d="M169.541,835.78a12.418,12.418,0,1,0,12.418-12.415,12.422,12.422,0,0,0-12.418,12.415" transform="translate(-41.973 -203.838)" fill="#fbc57a"/>
      <path id="Path_7153" data-name="Path 7153" d="M181.714,848.7a13.162,13.162,0,1,1,13.163-13.16,13.179,13.179,0,0,1-13.163,13.16m0-24.838a11.676,11.676,0,1,0,11.678,11.678,11.693,11.693,0,0,0-11.678-11.678" transform="translate(-41.728 -203.593)" fill="#173449"/>
      <path id="Path_7154" data-name="Path 7154" d="M178.021,837.881a6.036,6.036,0,1,0,6.038-6.03,6.035,6.035,0,0,0-6.038,6.03" transform="translate(-44.072 -205.939)" fill="#173449"/>
      <path id="Path_7155" data-name="Path 7155" d="M56.41,835.78a12.418,12.418,0,1,0,12.42-12.415A12.422,12.422,0,0,0,56.41,835.78" transform="translate(-13.965 -203.838)" fill="#fbc57a"/>
      <path id="Path_7156" data-name="Path 7156" d="M68.586,848.7a13.162,13.162,0,1,1,13.162-13.16A13.178,13.178,0,0,1,68.586,848.7m0-24.838a11.676,11.676,0,1,0,11.676,11.678,11.692,11.692,0,0,0-11.676-11.678" transform="translate(-13.721 -203.593)" fill="#173449"/>
      <path id="Path_7157" data-name="Path 7157" d="M46.419,595.942q-.666,65.572-.194,131.15a.552.552,0,0,1-1.1,0q-.472-65.572.2-131.15a.551.551,0,0,1,1.1,0" transform="translate(-11.122 -147.405)" fill="#173449"/>
      <path id="Path_7158" data-name="Path 7158" d="M34.724,692.619,33.2,715.243c-.047.709-1.148.715-1.1,0q.764-11.308,1.522-22.624c.052-.705,1.15-.708,1.1,0" transform="translate(-7.946 -171.338)" fill="#173449"/>
      <path id="Path_7159" data-name="Path 7159" d="M92.061,795.745A72,72,0,0,1,72.21,768.871c-.273-.643.676-1.2.953-.551a71.345,71.345,0,0,0,19.676,26.648c.541.46-.238,1.23-.777.776" transform="translate(-17.865 -190.139)" fill="#173449"/>
      <path id="Path_7160" data-name="Path 7160" d="M89.581,779.262a138.35,138.35,0,0,1-9.512-16.7c-.305-.635.647-1.2.953-.556a137.544,137.544,0,0,0,9.51,16.7c.392.6-.561,1.143-.951.558" transform="translate(-19.808 -188.577)" fill="#173449"/>
      <path id="Path_7161" data-name="Path 7161" d="M168.353,503.3a257.112,257.112,0,0,0-24.758-41.9c-.418-.573.536-1.126.949-.554a257,257,0,0,1,24.76,41.894c.3.64-.647,1.2-.951.558" transform="translate(-35.524 -114.032)" fill="#173449"/>
      <path id="Path_7162" data-name="Path 7162" d="M166.728,482.466a63.953,63.953,0,0,0-10.56-17.651c-.454-.54.322-1.326.777-.777a65.493,65.493,0,0,1,10.844,18.137c.26.657-.8.947-1.061.291" transform="translate(-38.628 -114.834)" fill="#173449"/>
      <path id="Path_7163" data-name="Path 7163" d="M144.41,346.555c4.574,8.549,11.806,16.042,21.019,19.06,2.6.85,6.057,1.047,7.472-1.3a6.9,6.9,0,0,0,.584-3.943c-.415-8.409-.851-16.93-3.384-24.964s-7.443-15.66-14.847-19.678a16.956,16.956,0,0,0-10.978-2.159c-3.806.7-8.476,3.7-7.877,8.056a84.393,84.393,0,0,0,4.132,16.009,63.256,63.256,0,0,0,3.879,8.916" transform="translate(-33.755 -77.577)" fill="#173449"/>
      <path id="Path_7164" data-name="Path 7164" d="M222.865,35.628a24.286,24.286,0,0,0,1.827-20.986A20.642,20.642,0,0,0,208.3,1.873c-7.229-.783-14.874,3.211-17.924,9.811C184.344,2.563,172.355-2.3,161.952,1.076c-6.328,2.055-12.255,8.051-10.935,14.572.929,4.577,5.221,7.882,9.754,9.012s9.3.484,13.91-.256,9.313-1.579,13.922-.822c10.6,1.741,18.069,11.25,27.826,15.727,1.572.724,3.351,1.321,5.005.81s2.385-3.05,1.433-4.493" transform="translate(-37.341 0)" fill="#3f9e8c"/>
      <path id="Path_7165" data-name="Path 7165" d="M221.987,30.193a36.786,36.786,0,0,1-18.5-11.11c-5.355-6.025-9.364-14.83-18.164-16.255-.517-.085-.3-.871.217-.788,7.969,1.29,12.234,8.618,16.825,14.425A36.553,36.553,0,0,0,222.2,29.407a.408.408,0,0,1-.214.786" transform="translate(-45.806 -0.504)" fill="#173449"/>
      <path id="Path_7166" data-name="Path 7166" d="M142.126,302.6c-1.363,2.634-4,4.322-6.509,5.9-7.521,4.707-16.451,9.6-24.8,6.594-6.073-2.177-9.97-7.965-13.444-13.4q-6.527-10.215-13.06-20.432c19.7-.552,41.967,9.624,57.812,21.344" transform="translate(-20.873 -69.626)" fill="#3f9e8c"/>
      <path id="Path_7167" data-name="Path 7167" d="M278.548,118.911a134.293,134.293,0,0,1,63.923,44.584c5.867,7.483,11.005,15.76,13.313,24.977s1.518,19.526-3.739,27.45-15.427,12.794-24.621,10.366c9.581,25.611,20.213,51.82,20.778,79.163.241,11.529-1.4,23.684-8.324,32.906-5.968,7.947-15.309,12.852-24.973,15.162-13.811,3.308-29.408,1.351-40.379-7.664-6.816-5.6-11.384-13.413-15.7-21.105q-14.057-25.04-26.688-50.846c-4.685-9.559-9.268-19.353-11.053-29.853-3.426-20.127,3.7-40.378,10.718-59.556,6.432-17.575,13.373-35.912,27.38-48.327,5.811-5.155,16.351-10.106,19.371-17.257" transform="translate(-54.513 -29.438)" fill="#173449"/>
      <path id="Path_7168" data-name="Path 7168" d="M213.354,78.288a12.146,12.146,0,0,1,8.529-6.707c1.907-.377,3.971-.308,5.651-1.286a4.719,4.719,0,0,0,1.263-1.083,4.145,4.145,0,0,0-.8-5.694,5.264,5.264,0,0,1-1.176-6.484,24.563,24.563,0,0,1,2.2-2.524c2.735-3.269,2.509-8.388.1-11.9s-6.6-5.514-10.818-6.082c-2.912-.392-5.92-.175-8.749-.976-9.983-2.818-16.168-15.188-26.529-15.7-4.032-.195-7.847,1.726-11.837,2.357-5.877.928-12.654-.773-17.3,2.948a4.555,4.555,0,0,0-1.238,1.637C147,38.9,156.725,39.067,159.141,44.6c1.378,3.165-.094,7.133,1.625,10.126,1.534,2.673,4.946,3.47,7.98,4.01,10.665,1.9,22.132,4.115,29.574,11.98,1.813,1.919,3.375,4.165,5.661,5.474a17.73,17.73,0,0,0,6.3,1.762,1.161,1.161,0,0,0,1.05-.195c.251-.275,2.311.3,2.021.528" transform="translate(-37.362 -4.911)" fill="#173449"/>
      <path id="Path_7169" data-name="Path 7169" d="M211.02,111.374c-1.583-9.381-1.722-12.33-3.515-21.319-5.937,2.357-13.312,4.433-19.7,2.18-4.422-1.564-4.667-8.268-5.749-12.83a87.063,87.063,0,0,1-1.607-31.446,13.665,13.665,0,0,1,2.072-6.434,10.548,10.548,0,0,1,7.1-3.756,19.977,19.977,0,0,1,15.141,4.415,26.007,26.007,0,0,1,8.489,13.511,6.251,6.251,0,0,1,7.241-5.151c2.341.507,4.195,2.269,5.715,4.123a13.919,13.919,0,0,1,2.239,3.541A8.879,8.879,0,0,1,216.693,69.69c5.042,10.978,11.068,24.2,16.113,35.182l31.29,9.409s-26.977,7.952-52.516,9.363c0,0-14.194,4.192-20.253,1.011Z" transform="translate(-44.488 -9.306)" fill="#ffb39f"/>
      <path id="Path_7170" data-name="Path 7170" d="M229.855,62.422a6.1,6.1,0,0,1,4.679,9.241.407.407,0,0,1-.7-.409,5.287,5.287,0,0,0-3.977-8.016c-.517-.053-.524-.871,0-.816" transform="translate(-56.808 -15.453)" fill="#173449"/>
      <path id="Path_7171" data-name="Path 7171" d="M234.615,67.973a2.558,2.558,0,0,0-1.333,1.009,2.507,2.507,0,0,0-.442,1.667.407.407,0,0,1-.406.409.415.415,0,0,1-.409-.409,3.428,3.428,0,0,1,2.372-3.462.408.408,0,0,1,.217.786" transform="translate(-57.439 -16.629)" fill="#173449"/>
      <path id="Path_7172" data-name="Path 7172" d="M233.449,135.79a6.813,6.813,0,0,1,3.056-3.141.426.426,0,0,1,.559.146.419.419,0,0,1-.147.563,6.061,6.061,0,0,0-2.765,2.845.408.408,0,0,1-.7-.413" transform="translate(-57.782 -32.827)" fill="#173449"/>
      <path id="Path_7173" data-name="Path 7173" d="M227.636,137.615a6.976,6.976,0,0,0-2.521-2.746.408.408,0,0,1,.415-.7,7.77,7.77,0,0,1,2.811,3.035.422.422,0,0,1-.148.563.414.414,0,0,1-.557-.15" transform="translate(-55.682 -33.202)" fill="#173449"/>
      <path id="Path_7174" data-name="Path 7174" d="M203.833,65.559a7.04,7.04,0,0,1-2.257,6.159,3.1,3.1,0,0,1-2.854.7,3.877,3.877,0,0,1-2.046-1.857,28.957,28.957,0,0,1-1.622-3.719c-.2-.485.592-.7.789-.216a25.609,25.609,0,0,0,1.6,3.618,2.419,2.419,0,0,0,2.464,1.439,4.057,4.057,0,0,0,2.493-2.345,6.762,6.762,0,0,0,.625-3.776c-.063-.52.751-.517.813,0" transform="translate(-48.281 -16.134)" fill="#173449"/>
      <path id="Path_7175" data-name="Path 7175" d="M185.974,68.176c-.308,1.853-.8,4.054-2.663,4.948a3.1,3.1,0,0,1-2.438.2,2.945,2.945,0,0,1-1.665-2.06,15,15,0,0,1-.327-1.713c-.113-.694-.225-1.393-.336-2.089-.08-.515.7-.733.786-.216a34.495,34.495,0,0,0,.652,3.749,1.95,1.95,0,0,0,1.918,1.681c2.384-.084,2.976-2.85,3.284-4.712.09-.521.873-.3.788.214" transform="translate(-44.2 -16.574)" fill="#173449"/>
      <path id="Path_7176" data-name="Path 7176" d="M205.792,59.152a15.414,15.414,0,0,0-7.15-3.027A.662.662,0,1,1,199,54.848a16.267,16.267,0,0,1,7.471,3.161.685.685,0,0,1,.236.905.664.664,0,0,1-.91.238" transform="translate(-49.058 -13.576)" fill="#173449"/>
      <path id="Path_7177" data-name="Path 7177" d="M185.217,57.647a18.846,18.846,0,0,0-4.894,1.308.669.669,0,0,1-.82-.464.681.681,0,0,1,.466-.813,19.559,19.559,0,0,1,5.248-1.355.666.666,0,0,1,.666.662.681.681,0,0,1-.666.661" transform="translate(-44.433 -13.943)" fill="#173449"/>
      <path id="Path_7178" data-name="Path 7178" d="M223.595,89.422a21.513,21.513,0,0,1-.328,5.279,8.834,8.834,0,0,1-1.8,4.342,14.882,14.882,0,0,1-3.727,2.7,46.652,46.652,0,0,1-4.864,2.466c-.481.2-.9-.5-.415-.708a45.458,45.458,0,0,0,4.289-2.13,18.215,18.215,0,0,0,3.821-2.576,7.614,7.614,0,0,0,1.878-4.179,20.712,20.712,0,0,0,.327-5.2c-.034-.522.78-.522.814,0" transform="translate(-52.547 -22.041)" fill="#173449"/>
      <path id="Path_7179" data-name="Path 7179" d="M201.57,77.257c.273,1.294,2.117,1.994,4.114,1.566S209.073,77,208.8,75.71s-2.12-1.994-4.117-1.571-3.389,1.823-3.11,3.118" transform="translate(-49.893 -18.324)" fill="#f47471"/>
      <path id="Path_7180" data-name="Path 7180" d="M180.94,80.3a2.21,2.21,0,1,0,1.652-2.8,2.308,2.308,0,0,0-1.652,2.8" transform="translate(-44.78 -19.176)" fill="#f47471"/>
      <path id="Path_7181" data-name="Path 7181" d="M189.72,78.527a3.231,3.231,0,0,0-1.83-.035,1.729,1.729,0,0,0-1.135.984,1.322,1.322,0,0,0,.11,1.34,1.305,1.305,0,0,0,.5.348,1.683,1.683,0,0,0,.728.077,3.463,3.463,0,0,0,.876-.206,4.322,4.322,0,0,0,.854-.441.41.41,0,0,1,.415.707c-1.094.7-2.857,1.236-3.892.145a2.069,2.069,0,0,1-.442-1.979,2.487,2.487,0,0,1,1.381-1.612,3.9,3.9,0,0,1,2.657-.115.408.408,0,0,1-.216.786" transform="translate(-46.002 -19.202)" fill="#173449"/>
      <path id="Path_7182" data-name="Path 7182" d="M197.779,83.259a6.438,6.438,0,0,1,.359,3.219A2.828,2.828,0,0,1,196.57,88.5a4.354,4.354,0,0,1-2.883-.053,5.614,5.614,0,0,1-2.409-1.539c-.354-.385.219-.967.576-.578a4.788,4.788,0,0,0,1.953,1.3,3.845,3.845,0,0,0,2.366.148,2.032,2.032,0,0,0,1.2-1.61,5.825,5.825,0,0,0-.382-2.7.41.41,0,0,1,.791-.217" transform="translate(-47.326 -20.542)" fill="#173449"/>
      <path id="Path_7183" data-name="Path 7183" d="M201.526,90.535a1.561,1.561,0,0,1-1.548,1.173.478.478,0,0,1-.288-.122.428.428,0,0,1-.12-.29.415.415,0,0,1,.409-.406,1.135,1.135,0,0,0,.2-.009c-.037.006-.071.011-.108.015a1.138,1.138,0,0,0,.282-.074c-.036.014-.064.023-.1.038a1.221,1.221,0,0,0,.269-.153,1.022,1.022,0,0,0-.085.062,1.259,1.259,0,0,0,.21-.205c-.025.029-.044.053-.066.084a1.187,1.187,0,0,0,.149-.254c-.012.032-.029.067-.041.1a.824.824,0,0,0,.053-.165.408.408,0,1,1,.788.211" transform="translate(-49.407 -22.286)" fill="#173449"/>
      <path id="Path_7184" data-name="Path 7184" d="M193.238,813.334l-.2,31.308-73.363-.469s5.53-25.24,28.506-15.477l7.284-19.634Z" transform="translate(-29.627 -200.297)" fill="#fff"/>
      <path id="Path_7185" data-name="Path 7185" d="M119.4,844.592l-.793-.007.169-.773c.109-.479,2.682-11.829,11.534-16.395,4.87-2.516,10.66-2.445,17.237.21l7.226-19.483,38.848,4.388-.211,32.536Zm36.226-35.06-7.344,19.8-.621-.267c-6.448-2.749-12.092-2.914-16.757-.5-7.023,3.621-9.925,12.137-10.668,14.748l71.9.464.192-30.094Z" transform="translate(-29.364 -200.07)" fill="#173449"/>
      <rect id="Rectangle_378" data-name="Rectangle 378" width="1.289" height="70.347" transform="translate(93.108 636.85) rotate(-89.598)" fill="#173449"/>
      <path id="Path_7186" data-name="Path 7186" d="M197.289,842.728c3.236-10.809,14.579-9.475,14.687-9.451l.169-1.271c-.131-.016-12.544-1.479-16.089,10.349Z" transform="translate(-48.537 -205.961)" fill="#173449"/>
      <path id="Path_7187" data-name="Path 7187" d="M159.874,827.858a44.4,44.4,0,0,0,8.448,4.72,1.108,1.108,0,0,1,.749,1.317,1.078,1.078,0,0,1-1.32.749,46.84,46.84,0,0,1-8.96-4.934,1.107,1.107,0,0,1-.387-1.468,1.088,1.088,0,0,1,1.47-.384" transform="translate(-39.181 -204.912)" fill="#173449"/>
      <path id="Path_7188" data-name="Path 7188" d="M161.912,821.311a70.452,70.452,0,0,0,9.318,4.832,1.08,1.08,0,0,1,.381,1.468,1.1,1.1,0,0,1-1.466.384,71.614,71.614,0,0,1-9.317-4.829c-1.176-.722-.1-2.573,1.084-1.855" transform="translate(-39.69 -203.289)" fill="#173449"/>
      <path id="Path_7189" data-name="Path 7189" d="M167.73,343.754a1150.8,1150.8,0,0,1-3.071,298.134c-2.15,15.2-5.925,40.672-8.381,55.83,17.733,4.53,36.142,8.229,54.393,6.819,13.01-61.794,20.358-136.981,18.2-200.1-1.767-51.728-.638-103.936-2.4-155.669-14.815-7.945-42.033-6.894-58.739-5.019" transform="translate(-38.689 -84.772)" fill="#e07d32"/>
      <path id="Path_7190" data-name="Path 7190" d="M204.386,648.254A135.25,135.25,0,0,0,193,613.921c-.267-.546.552-1.035.82-.483A136.427,136.427,0,0,1,205.306,648c.11.6-.8.857-.92.251" transform="translate(-47.768 -151.807)" fill="#173449"/>
      <path id="Path_7191" data-name="Path 7191" d="M195.622,637.987a24.366,24.366,0,0,0-2.716-9.407c-.284-.548.536-1.03.821-.484a25.524,25.524,0,0,1,2.846,9.891c.047.61-.905.6-.951,0" transform="translate(-47.743 -155.436)" fill="#173449"/>
      <path id="Path_7192" data-name="Path 7192" d="M225.125,411.646q-4.854-3.657-9.715-7.326c-.484-.365-.009-1.191.483-.819q4.852,3.655,9.716,7.326c.479.36.007,1.182-.484.819" transform="translate(-53.278 -99.87)" fill="#173449"/>
      <path id="Path_7193" data-name="Path 7193" d="M206.863,395.36a10.664,10.664,0,0,1-4.613-5.73c-.193-.585.726-.835.92-.255a9.644,9.644,0,0,0,4.177,5.165.476.476,0,0,1-.484.819" transform="translate(-50.064 -96.315)" fill="#173449"/>
      <path id="Path_7194" data-name="Path 7194" d="M349.38,813.432v31.315H276.015s5.37-25.274,28.409-15.654l7.156-19.684Z" transform="translate(-68.332 -200.383)" fill="#fff"/>
      <path id="Path_7195" data-name="Path 7195" d="M275.126,844.382c.105-.478,2.6-11.837,11.426-16.458,4.855-2.554,10.653-2.519,17.232.094l7.105-19.528,38.874,4.134v32.541h-74.8Zm73.351-30.6-36.724-3.9-7.217,19.832-.625-.26c-6.467-2.7-12.107-2.834-16.758-.4-7,3.67-9.843,12.2-10.567,14.821h71.89Z" transform="translate(-68.072 -200.155)" fill="#173449"/>
      <rect id="Rectangle_379" data-name="Rectangle 379" width="70.345" height="1.289" transform="translate(210.702 636.051)" fill="#173449"/>
      <path id="Path_7196" data-name="Path 7196" d="M316.046,828.246a44.154,44.154,0,0,0,8.48,4.664,1.121,1.121,0,0,1,.748,1.326,1.077,1.077,0,0,1-1.317.748,46.828,46.828,0,0,1-8.995-4.888,1.072,1.072,0,0,1,1.084-1.85" transform="translate(-77.843 -205.009)" fill="#173449"/>
      <path id="Path_7197" data-name="Path 7197" d="M318.04,821.7a69.323,69.323,0,0,0,9.093,4.653,1.119,1.119,0,0,1,.749,1.323,1.085,1.085,0,0,1-1.319.75,73.118,73.118,0,0,1-9.6-4.882,1.069,1.069,0,0,1,1.081-1.844" transform="translate(-78.342 -203.385)" fill="#173449"/>
      <path id="Path_7198" data-name="Path 7198" d="M226,364.6c29.666,95.149,57.037,194.21,61.229,293.787.643,15.334.98,30.681,1.318,46.023,18.262,1.242,37.033,1.537,54.726-3.158,1.583-63.128-9.208-127.37-22.778-189.041q-16.685-75.827-33.368-151.657c-16.01-5.132-45.036-.825-61.126,4.046" transform="translate(-55.951 -88.686)" fill="#e07d32"/>
      <path id="Path_7199" data-name="Path 7199" d="M251.766,471.543c-4.544-15.706-9.062-31.5-14.446-46.948-4.776-13.7-11.111-27.228-22.745-36.418-.482-.376.2-1.045.673-.666,11.054,8.724,17.4,21.4,22.124,34.4,5.873,16.171,10.533,32.86,15.312,49.386a.476.476,0,0,1-.919.248" transform="translate(-53.081 -95.907)" fill="#173449"/>
      <path id="Path_7200" data-name="Path 7200" d="M277.934,371.589a38.445,38.445,0,0,0,29.22,24.942c.6.106.345,1.022-.253.917a39.421,39.421,0,0,1-29.887-25.6c-.2-.576.719-.824.92-.255" transform="translate(-68.573 -91.913)" fill="#173449"/>
      <path id="Path_7201" data-name="Path 7201" d="M307.358,403.436a1096.959,1096.959,0,0,1,40.338,239.5q1.93,34.693,1.645,69.468a.475.475,0,0,1-.95,0,1095.269,1095.269,0,0,0-25.168-242.1q-7.336-33.56-16.782-66.618a.476.476,0,0,1,.917-.25" transform="translate(-75.859 -99.795)" fill="#173449"/>
      <path id="Path_7202" data-name="Path 7202" d="M296.632,563.064q6.328,6.644,12.663,13.292c.423.443-.251,1.115-.675.67q-6.332-6.644-12.663-13.289c-.423-.44.25-1.111.675-.674" transform="translate(-73.236 -139.361)" fill="#173449"/>
      <path id="Path_7203" data-name="Path 7203" d="M321.79,587.887l4.407,3.656a.476.476,0,0,1-.673.673l-4.409-3.658a.481.481,0,0,1,0-.672.49.49,0,0,1,.675,0" transform="translate(-79.463 -145.508)" fill="#173449"/>
      <path id="Path_7204" data-name="Path 7204" d="M306.726,605.33q11.895,13.139,23.79,26.276c.41.454-.26,1.132-.674.674L306.051,606c-.409-.451.262-1.126.675-.672" transform="translate(-75.736 -149.822)" fill="#173449"/>
      <path id="Path_7205" data-name="Path 7205" d="M156.266,302.735c-1.828-23.847-7.742-47.111-9.968-70.915-1.7-18.064-1.141-37.068,4.869-54.18,6.842-19.485,22.334-27.693,39.007-35.808,16.748,8.816,38.386,4.5,51.3-10.216,8.11,4.034,17.026,5.591,25.526,8.492s17.046,7.58,21.832,15.87c3.432,5.943,4.577,13.124,5.281,20.136,4.407,43.7-12.546,133.463-12.546,133.463s-87.138,8.906-125.3-6.841" transform="translate(-36.012 -32.584)" fill="#3f9e8c"/>
      <path id="Path_7206" data-name="Path 7206" d="M238.272,159.488q12.737-10.875,25.168-22.1c6.383-5.764,13.166-12.539,13.53-21.135a16.983,16.983,0,0,0-12.245-16.6c-3.216-.85-6.735-.74-9.674-2.3-2.919-1.551-4.976-4.609-8.141-5.55-4.032-1.2-8.277,1.564-10.672,5.024s-3.589,7.612-5.768,11.208a23.82,23.82,0,0,1-15.217,10.831c-3.5-4.481-8.53-8.487-14.122-7.465-3.119.569-5.6,2.948-8.614,3.947-1.528.5-3.193.655-4.592,1.446-3.1,1.74-3.84,5.971-3.13,9.455,2.094,10.169,12.44,15.991,19.607,23.5,4.436,4.644,8.325,10.582,14.551,12.154,5.786,1.464,11.8-1.375,17.766-1.1.312-.86,1.992-.511,1.552-1.318" transform="translate(-45.687 -22.657)" fill="#3f9e8c"/>
      <path id="Path_7207" data-name="Path 7207" d="M159.395,302.99h48.454L148.057,201.608H99.6Z" transform="translate(-24.658 -49.912)" fill="#ddbd64"/>
      <path id="Path_7208" data-name="Path 7208" d="M119.663,270.265,149.556,294.9l-59.8-101.388L59.869,168.885Z" transform="translate(-14.822 -41.81)" fill="#ffca83"/>
      <path id="Path_7209" data-name="Path 7209" d="M103.069,280.3l12.449-10.048L55.725,168.861,43.277,178.915Z" transform="translate(-10.714 -41.804)" fill="#ddbd64"/>
      <path id="Path_7210" data-name="Path 7210" d="M59.795,247.069l32.552,27.483L32.554,173.172,0,145.687Z" transform="translate(0 -36.067)" fill="#ffca83"/>
      <path id="Path_7211" data-name="Path 7211" d="M205.637,309.218a13.326,13.326,0,0,0-6.447-7.17c-2.934-1.421-6.092-1.421-9.275-1.542-4.8-.193-8.586-1.382-11.468-5.417-1.508-2.1-2.632-4.447-4.188-6.512a19.544,19.544,0,0,0-7.486-5.665c-5.4-2.573-12.84-6.113-18.459-2.345-.508.341-.987-.482-.482-.825,4.963-3.326,10.977-1.266,16.01.843,5.776,2.419,9.974,5.153,13.235,10.555,1.937,3.212,3.844,6.493,7.636,7.7,3.317,1.062,6.9.539,10.313,1a14.276,14.276,0,0,1,11.53,9.119c.223.569-.7.82-.919.25" transform="translate(-36.545 -68.821)" fill="#173449"/>
      <path id="Path_7212" data-name="Path 7212" d="M171.134,230.429c-1.956,4.615-7.782,4.468-11.514,2.338a22.185,22.185,0,0,1-3.368-2.442c-1.292-1.1-2.69-2.873-4.527-2.891-1.613-.013-2.99,1.172-4.439,1.717a6.692,6.692,0,0,1-3.2.424c-5.15-.616-8.371-6-9.626-10.529a22,22,0,0,1-.622-8.551,21.275,21.275,0,0,1,.877-3.987c.188-.576,2.014-4.156,1.011-4.412a.476.476,0,0,1,.254-.916c1.467.365,1.073,2.02.663,3.071a24.208,24.208,0,0,0-2.017,8.508c-.111,5.556,2.013,12.569,7.375,15.2a6.114,6.114,0,0,0,4.509.466c1.25-.378,2.312-1.18,3.541-1.6,2.295-.8,3.88.2,5.565,1.688,2.206,1.944,4.566,4.029,7.533,4.661,2.8.592,5.99-.452,7.156-3.22.239-.564,1.061-.076.826.482" transform="translate(-33.093 -49.801)" fill="#173449"/>
      <path id="Path_7213" data-name="Path 7213" d="M196.894,271.011a20.523,20.523,0,0,1-10.5-1.2c-.563-.222-.318-1.144.253-.918a19.656,19.656,0,0,0,10,1.2c.6-.087.86.835.254.918" transform="translate(-46.065 -66.561)" fill="#173449"/>
      <path id="Path_7214" data-name="Path 7214" d="M169.814,263.659a21.1,21.1,0,0,0-6.387-5.653.479.479,0,0,1,.48-.828,22.317,22.317,0,0,1,6.725,6,.468.468,0,0,1-.169.651.483.483,0,0,1-.649-.17" transform="translate(-40.402 -63.652)" fill="#173449"/>
      <path id="Path_7215" data-name="Path 7215" d="M140.7,248.082a22.183,22.183,0,0,0-10.2-5.159c-.6-.122-.347-1.046.253-.919a23.191,23.191,0,0,1,10.621,5.406c.454.409-.22,1.084-.674.672" transform="translate(-32.222 -59.909)" fill="#173449"/>
      <path id="Path_7216" data-name="Path 7216" d="M115.872,240.933q-2.063,1.027-4.132,2.049a.474.474,0,1,1-.478-.818c1.378-.68,2.752-1.37,4.129-2.05a.486.486,0,0,1,.65.169.475.475,0,0,1-.169.651" transform="translate(-27.487 -59.43)" fill="#173449"/>
      <path id="Path_7217" data-name="Path 7217" d="M92.507,277.605c1.175-2.066-2.828-4.44-4.152-5.38a45.313,45.313,0,0,0-5.889-3.57,46.488,46.488,0,0,0-13.091-4.365c-.6-.111-.342-1.03.254-.924a47.26,47.26,0,0,1,21.5,9.768c1.43,1.157,3.317,2.984,2.2,4.953a.476.476,0,0,1-.82-.482" transform="translate(-17.091 -65.199)" fill="#173449"/>
      <path id="Path_7218" data-name="Path 7218" d="M210.887,283.187c-4.916-2.886-8.947-7.168-14.057-9.694-6.33-3.123-13.65-3.25-20.679-3.847s-14.493-1.963-19.6-6.84c-1.158-1.1-2.068-3.226-.713-4.078a2.873,2.873,0,0,1,2.2-.082c1.642.388,3.057.765,4.7,1.148a25.889,25.889,0,0,1-15.324-11.9c-.713-1.238-1.171-3.107.049-3.838.97-.579,2.181.1,3.095.762,1.625,1.165,2.957,2.263,4.576,3.424.072.376.14.754.208,1.131a20.588,20.588,0,0,1-6.927-8.961,7.305,7.305,0,0,1-.642-3.72,3.249,3.249,0,0,1,2.3-2.753,2.43,2.43,0,0,1,2.736,2.27,9.363,9.363,0,0,1-.758-3.384,3.382,3.382,0,0,1,1.575-2.937,3.8,3.8,0,0,1,3.981.744c3.244,2.583,3.624,7.414,6.2,10.651,2.344,2.955,6.168,4.22,9.8,5.208a8.126,8.126,0,0,0,3.326.413,2.855,2.855,0,0,0,2.429-2.04c.216-1.114-.488-2.188-1.123-3.128a55.016,55.016,0,0,1-5.907-11.476c2.688.278,5.01,1.933,7.121,3.611,10.089,8.022,18.73,18.058,30.069,24.183,3.714,7.65,4.521,17.245,1.355,25.133" transform="translate(-36.321 -56.837)" fill="#ffb39f"/>
      <path id="Path_7219" data-name="Path 7219" d="M181.269,244.749c-1.055,2.515-3.98,2.971-6.415,2.664a13.6,13.6,0,0,1-8.609-4.772c-2.181-2.566-3.588-5.652-5.089-8.642-.786-1.567-1.91-4.016-3.952-4.086-3.087-.1-2.857,3.906-2.166,5.816.179.494-.607.7-.788.215a6.025,6.025,0,0,1-.062-4.933,3.429,3.429,0,0,1,3.016-1.916c3.071.087,4.461,4.114,5.584,6.362,1.677,3.354,3.524,6.842,6.676,9.043a12.346,12.346,0,0,0,5.875,2.159c1.868.165,4.319-.169,5.142-2.123.2-.478.991-.269.788.214" transform="translate(-38.047 -56.716)" fill="#173449"/>
      <path id="Path_7220" data-name="Path 7220" d="M168.217,255.219c-5.967-3.214-9.914-8.9-13.382-14.538-.794-1.281-1.849-3.848-3.637-3.865-1.386-.012-2.14,1.474-2.19,2.664a8.379,8.379,0,0,0,.536,2.9,20.159,20.159,0,0,0,5.919,8.247c3.223,2.931,6.84,5.444,10.306,8.068.415.313.009,1.023-.409.7-3.387-2.561-6.9-5.016-10.081-7.838a21.846,21.846,0,0,1-6.411-8.643c-.6-1.665-1.126-3.8-.131-5.426a2.792,2.792,0,0,1,3.5-1.259c1.5.665,2.3,2.408,3.1,3.727,1.046,1.705,2.117,3.407,3.275,5.042a30.046,30.046,0,0,0,10.005,9.518c.464.253.05.95-.41.7" transform="translate(-36.685 -58.428)" fill="#173449"/>
      <path id="Path_7221" data-name="Path 7221" d="M149.117,248.44c-1.318-1.113-2.649.552-2.632,1.829a5.787,5.787,0,0,0,1.612,3.378,34.16,34.16,0,0,0,4.69,4.806,34.587,34.587,0,0,0,12.07,6.57c.5.157.287.941-.216.791a35.664,35.664,0,0,1-14.631-8.806,33.692,33.692,0,0,1-2.835-3.216,6.234,6.234,0,0,1-1.5-3.384c-.1-2.106,2.109-4.154,4.026-2.542.4.337-.18.911-.578.574" transform="translate(-36.062 -61.22)" fill="#173449"/>
      <path id="Path_7222" data-name="Path 7222" d="M204.562,286.188c-3.32-2.472-7.485-4-11.389-5.271a31.408,31.408,0,0,0-6.043-1.5c-3.044-.347-6.165-.106-9.226-.251a28.85,28.85,0,0,1-14.973-4.6c-2.248-1.5-6.838-5.23-3.189-7.812.429-.31.834.406.409.7-.187,1-.375,2-.564,3a5.237,5.237,0,0,0,.986,1.235,13.006,13.006,0,0,0,1.309,1.1,25.559,25.559,0,0,0,3.038,2.048,26.207,26.207,0,0,0,6.787,2.7c5.174,1.26,10.422.426,15.636,1.08a40.36,40.36,0,0,1,9.262,2.653,34.81,34.81,0,0,1,8.37,4.208c.418.307.01,1.016-.413.7" transform="translate(-39.209 -66.021)" fill="#173449"/>
      <path id="Path_7223" data-name="Path 7223" d="M157.281,230.184a6.15,6.15,0,0,1,1.065,3.941,2.644,2.644,0,0,1-2.216,2.235.408.408,0,0,1-.406-.4.413.413,0,0,1,.406-.408,1.913,1.913,0,0,0,1.448-1.752,5.669,5.669,0,0,0-1-3.2c-.248-.464.458-.876.705-.413" transform="translate(-38.552 -56.936)" fill="#173449"/>
      <path id="Path_7224" data-name="Path 7224" d="M150.8,237.19c.954,1.3,1.991,2.811,1.89,4.494a3.249,3.249,0,0,1-2.229,3.059.41.41,0,0,1-.216-.79,2.472,2.472,0,0,0,1.633-2.548,7.069,7.069,0,0,0-1.782-3.8c-.313-.43.4-.838.7-.419" transform="translate(-37.124 -58.677)" fill="#173449"/>
      <path id="Path_7225" data-name="Path 7225" d="M147.156,248.844a4.252,4.252,0,0,1,2.087,5.548.41.41,0,0,1-.557.152.418.418,0,0,1-.147-.556,3.46,3.46,0,0,0-1.8-4.442.4.4,0,0,1-.145-.55.419.419,0,0,1,.558-.151" transform="translate(-36.28 -61.594)" fill="#173449"/>
      <path id="Path_7226" data-name="Path 7226" d="M160.244,268.265a2.821,2.821,0,0,1,.839,3.745c-.278.44-.981.035-.707-.412a1.483,1.483,0,0,0,.105-.181.787.787,0,0,0,.06-.132,2.659,2.659,0,0,0,.1-.4c-.007.052,0-.018,0-.039a.482.482,0,0,0,.011-.105c0-.064.006-.14,0-.2a1.35,1.35,0,0,0-.041-.348,1.885,1.885,0,0,0-.279-.7,1.811,1.811,0,0,0-.5-.516.42.42,0,0,1-.145-.558.412.412,0,0,1,.558-.151" transform="translate(-39.519 -66.4)" fill="#173449"/>
      <path id="Path_7227" data-name="Path 7227" d="M168.747,273.736c-.085.175-.171.342-.256.518a.412.412,0,0,1-.245.184.426.426,0,0,1-.316-.034.454.454,0,0,1-.188-.245c0-.041-.008-.074-.014-.11a.436.436,0,0,1,.056-.208c.088-.17.173-.341.258-.518a.437.437,0,0,1,.245-.185.373.373,0,0,1,.315.047.377.377,0,0,1,.187.245c.005.03.008.062.017.1a.388.388,0,0,1-.059.2" transform="translate(-41.524 -67.616)" fill="#173449"/>
      <path id="Path_7228" data-name="Path 7228" d="M167.11,272.974c-.088.254-.173.517-.257.771a.454.454,0,0,1-.187.246.446.446,0,0,1-.316.04.4.4,0,0,1-.242-.189.39.39,0,0,1-.043-.311l.257-.772a.412.412,0,0,1,.5-.29.4.4,0,0,1,.245.192.409.409,0,0,1,.043.314" transform="translate(-41.108 -67.451)" fill="#173449"/>
      <path id="Path_7229" data-name="Path 7229" d="M159.331,261.214v.521a.425.425,0,0,1-.117.285.446.446,0,0,1-.288.124.41.41,0,0,1-.29-.124.415.415,0,0,1-.117-.285v-.521a.405.405,0,0,1,.7-.282.412.412,0,0,1,.117.282" transform="translate(-39.244 -64.568)" fill="#173449"/>
      <path id="Path_7230" data-name="Path 7230" d="M157.215,260.257a.407.407,0,0,1,0-.814.407.407,0,0,1,0,.814" transform="translate(-38.824 -64.229)" fill="#173449"/>
      <path id="Path_7231" data-name="Path 7231" d="M162.694,255.458a.407.407,0,0,1,0-.813.407.407,0,0,1,0,.813" transform="translate(-40.18 -63.042)" fill="#173449"/>
      <path id="Path_7232" data-name="Path 7232" d="M161.212,253.532c-.085.175-.171.343-.257.512a.418.418,0,0,1-.244.191.457.457,0,0,1-.314-.041.419.419,0,0,1-.188-.242c-.006-.043-.011-.077-.015-.112a.463.463,0,0,1,.056-.21c.087-.169.173-.341.258-.509a.423.423,0,0,1,.245-.194.431.431,0,0,1,.315.047.385.385,0,0,1,.187.242c0,.035.01.072.016.112a.418.418,0,0,1-.057.2" transform="translate(-39.658 -62.614)" fill="#173449"/>
      <path id="Path_7233" data-name="Path 7233" d="M169.024,250.8c-.172.26-.344.515-.516.778a.429.429,0,0,1-.242.184.442.442,0,0,1-.313-.039.409.409,0,0,1-.19-.245.414.414,0,0,1,.044-.319c.169-.255.339-.512.512-.772a.429.429,0,0,1,.245-.185.376.376,0,0,1,.315.047.39.39,0,0,1,.187.242.381.381,0,0,1-.041.309" transform="translate(-41.529 -61.937)" fill="#173449"/>
      <path id="Path_7234" data-name="Path 7234" d="M167.274,248.718l-.526.768a.457.457,0,0,1-.242.185.422.422,0,0,1-.316-.041.4.4,0,0,1-.144-.557l.524-.766a.444.444,0,0,1,.245-.187.4.4,0,0,1,.315.041.4.4,0,0,1,.188.244.391.391,0,0,1-.043.312" transform="translate(-41.093 -61.423)" fill="#173449"/>
      <path id="Path_7235" data-name="Path 7235" d="M230.438,232.665c-.638.98-2.106.935-3.211.533s-2.921-1.334-4.086-1.172c-2.764,10.627-4.92,16.205-3.77,26.085.11.968,4.829,5.667,5.349,6.478a5.918,5.918,0,0,0,1.749,1.633,36.753,36.753,0,0,0,5.694,3.249c2.853,4.272,8.5,6.384,13.383,7.992s10.042,2.173,15.135,2.882c18.673,2.61,37.485,7.4,56.139,4.676,5.7-.837,11.463-2.455,15.966-6.041,8-6.386,10.351-17.547,10.522-27.788.331-20.049-5.569-39.69-12.924-58.341-4.089-10.378-8.749-20.735-16.054-29.149s-17.666-14.767-28.811-14.976a16.893,16.893,0,0,0-8.423,1.718c-4.471,2.437-6.831,7.517-8.05,12.456a45.679,45.679,0,0,0,2.868,29.842c4.387,9.477,12.116,17.669,13.635,28,.2,1.337.2,2.922-.846,3.782-2.44,2.017-6.356-2.515-8.99-.743-2.553,1.7-.74,7.44-3.8,7.718a3.179,3.179,0,0,1-1.65-.418c-4.8-2.38-7.854-7.942-13.1-9.043-9-1.9-17.687,12.359-26.726,10.628" transform="translate(-54.23 -36.818)" fill="#3f9e8c"/>
      <path id="Path_7236" data-name="Path 7236" d="M218.918,280.705a70.329,70.329,0,0,1,2.8-19.271c.719-2.454,1.926-4.134,4.626-4.372a21.76,21.76,0,0,1,4.29.275c1.248.132,3.378-.054,4.494.625.911.553.758,1.5.682,2.433-.176,2.09-.4,4.179-.646,6.26q-.633,5.37-1.532,10.7-.47,2.787-1.014,5.566a21.237,21.237,0,0,1-1.246,4.829,6.121,6.121,0,0,1-4.977,3.46c-5.871.68-9.074-5.549-7.461-10.61.156-.5.943-.285.787.216-1.44,4.524,1.284,10.22,6.618,9.576,2.86-.342,4.328-2.35,4.947-5.032.652-2.815,1.135-5.685,1.61-8.534.5-2.959.933-5.937,1.3-8.915.177-1.457.345-2.92.5-4.378.062-.62.125-1.248.184-1.879a7.277,7.277,0,0,0,.191-2.305c-.433-1.294-3.291-1.074-4.435-1.2a25.82,25.82,0,0,0-3.84-.295,3.953,3.953,0,0,0-3.573,1.872,17.159,17.159,0,0,0-1.26,3.919,69.014,69.014,0,0,0-2.232,17.061.406.406,0,0,1-.813,0" transform="translate(-54.098 -63.631)" fill="#173449"/>
      <path id="Path_7237" data-name="Path 7237" d="M231.954,292.655a16.056,16.056,0,0,1-12.429-3.523c-.409-.315,0-1.021.413-.7,3.37,2.589,7.516,4.161,11.8,3.436.515-.087.734.7.217.789" transform="translate(-54.305 -71.386)" fill="#173449"/>
      <path id="Path_7238" data-name="Path 7238" d="M234.287,280.9c-4,1.068-9.157,1.545-12.531-1.353-.4-.335.179-.916.579-.567,3.126,2.676,8.056,2.114,11.735,1.137a.407.407,0,0,1,.217.783" transform="translate(-54.866 -69.039)" fill="#173449"/>
      <path id="Path_7239" data-name="Path 7239" d="M236.2,265.847c-4.323-.529-8.891.609-12.912-1.522-.461-.244-.053-.945.412-.7,3.858,2.043,8.349.9,12.5,1.411.514.059.518.877,0,.813" transform="translate(-55.229 -65.252)" fill="#173449"/>
      <path id="Path_7240" data-name="Path 7240" d="M240.338,256.032c1.067-4.776,5.831-7.8,10.48-8.432,3.762-.512,7.611.609,11.33,1,4.627.494,8.512-.592,12.867-1.923,14.975-4.551,27.692,4.936,38.641,14,.4.338-.175.913-.576.582-10.711-8.869-23.137-18.256-37.848-13.786a44.24,44.24,0,0,1-7.708,2.037,34.477,34.477,0,0,1-8.843-.575c-6.463-.946-15.741-.8-17.556,7.314-.116.512-.9.3-.786-.216" transform="translate(-59.497 -60.778)" fill="#173449"/>
      <path id="Path_7241" data-name="Path 7241" d="M323.686,253.993a23.339,23.339,0,0,1,12.666-2.363c.517.052.52.865,0,.818a22.559,22.559,0,0,0-12.258,2.248c-.466.232-.879-.469-.409-.7" transform="translate(-80.082 -62.269)" fill="#173449"/>
      <path id="Path_7242" data-name="Path 7242" d="M316.333,164.844a33.27,33.27,0,0,0-12.278,23.746c-.032.522-.849.522-.816,0a34.053,34.053,0,0,1,12.517-24.322c.4-.329.986.251.577.576" transform="translate(-75.072 -40.643)" fill="#173449"/>
      <path id="Path_7243" data-name="Path 7243" d="M301.611,207.528a80.748,80.748,0,0,0-1.826,28.763c.06.515-.758.515-.817,0a81.373,81.373,0,0,1,1.855-28.977.409.409,0,0,1,.789.214" transform="translate(-73.88 -51.252)" fill="#173449"/>
      <path id="Path_7244" data-name="Path 7244" d="M308.983,324.063c-16.442-1.177-33.548-1.177-49.707-4.667-10.533-2.274-24.836-7.353-26.015-19.9-.048-.525.766-.518.817,0,1.318,14.04,19.564,18.364,30.911,20.111,14.49,2.237,29.38,2.584,43.994,3.639.52.036.526.854,0,.813" transform="translate(-57.747 -74.049)" fill="#173449"/>
      <path id="Path_7245" data-name="Path 7245" d="M238.728,282.842a31.924,31.924,0,0,0,17.611,2.66c.515-.076.735.711.219.782a32.957,32.957,0,0,1-18.241-2.733c-.475-.22-.062-.922.412-.709" transform="translate(-58.947 -70.012)" fill="#173449"/>
      <path id="Path_7246" data-name="Path 7246" d="M240.156,267.444a11.078,11.078,0,0,1,4.3-2.165c.509-.12.728.661.217.79a10.116,10.116,0,0,0-3.944,1.951.419.419,0,0,1-.576,0,.411.411,0,0,1,0-.576" transform="translate(-59.425 -65.671)" fill="#173449"/>
      <path id="Path_7247" data-name="Path 7247" d="M238.979,283.833a34.418,34.418,0,0,0,4.329,6.262c.341.394-.232.976-.578.576a35.531,35.531,0,0,1-4.458-6.421c-.25-.462.456-.874.707-.417" transform="translate(-58.975 -70.218)" fill="#173449"/>
      <path id="Path_7248" data-name="Path 7248" d="M273.4,140.264q-13.018,6.32-26.035,12.642c-4.114,2.014-8.222,4.063-12.153,6.421-3.205,1.921-6.212,4.33-9.69,5.752-7,2.844-14.77-.749-21.2-3.61-6.366-2.838-12.218-7.244-13.51-14.471-.094-.512.7-.732.785-.215,1.56,8.725,9.607,12.678,17.1,15.585,3.859,1.491,8.078,3.286,12.3,2.977,4.12-.3,7.465-2.68,10.809-4.846,12.837-8.325,27.444-14.268,41.178-20.938.473-.232.886.47.413.7" transform="translate(-47.236 -34.539)" fill="#173449"/>
      <path id="Path_7249" data-name="Path 7249" d="M240.393,102.254c-1.924,3.883-3.508,8-6.083,11.516-2.6,3.551-5.819,4.99-9.713,6.726-4.922,2.188-7.6,6.483-10.034,11.07a111.99,111.99,0,0,0-7.035,16.311c-.172.492-.959.278-.788-.222a113.557,113.557,0,0,1,6.331-14.987c2.094-4.1,4.293-8.376,8.074-11.191,1.9-1.412,4.186-2.09,6.308-3.065a15.024,15.024,0,0,0,5.415-4.1c3.047-3.658,4.732-8.249,6.821-12.466.232-.471.936-.055.705.412" transform="translate(-51.176 -25.161)" fill="#173449"/>
      <path id="Path_7250" data-name="Path 7250" d="M258.945,125.5a30.011,30.011,0,0,0,13.976-11.712c1.047-1.66,2.431-3.764,2.647-5.73.1-.922-.2-2.345-1.568-2.11-.663.114-1.266.98-1.684,1.458-.75.854-1.492,1.71-2.239,2.567-.728.838-2.066,2.561-3.317,1.47-1.153-1.009-.4-3.388-.174-4.61a34.072,34.072,0,0,1,2.081-6.91c.2-.48.99-.269.789.216a33.788,33.788,0,0,0-2.166,7.381,7.764,7.764,0,0,0-.281,2.133q-.13.918,1.09,1.163a3.67,3.67,0,0,0,.761-.686c.9-.917,1.709-1.962,2.555-2.931.96-1.1,2.354-2.877,3.97-1.742,1.513,1.066,1.058,3.034.467,4.475a30.684,30.684,0,0,1-16.695,16.359c-.485.2-.7-.594-.214-.791" transform="translate(-64.039 -24.671)" fill="#173449"/>
      <path id="Path_7251" data-name="Path 7251" d="M201.848,136.65a35.506,35.506,0,0,1-6.485-11.94c-.156-.5.632-.714.789-.214a34.448,34.448,0,0,0,6.272,11.578c.333.4-.24.982-.576.576" transform="translate(-48.36 -30.751)" fill="#173449"/>
      <path id="Path_7252" data-name="Path 7252" d="M202.171,126.754a8.083,8.083,0,0,1-1.251-4.254.407.407,0,0,1,.814,0,7.294,7.294,0,0,0,1.141,3.843c.282.452-.426.859-.705.411" transform="translate(-49.741 -30.23)" fill="#173449"/>
      <path id="Path_7253" data-name="Path 7253" d="M286.249,178.026c-4.935,13.072-5.666,28.669-4,42.535a20.543,20.543,0,0,1-16.9,1.813c-.409-.142.336-7.535.378-8.208q.236-3.492.7-6.972a110.1,110.1,0,0,1,2.719-13.733,113.153,113.153,0,0,1,10.5-26.033,109.977,109.977,0,0,1,16.655-22.586c3.154-3.28,7.327-7.807,11.723-3.5,3.609,3.54-.235,7.714-2.988,10.32-3.584,3.4-7.136,6.588-10.125,10.553a63.094,63.094,0,0,0-7.326,12.532q-.717,1.62-1.342,3.28" transform="translate(-65.662 -34.555)" fill="#173449"/>
      <path id="Path_7254" data-name="Path 7254" d="M270.059,326.2c6.474,16.9,13.442,32.164,25.624,45.549,4.038,4.442,8.232,8.213,13.678,10.739,1.43-4.231,3.1-9.414,5.513-13.171-15.614-9.019-19.132-23.364-23.439-40.87-1.991.311-12.274-1.365-14.262-1.69a41.2,41.2,0,0,0-7.114-.557" transform="translate(-66.858 -80.757)" fill="#173449"/>
      <path id="Path_7255" data-name="Path 7255" d="M178.252,153.058c-12.218,8.934-19.822,22.8-27.067,36.093H134.008s15.773-32.367,43.132-37.862Z" transform="translate(-33.176 -37.454)" fill="#173449"/>
    </g>
  </g>
</svg>
