<svg xmlns="http://www.w3.org/2000/svg" width="30.056" height="30.057" viewBox="0 0 30.056 30.057">
  <path id="Icon_simple-instagram" data-name="Icon simple-instagram" d="M15.028,0c-4.083,0-4.592.019-6.2.09a11.081,11.081,0,0,0-3.648.7A7.359,7.359,0,0,0,2.522,2.522,7.333,7.333,0,0,0,.789,5.185a11.049,11.049,0,0,0-.7,3.648c-.075,1.6-.09,2.113-.09,6.2s.019,4.592.09,6.2a11.088,11.088,0,0,0,.7,3.648,7.37,7.37,0,0,0,1.733,2.662,7.349,7.349,0,0,0,2.662,1.733,11.1,11.1,0,0,0,3.648.7c1.6.075,2.113.09,6.2.09s4.592-.019,6.2-.09a11.121,11.121,0,0,0,3.648-.7,7.68,7.68,0,0,0,4.4-4.4,11.088,11.088,0,0,0,.7-3.648c.075-1.6.09-2.113.09-6.2s-.019-4.592-.09-6.2a11.114,11.114,0,0,0-.7-3.648,7.376,7.376,0,0,0-1.733-2.662A7.322,7.322,0,0,0,24.872.789a11.056,11.056,0,0,0-3.648-.7C19.621.015,19.111,0,15.028,0Zm0,2.705c4.011,0,4.49.02,6.074.089a8.28,8.28,0,0,1,2.789.52,4.945,4.945,0,0,1,2.853,2.852,8.3,8.3,0,0,1,.517,2.789c.071,1.585.088,2.061.088,6.074s-.019,4.49-.093,6.074a8.457,8.457,0,0,1-.527,2.789A4.772,4.772,0,0,1,25.6,25.622a4.688,4.688,0,0,1-1.728,1.122,8.358,8.358,0,0,1-2.8.517c-1.6.071-2.065.088-6.085.088s-4.491-.019-6.085-.093a8.521,8.521,0,0,1-2.8-.527A4.654,4.654,0,0,1,4.378,25.6a4.563,4.563,0,0,1-1.127-1.728,8.529,8.529,0,0,1-.526-2.8c-.056-1.578-.076-2.065-.076-6.066s.02-4.491.076-6.088a8.519,8.519,0,0,1,.526-2.8A4.455,4.455,0,0,1,4.378,4.394,4.445,4.445,0,0,1,6.105,3.27a8.318,8.318,0,0,1,2.781-.527c1.6-.056,2.066-.075,6.085-.075l.056.038Zm0,4.606a7.717,7.717,0,1,0,7.717,7.717A7.716,7.716,0,0,0,15.028,7.311Zm0,12.726a5.009,5.009,0,1,1,5.009-5.009A5.008,5.008,0,0,1,15.028,20.038ZM24.854,7.007a1.8,1.8,0,1,1-1.8-1.8A1.8,1.8,0,0,1,24.854,7.007Z"/>
</svg>
