<svg xmlns="http://www.w3.org/2000/svg" width="37.571" height="30.546" viewBox="0 0 37.571 30.546">
  <path id="Icon_zocial-twitter" data-name="Icon zocial-twitter" d="M-4.738,26.735q.918.089,1.833.091a15.153,15.153,0,0,0,9.591-3.3A7.427,7.427,0,0,1,2.2,22,7.511,7.511,0,0,1-.523,18.18,7.263,7.263,0,0,0,.913,18.3a7.55,7.55,0,0,0,2.047-.275,7.432,7.432,0,0,1-4.444-2.641,7.469,7.469,0,0,1-1.756-4.9v-.092a7.231,7.231,0,0,0,3.512.947A7.567,7.567,0,0,1-2.248,8.6,7.515,7.515,0,0,1-3.18,4.925a7.487,7.487,0,0,1,1.069-3.88A21.43,21.43,0,0,0,4.9,6.742,21.7,21.7,0,0,0,13.774,9.11a8.667,8.667,0,0,1-.215-1.772A7.413,7.413,0,0,1,15.819,1.9a7.449,7.449,0,0,1,5.468-2.26,7.406,7.406,0,0,1,5.62,2.444A15.509,15.509,0,0,0,31.795.191a7.347,7.347,0,0,1-3.36,4.276,15.738,15.738,0,0,0,4.4-1.222,14.789,14.789,0,0,1-3.819,4v1.01a22.1,22.1,0,0,1-.9,6.185,22.01,22.01,0,0,1-2.749,5.927,23.6,23.6,0,0,1-4.414,5.023,19.565,19.565,0,0,1-6.155,3.5,22.494,22.494,0,0,1-7.714,1.3A21.64,21.64,0,0,1-4.738,26.735Z" transform="translate(4.738 0.359)"/>
</svg>
