<svg xmlns="http://www.w3.org/2000/svg" width="1921" height="998.506" viewBox="0 0 1921 998.506">
  <path id="Union_1" data-name="Union 1" d="M.5,993.5V259H0V87.62H.5V87.5H25.063a.385.385,0,0,0,.068-.032l.707.032H40.189c-.077-.037-.117-.08-.1-.131,3.281-.009,3.938-.284,3.351-.687a43.606,43.606,0,0,0,9.9-.17c-1.289.254-1.194.416.365.622a37.62,37.62,0,0,1,10.186.3c3.57-.2-1.826-.365-.444-.779l8.657-.148c-1.236.525,1.323.579,1.371,1H92.469c.4-.46.023-.954,3.274-1.245-2.892-.368-11.289-.931-11.331-.12-4.266.005-1.769-.92-.733-1.245,3.923-.208,2.045.478,4.092.56,3.3-.064,4.061-.89,6.1-.262.89-.3,2.944-.484,3.261-.841a6.592,6.592,0,0,0,2.48-.042c1.9.169,5,1.021,6.651.671,3.115.644-.063,1.327,2.5,2.153,4.036-.159,1.445-.617.7-.954a21.689,21.689,0,0,0,4.246-.229,21.725,21.725,0,0,1,4.243-.228c1.179.1.4,1.371,4.266.868-.808.322-1.372.571-1.572.913h7.075a8.117,8.117,0,0,0-1.429-.356,6.774,6.774,0,0,1,3-.052,17.517,17.517,0,0,0,3.3.1,16.543,16.543,0,0,0-2.275.308h40.594c-4.95-.931-5.851-3.211-11.4-3.441-2.738-.147,2.926-.667,4.514-.86-.31-.122-1.327-.134-1.428-.291a5.277,5.277,0,0,0-2.408.168c-.365.166-.307.332-1.208.051-.731-.114-1.44-.231-1.516-.446,10.219-.209.512-2.794-2.083-3.574,3.487-.532,6.017-1.546.133-1.887-.357-.371.119-.306,1.17-.242a20.529,20.529,0,0,0,2.446.023c-2.938-.405-1.887-.374-3.108-1.046-3.1.785-6.774.6-11.838,1.146,2.89.277-.342.452.557.933-3.634-.573-4.845-1.517-5.278-2.579a58.649,58.649,0,0,1,8.577-.305c-.093-.446-6.619-.487-6.277-.049-4.142-.053,2.587-1.428,2.106-.665,3.312-.2-2.015-.456-.532-.932,6.869-.3,11.732-.859,13.851-1.966,5.08.236-1.949,2.369-.918,2.683,2.585-.517,6.909-.859,6.517-1.679,4.545.021,4.734.723,4.433,1.179,5.4-.207,1.789-.895,5.382-1.507,2.73.238,2.943,1.461-1.652,1.444.873.788,8.857.324,5.76,1.312,2.511-.429,5.75-.787,6.715-1.372a6.557,6.557,0,0,0,2.477-.041c1.183,0,1.426.142,1.671.285.289.169.579.338,2.407.271,4.477-.183,5.7-.693,9.461-.947-2.452-1.2.374-2.438-1.048-3.907a16.477,16.477,0,0,0,5.931-.574,15.893,15.893,0,0,1-4.02.177c-.769-.044-1.988-.088-4.667-.027,5.248-.221,4.062-.766,4.332-1.173a23.963,23.963,0,0,1,3.543.005,5.983,5.983,0,0,0,2.637-.113c1.821.005.709.458,2.757.425,5.029.164.045-.679,3.375-.687,3.907-.069,2.361.59,1.687.756.6.267,3.166.232,5.734.2,3.058-.041,6.121-.082,5.873.388l-4.963.085c.508.432,2.381.364,4.359.3a18.429,18.429,0,0,1,4.663.178c3.59-.2-3-.184-1.593-.6,3.075-.094,3.7.19,4.326.473.584.266,1.167.53,3.749.488a12.8,12.8,0,0,0,4.4-1.018c5.418,0,22.145-.6,13.881-1.966-1.32.26-3.364.442-3.276.841-3.058-.273-.032-1.166.337-1.575a45.042,45.042,0,0,0,7.274.088,61.8,61.8,0,0,1,6.544-.014c-1.021.339-2.173.662-3.179,1,.227.475,1.587.773,4.272.868,1.967-.572,1.07-1.209.238-1.731,6.935.394,1.46,1.135,2.4,2a7.249,7.249,0,0,0,2.392-.2c3.046-.186-4.605.833-5.549,1.194,3.153.537,9.372.057,9.213.783,2.513-.33,4.729-.692,4.233-1.328,3.871.171-.624.7.631,1.088,2.208.224,6.14.186,7.794.495.984-.047,1.144-.177,2.382-.2-2.293-.491-9.623-2.541-7.471-2.07,2.037.01,2.057-.183,3.64-.219-.722-.512-4-.628-3.3-1.356a31.571,31.571,0,0,1,3.758.013,31.875,31.875,0,0,0,3.759.014c.506-.33-2.573-.329-2.569-.112-1.468-.364,2.287-1.565-1.09-1.867-1.725.214-5.449.23-4.582.708.3.221.888.115,1.871.008a18.022,18.022,0,0,1,3.066-.093c.745.734-4.427.353-7.34.283-.013-.223-.043-.445-1.509-.445-.03-.294,4.046-.178,3.453-.531-2.257-.165-4.137-.171-8.864-.161.259-.217,3.025-.181,4.865-.241-.147-.259-.308-.518-.445-.777-1.264-.414-9.826-.269-5.592-1,1.8.006.706.457,2.747.424.665-.418,3.75-.595,4.4-1.016,1.947.6,1.858.161,4.365,1.023,5.875.057,6.768-.389,5.628-1.038-5.215.394-3.844-.146-.162-.311-.546-.71-5.386-.755-4.724-1.646,2.6-.118,2.506.18,2.758.424,1.591-.084,1.783-.308,3.522-.374-5.6-.986-3.446-2.479-9.331-3.137,1.643-.273,4.8-.393,3.156-1,3.165.008,6.018.435,4.179.712q4.907.058,3.443-.529c1.127-.528,1.65.392,1.592.6,9.3-.73-.688-2.831-9.771-1.715-.083-.155-.172-.311-.255-.467a8.671,8.671,0,0,0-2.211.509c-6.786-.12-4.117-1.031-5.948-1.625,4.1.372,5.134-.455,5.737-.883-.361-.4-4.756-.172-6.466-.36,2.488-.517,1.878-.682-.646-1.088,5.849-.27,8.96-.248,8.223-.925,3.021.078,7.352-.043,7.883.42.453-1.154,6.914-2.385,18.272-2.755,3.2-.437,1.724-.906-.733-1.245,8.769.31,2.361,1.778,15.69,1.146.135-.418-4.879-.041-4.085-.561,3.061.059,3.566-.032,2.975-.122-1.1-.17-6.035-.339-5.253.475-6.692-.238,5.257-1.456,8.292-.77,3.813-.175,1.377-.443.79-.8,2.974.072,5.446.668,3.128,1.046.905-.149,3.333-.15,3.516-.373,3.8.46-2.181.749-1.57,1.6,1.185-.175,2.33-.351,3.453-.53,3.882.219-.867,1.139-3.074.868,1.215.191,1.427.534,2.754.709,2.229-.021,2.482-.237,4.858-.242-2.338.455-3.073.386-3.256.841-4.986-.063-7.461-.018-7.079.751a7.671,7.671,0,0,1-2.362-.112,5.806,5.806,0,0,0-1.539-.136c-1.657.076-.8.407-.869.642-.067.189,1.335.153,2.737.116,1.693-.044,3.387-.088,2.5.266a29.613,29.613,0,0,0-3.79-.032c-.93.039-1.954.077-3.749,0,.32-.6,1.328-.759-1.863-1.066-3.606.377,3.186.9-1.846,1.131.413.431,5.649.988,6.468.36-.448,1.015,2.658,1.973,2.089,3.576a8.4,8.4,0,0,0,1.942.054c.693-.026,1.625-.052,3.115.015.27.486-2.343,1.064.812,1.4a27.149,27.149,0,0,1,5.542-.257c1.915.038,3.128.076,1.627-.338,2.835-.275,1.11.529,3.011.89,4.189-.156,1.47-.783.608-1.111,2.522.01,3.851-.1,3.516-.374.518.426,1.834.859,6.846.98.986-.046,1.144-.176,2.379-.2-1.875-.445-4.109-.836-5.765-1.316,6.066-.273,11.335-2.138,1.3-2.063a73.609,73.609,0,0,1,9.279-1.256c-6.04-.356-1.431-1.215-3.732-1.866a79.831,79.831,0,0,0,8,.04c4.065-.108,8-.217,9.941.481a66.525,66.525,0,0,1,6.991-.177c1.869.017,3.963.035,6.648-.058,1.47.781-.287,1.239-2.812,1.618a22.029,22.029,0,0,0,3.813.093c-.593.82-1.484,1.606-6.341,1.991,2.831.241,6.543.347,5.683,1.158a22.056,22.056,0,0,0,3.354-.115,7.208,7.208,0,0,1,2.847.01c2.213-.382,3.308-.684,4.124-1.483,2.079.483,3.409.3,6.1.125,1.546-.1,3.541-.207,6.385-.184-5.344-.66-2.135-1.052-2.519-2.154,4.952.462-1.462,1.668,6.052,1.781-1.925.294-.463.928-.413,1.419,14.868,1.554,14.779-2.046,24.648-2.779-1.048-.121-1.546-.327-1.618-.6a7.262,7.262,0,0,0,2.4-.2c1.948-.131,2.259-.01,2.569.112s.621.243,2.57.112c.033-.447,1.783-.338,5.913-.573-3.493-1.2-3.9-2.308,4.55-2.9-1.033-.122-1.538-.328-1.589-.6,5.3-.049,4.558-.707,8.213-.927,13.474-.209,17.428,1.045,28.25,1.243,3.622-1.492-4.522-1.868-4.571-3.532-4.974.293-7.566.693-9.473.947-1.347-.27,3.414-.583-.357-.622,4.893-.481,7.895-1.156,6.161-2.3a26.812,26.812,0,0,1,3.6-.16c.977.007,2.035.014,3.749-.123-2.127-2.2,2.337-4.14,11.574-5.851.067-3.1,34.12-4.678,49.7-2.737-2.68.168-4.648.408-8.5.459,1.039.787-2.31,1.131-2.7,1.775,8.515,1.352,1.8,3.028,5.211,4.621-1.021-.014-1.337-.137-2.554-.114-1.078,1.385,2.709,2.338-.757,3,1.268.255,3.262.4,4.168.713.462.435-3.278.449-4.594.708,4.714.46-2.443,2.749,7.645,2.38-2.781.521-1.185.721-.394,1.42-7.191-.139-4.067-.745-8.272-1.271-11.43-1.428-25.822-.287-36.883,1.1.23.707-1.647,1.2-2.724,1.776a38.955,38.955,0,0,0,7.711.337c-9.507-1.309,7.3-2.452,16.441-1.852.71.365-2.081.376-.785.8.55.2,2.309.208,2.741.424,3.092-.44,4.206-.319,9.644-.636-.348.333,1.084.4,1.6.6,6.6-1.74,14.225.233,21.507.414-1.75.257-.729.833,2.929.736,3.539-.289-1.981-.579-.62-1.087,1.069-.029,1.74,0,2.411.037.715.035,1.43.07,2.629.032-1.784.259-.622.815-.512,1.267,3.85-.051,3.261-.551,8.494-.461,1.042.121,1.531.328,1.592.6a38.056,38.056,0,0,1,7.523.029c3.06-.18,2.8-.7,4.414-1.018,10.406-.162,12.309.033,21.064-.361,1.382.181,1.547.551,2.935.733,2.161-.074,2.669-.316,2.1-.663a5.67,5.67,0,0,1,2.29.2,7.016,7.016,0,0,0,2.948.175c-.715.414-1.412.747,1.791.914-3.654-.519,14.851-1.134,12.559.1-1.8.033-3.237-.005-4.553-.044a45.521,45.521,0,0,0-7.828.257c5.012.427,6.707.794,11.8.9,1.279-.852,10.271-1.2,11.241-.036,3.79-.151,5.035-.562,8.293-.77-3.218.018,1.536-.3-.365-.622,3.248-.1,3.381.27,4.084.559a17.406,17.406,0,0,1,3.367.177,17.015,17.015,0,0,0,3.1.184c3.119-.479-3.429-.333-3.038-.891,6.055.595,17.32.387,25.428.663.189.366,2.4.419,1.8.91,3.913.006,4.929-.28,5.9-.573a64.158,64.158,0,0,0,6.523.193,47.107,47.107,0,0,1,7.565.353,16.346,16.346,0,0,1-4.522.167c-1.078-.035-2.135-.07-2.912-.041-.3.5,1.922.608,4.179.713-4.551.521-8.249-.534-11.716-.741-1.984.757-13.2,1.213-19.44.96-2.116.422-1.633,1.1-2.817,1.618,1.207-.024.866-.206,1.06-.332a46,46,0,0,1,5.138.226,46.489,46.489,0,0,0,5.142.226c.485.246-1.021.288-.961.488,1.7.393,6.458-.111,8.676-.148-1.746.16-6.627.83.359.621,3.016,1.256-6.115,2.1.4,2.822-4.892-.245-9.415.115-5.836.726a32.764,32.764,0,0,0-7.434.127c-1.759-.586,3.12-1.143-1.957-1.221-3.4.146,2.479,1.225-4.431,1.019.336.627,3.882.76,4.553,1.334a68.293,68.293,0,0,0,8.3-.769c2.236.078-3.57,1.068.818,1.4,4.081-.214.45-.3.795-.8,2.063-.265,4.9.016,7.251-.437,4.61.288-4.168.442-4.6.707-.318.219,1.13.166,2.578.112s2.89-.106,2.578.112c4.476-.453,3.112-.586,6.876-1.059,1.2.428,9.183.479,4.253.869a7.7,7.7,0,0,0,3.262.139c.769-.048,1.739-.1,3.042-.092-.162-.257-.313-.517-.458-.778,8.028.357-3.3,1.071-1.48,1.753q5.883.008,4.6-.706a15.838,15.838,0,0,0,2.9.012,18.453,18.453,0,0,1,3.383.034c-.238.275-3.915-.076-4.776.4-.979.6,4.786.166,4.179.714-2.541.132-3.742.513-6.107.263,1.574.988-7.166.933-5.106,1.97,4.858-.289,8.091-.744,11.839-1.144a35.3,35.3,0,0,0-5.036-.07c.507-.241,1.6-.423,2.106-.666,2.6,0,.7.684,4.083.558-1.316-.376,6.45-.318,6.975-.9a100.814,100.814,0,0,0,11.231-.038c-2.38.246-2.553.715-4.388,1.018a8.168,8.168,0,0,1-2.666-.268,8.149,8.149,0,0,0-2.661-.268,8.714,8.714,0,0,1-4.865.241c-2.251.2.426,1.214-4.592.706.853.527.03.879-.525,1.265-6.278-.051-15.977.062-19.445.963-.707-.625-1.4-1.253-6.915-1.139-1.445.052-.889.3-.961.49a60.071,60.071,0,0,1-6.3-.049c1.688-.6-.651-.749.508-1.264a12.712,12.712,0,0,1,3.1.094,10.38,10.38,0,0,0,2.044.133c6.034-.691-2.728-1.618-5-2.115-1.011.53-4.729.9-5.189,1.817-5.022.134.082-.219-1.6-.6-4.291.01-3.454.529-5.841.73a6.446,6.446,0,0,0,2.56.188,15.263,15.263,0,0,1,2.57.037c-2.4.732-7.217,1.222-14.123,1.5,2.182.462.841.676.734,1.244-3.6-.417-7.629.166-13.632.234,1.017.408,5.4.3,5.5.847,1.957-.1,3.924-.069,5.656-.036,2.6.051,4.677.1,5.393-.311,1.73.075,2.513.294,2.857.58-4.569.026-6.783.291-9.737.481,1.939.474,4.143,1.094,2.258,1.689,4.971.113,3.46-.43,3.256-.841a20.388,20.388,0,0,0,5.867.058c-.436.55,4.712,1.343-1.058,1.741a53.718,53.718,0,0,0,7.345-.281,26.818,26.818,0,0,1,5.76,1.314c2.466-.045,1.331-.452,4.784-.4-1.318.635,1.112.795-.513,1.266,4.486.653,6.353-.6,12.116-.68a7.834,7.834,0,0,0-3.024-.889,7.7,7.7,0,0,1,3.351.02,6.171,6.171,0,0,0,2.934.03c1.581.208,3.8.317,4.173.713,1-.289,4.426-.333,3.264-.839,4.4-.172,7.007-.066,7.711.336,5.321-.954-3.77-.482-5.7-1.159-.137,0,.756-.069,2.024-.139,2.554-.14,6.631-.281,6.885.154.219-.686,1.108-1.541-2.574-2.005,5.58-.046,4.911-.4,8.224-.928.059.574-1.355.628.65,1.088-1.243.021-2.486.044-3.735.064.6.878,3.875.672.829,1.4,4.76-.385,5.113-1.3,3.671-2.264a9.8,9.8,0,0,1,2.387-.2l2.486-.041c.485.245-1.011.288-.967.488,3.118-.027,2.8-.4,4.666-.552a20.179,20.179,0,0,1,4,.4c-3.029.546.187.868-2.907,1.463-3.83.141-1.331-.7-4.163-.714-2.687.426,2.4,1.093,2.249,1.688,2.061-.036,4.109-.072,6.186-.106.978-.13,4.147-.986,4.87-.241,4.836-.284-.532-.314-.449-.778a31.616,31.616,0,0,1,6.278.05c5.863-.625-2.595-1.514-9.49-1.25,3.389-.424,2.523-.258,3.262-.842,4.061-.23,2.2.45,2.939.735,2.054-.181,6.645-.109,5.9-.573a152.1,152.1,0,0,0,19.924-.185c-2.017.333-4.96.571-6.991.9,1.584.711,4.067.179,7.544.027.464.535-1.988.775-3.083,1.152-4.394.228-1.66-.648-4.174-.713-1.6.082-1.787.308-3.537.376,1.489.392,5.3.425,7.9.649a19.2,19.2,0,0,1-4.519.137,53.976,53.976,0,0,0-5.4.033c-.637.494,3.575.24,2.94.733A40.2,40.2,0,0,0,754.3,71.96c-2.427-.021-1.329-.585-5.224-.379-5.174.16-5.536.8-8.036,1.236-5.2.051,1.056-.6-2.938-.733,2.153-.02,5.347-.312,4.414-1.02-4.067.907-10.349,1.59-16.156,2.319-6.008.02-7.059-.721-7.195-1.6-.409-.163-2.529-.062-2.664-.269-2.718.112-.7.874,1.7.757-4.806.288-5.461.769-5.569,1.2-1.558-.043-2.652-.155-2.748-.424a8.277,8.277,0,0,0-2.2.508,6.8,6.8,0,0,0,2.443.051,9.194,9.194,0,0,1,2.608.019c-5.231.865-1.21,1.567,1.44,2.487-2.832-.289-6.779.059-7.246.439-.238.884,10.681,1.484,1.089,1.866-5.248-.325-2.441-2.784-10.033-2.182-2.1-.237,1.577-1.178-4.548-1.336-2.348.1-.625.617-4.67.551.521.6,4.611.644,4.522,1.335-3.269-.471-8.788-.078-7.06.749a15.753,15.753,0,0,1-2.741-.424c-2.169.319-5.5.519-6.98.906a88.047,88.047,0,0,0,14.546,1.321c-.025.289-4.143.166-4.786.393-.466,1.317,9.6,1.01,11.182,2.007,1.45-.049.888-.3.967-.487a106.509,106.509,0,0,0,16.559.5c.761.758-10.271.327-9.363,1.1-1.7-.02-1.24-.373-1.6-.6-4.423-.009-6.305.239-7.152.593-1.7-.019-1.266-.372-1.608-.6-6.591.66-.988.46-9.811.325-1.4.445-1.762,1-8.223.928-2.9.861-.421,1.367-1.1,2.374a22.478,22.478,0,0,0,3.4-.127,20.315,20.315,0,0,1,2.694-.134c-1.736.78-7.319.308-10.7.967a10.11,10.11,0,0,0,2.66.142,16.841,16.841,0,0,1,2.487.083,30.418,30.418,0,0,1-6.013.418,13.891,13.891,0,0,0,3.237.122,18.93,18.93,0,0,1,3.145.083.459.459,0,0,0-.052.08H879.062a2.714,2.714,0,0,1,.726-.546,2.7,2.7,0,0,0-2.388.337c-3.743-.661,4.106-1.328,4.315-2.1,1.335.454,4.386.8,4.957-.106,2.047.372,2.958,1.055,3.114,1.944a19.032,19.032,0,0,1,3.626-.366c.11-.513-1.714-1.4,2.114-1.194-.247-.448.237-1.1-1.609-1.116,2.322-.348,4.77-.676,7.157-1.014,2.6.482.724,1.036.549,1.713-5.979-.365-1.1.2-4.675.96a12.425,12.425,0,0,0,3.423-.2,11.289,11.289,0,0,1,2.679-.22c.585.827-2.022,1.034-3.259,1.5-1.574-.086-2.667-.308-2.75-.8a17.258,17.258,0,0,0-5.275,1.206h17.754a33.508,33.508,0,0,0-5.772-3.648c3.487-.94,6.016-2.768.129-3.451-.361-.686.124-.556,1.19-.427a11.273,11.273,0,0,0,2.426.063c-2.939-.769-1.889-.7-3.11-1.944-3.1,1.406-6.772,1.03-11.837,1.978,2.892.537-.34.825.56,1.714-3.636-1.085-4.848-2.824-5.283-4.77,2.706-.255,5.943-.992,8.577-.473-.094-.817-6.622-.957-6.28-.152-4.142-.137,2.587-2.586,2.105-1.2,3.313-.334-2.016-.855-.534-1.71,6.869-.487,11.732-1.453,13.846-3.458,5.082.483-1.942,4.316-.911,4.9,2.584-.923,6.909-1.507,6.514-3.01,4.545.084,4.736,1.37,4.436,2.2,5.4-.325,1.788-1.617,5.378-2.7,2.73.459,2.947,2.7-1.65,2.623.875,1.45,8.86.68,5.765,2.458,2.509-.76,5.747-1.381,6.71-2.442,1.155.153,2.334.3,2.478-.052,2.578.022.7,1.256,4.08,1.059,4.475-.292,5.7-1.212,9.459-1.638-2.455-2.215.366-4.457-1.058-7.159,2.786.545,4.54-.474,5.929-.99-2.762.554-2.841.416-4.076.277a31.433,31.433,0,0,0-4.611-.089c5.247-.352,4.06-1.36,4.329-2.1a13.113,13.113,0,0,1,3.524.044c1.273.149,2.227.3,2.657-.178,1.82.028.711.845,2.758.8,2.749.191,2.5-.2,2.263-.587-.2-.322-.4-.644,1.111-.635,3.907-.087,2.363,1.1,1.689,1.4.6.494,3.164.456,5.731.419,3.059-.044,6.124-.088,5.878.768-1.654.035-3.316.072-4.964.105.509.795,2.38.689,4.357.584,1.776-.1,3.636-.19,4.667.37,3.59-.326-3-.365-1.594-1.116,3.074-.14,3.7.385,4.327.91.584.491,1.167.981,3.749.929a8.446,8.446,0,0,0,4.393-1.817c5.419.052,22.145-.879,13.878-3.461-1.318.464-3.363.777-3.275,1.507-3.059-.527-.032-2.132.333-2.877,1.715.526,4.48.38,7.271.233a34,34,0,0,1,6.548.041c-1.022.61-2.172,1.19-3.175,1.8.226.87,1.586,1.428,4.273,1.631,1.965-1.029,1.067-2.2.232-3.163,6.94.788,1.464,2.09,2.411,3.681,1.452.014,2.189-.111,2.392-.338,3.046-.311-4.6,1.478-5.547,2.129,3.154,1.013,9.373.2,9.217,1.524,2.511-.579,4.728-1.22,4.229-2.388,3.872.352-.623,1.275.634,2,2.209.432,6.141.4,7.795.984a22.022,22.022,0,0,1,2.381-.34c-2.294-.923-9.629-4.743-7.476-3.859,2.038.037,2.059-.316,3.641-.364-.724-.944-4.007-1.188-3.3-2.514a17.311,17.311,0,0,1,3.759.061,17.429,17.429,0,0,0,3.758.064c.5-.6-2.574-.631-2.57-.234-1.47-.678,2.283-2.839-1.094-3.424-1.725.374-5.45.368-4.581,1.25.3.407.882.222,1.854.038a9.917,9.917,0,0,1,3.084-.145c.747,1.351-4.427.6-7.341.445-.013-.408-.043-.813-1.51-.829-.031-.539,4.046-.286,3.453-.938a62.967,62.967,0,0,0-8.866-.382c.259-.394,3.025-.3,4.863-.391-.146-.475-.308-.95-.445-1.427-1.266-.768-9.828-.589-5.6-1.89,1.8.028.706.842,2.748.8.664-.759,3.75-1.051,4.4-1.814,1.949,1.116,1.859.313,4.369,1.915,5.875.16,6.765-.645,5.625-1.844-5.214.671-3.845-.3-.162-.572-.551-1.3-5.389-1.434-4.729-3.056,2.6-.192,2.5.355,2.758.8,1.59-.14,1.783-.546,3.522-.653-5.6-1.857-3.452-4.566-9.339-5.829,1.643-.483,4.8-.671,3.154-1.791,3.165.047,6.02.854,4.182,1.345q4.906.151,3.442-.936c1.126-.955,1.651.735,1.593,1.113,9.3-1.243-.691-5.185-9.774-3.236-.085-.282-.174-.57-.256-.856a5.614,5.614,0,0,0-2.21.911c-6.787-.286-4.119-1.928-5.952-3.033,4.1.723,5.132-.779,5.736-1.558-.362-.728-4.756-.36-6.467-.722,2.486-.92,1.876-1.229-.649-2,5.848-.435,8.959-.364,8.221-1.61,3.021.173,7.351-.006,7.884.846.45-2.1,6.909-4.294,18.266-4.857,3.2-.768,1.722-1.641-.737-2.283,8.771.653,2.366,3.275,15.692,2.249.134-.76-4.879-.122-4.083-1.063,3.175.144,3.6-.035,2.9-.214-1.229-.316-5.952-.633-5.183.836-6.692-.5,5.253-2.611,8.291-1.324,3.813-.284,1.376-.8.787-1.456,2.974.162,5.448,1.276,3.129,1.945.907-.266,3.334-.244,3.517-.648,3.806.88-2.179,1.349-1.566,2.9,1.184-.31,2.328-.618,3.452-.935,3.882.438-.866,2.076-3.074,1.557,1.217.361,1.428.991,2.757,1.324,2.229-.014,2.482-.407,4.858-.393-2.337.809-3.071.675-3.254,1.506-4.986-.165-7.462-.108-7.078,1.3a4.338,4.338,0,0,1-2.364-.227,3.375,3.375,0,0,0-1.538-.265c-1.657.123-.8.738-.867,1.167-.068.346,1.334.292,2.736.239,1.693-.064,3.388-.128,2.5.51a16.184,16.184,0,0,0-3.777-.1,21.919,21.919,0,0,1-3.762-.03c.318-1.091,1.325-1.373-1.867-1.97-3.606.655,3.189,1.677-1.842,2.051.414.793,5.652,1.864,6.468.724-.446,1.852,2.663,3.632,2.1,6.56a4.581,4.581,0,0,0,1.914.12,19.06,19.06,0,0,1,3.142.056c.272.892-2.341,1.923.816,2.569,1.369-.578,3.723-.5,5.5-.417,1.941.089,3.185.178,1.671-.6,2.836-.476,1.112.979,3.015,1.658,4.188-.245,1.465-1.417.6-2.026,2.522.043,3.851-.141,3.515-.648.519.783,1.838,1.588,6.849,1.861a22.115,22.115,0,0,1,2.379-.338c-1.876-.831-4.111-1.569-5.769-2.461,6.064-.44,11.331-3.8,1.292-3.761,1.87-.97,5.731-1.559,9.276-2.207-6.041-.71-1.434-2.237-3.736-3.448a43.741,43.741,0,0,0,8.015.153c4.061-.158,7.987-.316,9.931.977a36.9,36.9,0,0,1,7.059-.254c1.851.049,3.928.1,6.582-.041,1.472,1.444-.283,2.264-2.809,2.932.228.251,1.446.233,2.669.215.391-.005.783-.012,1.144-.008-.59,1.495-1.479,2.921-6.335,3.58,2.831.469,6.544.7,5.685,2.175a12.112,12.112,0,0,0,3.37-.182c1.2-.207,2.074-.415,2.831.049,2.212-.678,3.307-1.217,4.121-2.672,2.057.9,3.38.6,6.013.3a44.719,44.719,0,0,1,6.472-.283c-5.346-1.259-2.139-1.944-2.525-3.964,4.954.895-1.458,3.036,6.056,3.317-1.925.52-.461,1.694-.411,2.594,14.874,2.989,14.776-3.6,24.646-4.84-1.05-.233-1.549-.612-1.62-1.112,1.457.015,2.182-.109,2.4-.339,1.949-.22,2.259.006,2.57.231s.622.452,2.571.233c.031-.819,1.782-.6,5.913-.992-3.5-2.224-3.91-4.26,4.542-5.265-1.034-.235-1.539-.616-1.589-1.114,5.3-.04,4.556-1.25,8.211-1.616,13.474-.248,17.432,2.084,28.255,2.554,3.621-2.7-4.527-3.462-4.578-6.506a60.864,60.864,0,0,0-9.473,1.638c-1.349-.506,3.412-1.031-.36-1.14,4.894-.832,7.894-2.036,6.157-4.154a14.817,14.817,0,0,1,3.614-.257,20.849,20.849,0,0,0,3.737-.188c-2.132-4.052,2.328-7.55,11.561-10.588.059-5.665,34.111-8.22,49.7-4.515a72.962,72.962,0,0,1-8.5.756c1.042,1.449-2.308,2.047-2.7,3.22,8.52,2.557,1.81,5.556,5.224,8.5-1.021-.035-1.338-.262-2.555-.234-1.075,2.522,2.715,4.3-.749,5.474,1.268.478,3.262.766,4.169,1.344.464.8-3.277.791-4.592,1.25,4.716.89-2.437,5,7.651,4.429-2.78.926-1.183,1.307-.391,2.594-7.192-.325-4.069-1.4-8.276-2.408-11.433-2.724-25.824-.78-36.882,1.656.231,1.3-1.644,2.177-2.72,3.219,1.327.569,3.94.79,7.711.7-9.509-2.491,7.3-4.413,16.439-3.226.71.674-2.081.669-.783,1.452.55.365,2.31.4,2.743.8,3.09-.773,4.2-.542,9.643-1.068-.349.606,1.084.739,1.6,1.116,6.594-3.117,14.225.566,21.508.97-1.749.451-.725,1.514,2.931,1.374,3.539-.493-1.982-1.078-.623-1.994a15.458,15.458,0,0,1,2.412.092,15.58,15.58,0,0,0,2.63.083c-1.784.456-.621,1.487-.51,2.312,3.85-.056,3.261-.975,8.494-.759,1.043.23,1.533.615,1.594,1.113a20.947,20.947,0,0,1,7.523.126c3.06-.3,2.8-1.243,4.413-1.817,3.752-.07,6.4-.067,8.662-.063,4.009.007,6.806.014,12.4-.391,1.382.346,1.548,1.025,2.937,1.371,2.161-.114,2.668-.552,2.1-1.193a3.335,3.335,0,0,1,2.291.4c.438.265.875.531,2.949.351-.716.75-1.411,1.353,1.792,1.688-3.655-.986,14.85-1.926,12.559.3-1.788.043-3.211-.04-4.519-.123a25.147,25.147,0,0,0-7.862.391c5.015.832,6.71,1.517,11.8,1.757,1.277-1.548,10.268-2.088,11.242.046,3.789-.241,5.034-.978,8.291-1.327-3.22,0,1.535-.526-.367-1.141,3.249-.155,3.383.527,4.086,1.062a9.732,9.732,0,0,1,3.366.357,9.485,9.485,0,0,0,3.1.366c3.119-.845-3.429-.642-3.041-1.66,6.059,1.148,17.323.878,25.432,1.465.19.672,2.4.79,1.8,1.681,3.914.052,4.929-.463,5.9-.99,4.433.882,10.144-.138,14.09,1.136-.644.53-2.618.4-4.522.264a25.475,25.475,0,0,0-2.912-.105c-.3.913,1.923,1.133,4.179,1.347-4.549.907-8.249-1.058-11.716-1.472-1.984,1.365-13.2,2.092-19.44,1.567-2.114.751-1.632,2-2.813,2.931,1.208-.031.865-.368,1.059-.6a25.525,25.525,0,0,1,5.141.464,25.643,25.643,0,0,0,5.141.464c.485.452-1.02.515-.96.881,1.706.737,6.458-.14,8.678-.186-1.746.277-6.627,1.453.36,1.14,3.018,2.326-6.11,3.772.405,5.163-4.893-.495-9.415.12-5.834,1.272-4.156-.524-3.82-.336-7.436.159-1.759-1.089,3.119-2.06-1.958-2.254-3.406.231,2.48,2.265-4.429,1.819.336,1.15,3.883,1.428,4.557,2.485a38.31,38.31,0,0,0,8.3-1.326c2.236.166-3.567,1.92.821,2.569,4.082-.353.451-.545.793-1.456,2.064-.465,4.9.076,7.251-.727,4.611.571-4.167.767-4.6,1.246-.318.4,1.129.314,2.575.231s2.892-.165,2.581.231c4.476-.785,3.112-1.041,6.874-1.869,1.2.795,9.184.965,4.253,1.631.965.618,1.686.456,3.215.294a24.455,24.455,0,0,1,3.091-.144c-.162-.473-.314-.95-.461-1.427,8.03.734-3.3,1.926-1.477,3.192q5.885.074,4.6-1.245a8.672,8.672,0,0,0,2.892.05,10.12,10.12,0,0,1,3.389.1c-.1.217-.856.212-1.744.207-1.156-.006-2.545-.013-3.031.473-.977,1.093,4.786.35,4.181,1.346-2.54.215-3.74.9-6.108.42,1.579,1.822-7.164,1.635-5.1,3.553,4.857-.482,8.089-1.283,11.837-1.977-.374-.277-1.9-.24-3.423-.2-.559.014-1.117.028-1.615.026.507-.436,1.6-.757,2.106-1.2,2.6.025.7,1.258,4.085,1.061-1.316-.7,6.45-.517,6.974-1.583,4.705.417,5.15.38,11.232.043-2.381.424-2.553,1.283-4.387,1.818a4.77,4.77,0,0,1-2.668-.518,4.768,4.768,0,0,0-2.661-.517c-1.515.681-2.174,1.265-4.864.393-2.251.344.427,2.226-4.59,1.246.852.97.031,1.608-.522,2.309-6.28-.154-15.979-.044-19.445,1.57-.707-1.149-1.4-2.306-6.917-2.151-1.444.08-.888.545-.96.883a32.934,32.934,0,0,1-6.3-.151c1.686-1.075-.653-1.376.5-2.309a7.079,7.079,0,0,1,3.1.2,5.808,5.808,0,0,0,2.046.264c6.033-1.2-2.732-2.985-5-3.917-1.01.959-4.729,1.592-5.186,3.271-5.022.2.081-.4-1.6-1.116-4.292-.024-3.451.933-5.839,1.276a3.677,3.677,0,0,0,2.552.372,8.4,8.4,0,0,1,2.578.093c-2.4,1.315-7.214,2.162-14.119,2.6,2.182.868.842,1.245.735,2.282-3.6-.8-7.629.229-13.633.293,1.019.757,5.4.6,5.5,1.6a42.887,42.887,0,0,1,5.607-.01c2.628.12,4.723.239,5.443-.515,1.73.152,2.513.563,2.857,1.089a70.147,70.147,0,0,0-9.737.784c.52.238,1.054.5,1.528.764.43.009.868.014,1.224.042-.412.035-.659.072-.977.11.756.461,1.275.952,1.172,1.445.337.068.669.136.968.2-.437.019-.731.018-1.075.024a.823.823,0,0,1-.068.129h0a1.239,1.239,0,0,0-.307.4c4.684.212,3.25-.769,3.049-1.511.877.476,4.721.716,5.867.164-.435,1,4.715,2.5-1.055,3.175-.492.311,6.743-.083,7.344-.443,2.878.56,4.032,1.59,5.764,2.46,2.466-.057,1.33-.813,4.784-.677a.993.993,0,0,0-.372.568,3.835,3.835,0,0,1,1.513.143,6.315,6.315,0,0,0,2.588.1c.035-.389,1.784-.292,5.917-.491-3.022-.906-3.7-1.752,1.676-2.292.187-.14.093-.249-.817-.266,1.105-.081,2.042-.091,3-.093-.494-.1-.836-.229-.869-.393,5.3-.036,4.562-.608,8.22-.8,5.384-.065,9.228.073,12.615.271.016-.625-.258-1.235-1.281-1.744a9.457,9.457,0,0,1-3.476.139c-.22.223,1.311.217,1.512.389-2.818.288-2.724-.667-.64-.946,1.72,0,.841.357,2.507.368a7.343,7.343,0,0,0-1.445-.5,23.846,23.846,0,0,0,4.063-.263c-1.552-.154-.379-.688.351-.774,1.093-.008,1.45.08,1.55.2a19.6,19.6,0,0,1,2.259-.781c.047.806-.76,1.045-.24,1.5a11.508,11.508,0,0,0,2-.457,4.7,4.7,0,0,0-.345-.5c-.023-.155.445-.213,1.018-.252a1.268,1.268,0,0,0-.412-.339,30.82,30.82,0,0,1,3.606-.135c.976.007,2.033.014,3.745-.1-2.111-1.918,2.366-3.6,11.614-5.072.088-2.692,34.151-4.024,49.721-2.318-2.682.143-4.651.35-8.506.389,1.033.686-2.319.981-2.712,1.541,8.507,1.185,1.782,2.633,5.181,4.023-1.021-.013-1.336-.12-2.554-.1-1.085,1.2,2.695,2.036-.776,2.6,1.267.222,3.259.354,4.162.625.461.38-3.28.387-4.6.61,4.711.407-2.462,2.387,7.628,2.079-2.785.45-1.19.625-.4,1.234-7.191-.129-4.062-.653-8.264-1.116a127.28,127.28,0,0,0-17.374-.491c1.291.14,2.635.267,3.757.455-.95.464-2.578.334-4.552.2a29.458,29.458,0,0,0-5.368.01c-.438.615,1.39.615,2.387.84,2.015,0,3.985.05,5.687.149.707.319-2.084.325-.79.693.548.172,2.308.184,2.74.372,3.093-.378,4.207-.272,9.648-.541-.35.289,1.081.346,1.6.525,6.609-1.5,14.224.221,21.5.387-1.752.221-.735.722,2.923.644,3.541-.247-1.977-.507-.614-.947,1.067-.023,1.736.006,2.4.036.717.032,1.433.063,2.636.031-1.786.223-.627.709-.521,1.1,3.85-.04,3.263-.474,8.5-.39,1.04.106,1.53.287,1.588.524a43.626,43.626,0,0,1,7.523.034c3.06-.152,2.807-.6,4.422-.879,10.4-.128,12.308.044,21.064-.288,1.381.16,1.543.482,2.93.641,2.162-.06,2.671-.271,2.106-.573a6.468,6.468,0,0,1,2.289.18,8.019,8.019,0,0,0,2.947.157c-.718.359-1.418.648,1.784.8-3.649-.457,14.859-.967,12.557.1-1.8.026-3.227-.009-4.54-.044a52.351,52.351,0,0,0-7.842.213c5.009.378,6.7.7,11.793.795,1.285-.741,10.279-1.027,11.242-.016,3.79-.128,5.039-.483,8.3-.66-3.219.011,1.538-.256-.361-.542,3.25-.085,3.38.239,4.081.491a19.83,19.83,0,0,1,3.363.159,19.526,19.526,0,0,0,3.1.164c3.121-.413-3.427-.294-3.033-.779,6.052.526,17.317.358,25.422.609.186.319,2.4.368,1.795.793,3.912.012,4.931-.237,5.9-.491,2.007.183,4.278.179,6.528.176a54.156,54.156,0,0,1,7.558.316,18.83,18.83,0,0,1-4.53.14c-1.076-.032-2.129-.064-2.906-.04-.307.435,1.918.532,4.173.626-4.553.445-8.245-.475-11.71-.66-1.989.655-13.2,1.039-19.446.811-2.119.364-1.641.958-2.828,1.4,1.208-.02.867-.177,1.063-.287,2.347-.016,3.743.093,5.14.2s2.79.219,5.136.2c.483.212-1.022.248-.965.422,1.7.345,6.458-.088,8.678-.118-1.748.138-6.633.713.355.541,3.008,1.094-6.127,1.813.381,2.452-4.891-.218-9.417.09-5.841.626a37.486,37.486,0,0,0-7.435.1c-1.755-.511,3.128-.99-1.948-1.064-3.406.121,2.47,1.067-4.438.879.331.545,3.876.665,4.543,1.166a78.375,78.375,0,0,0,8.308-.659c2.236.072-3.578.924.809,1.219,4.082-.181.452-.261.8-.695,2.066-.229,4.9.02,7.255-.371,4.608.256-4.172.379-4.607.608-.319.189,1.127.145,2.574.1s2.892-.088,2.578.1c4.479-.389,3.118-.506,6.883-.913,1.2.374,9.18.428,4.246.761a8.8,8.8,0,0,0,3.252.126c.77-.041,1.744-.082,3.052-.077-.159-.223-.309-.45-.454-.676,8.027.321-3.308.927-1.492,1.522q5.885.015,4.6-.607a18.213,18.213,0,0,0,2.893.014,21.089,21.089,0,0,1,3.388.034c-.24.239-3.914-.071-4.779.339-.984.524,4.785.151,4.174.626a38.32,38.32,0,0,1-6.11.221c1.167.641-3.3.778-4.848,1.176h6.861c1.588-.149,3.111-.3,4.716-.45a40.851,40.851,0,0,0-5.036-.068c.509-.209,1.6-.364,2.111-.576,2.6,0,.695.595,4.081.491-1.314-.329,6.451-.268,6.981-.777,4.7.183,5.148.163,11.231-.018-2.383.211-2.56.618-4.4.879a9.327,9.327,0,0,1-2.663-.238,9.331,9.331,0,0,0-2.66-.236,9.961,9.961,0,0,1-4.865.2c-2.254.171.416,1.056-4.6.608a1.009,1.009,0,0,1,.252.179H1919.5v.121h.5V259h-.5V993.5ZM809.161,86.564c-.517.24-1.621.423-2.121.664-1.069-.09-3.543-.185-3.725.065C801.2,87.207,805.181,86.515,809.161,86.564Zm-114.472-1.02c4.353.373,1.525,1.067,1,1.71C694.07,87.122,692.557,85.967,694.689,85.544ZM12.8,85.64a9.407,9.407,0,0,1,3.286-.271,11.2,11.2,0,0,0,2.723-.148,5.41,5.41,0,0,1,2.241.2,3.878,3.878,0,0,0,1.415.206c-4.369,0-6.3.456-7.79,1.083C11.64,86.639,18.775,85.621,12.8,85.64Zm9.665-.017h.187Zm109.436-1.716c-5.873-.518,2.911-.4,3.079-1.151,1.39.632-4.054,1.83-5.971,2.614C120.253,85.282,128.928,84.154,131.906,83.906Zm696.435,1.229a4.38,4.38,0,0,1-.277-.466c2.508.011,3.851-.1,3.537-.374,3.62.2.564.844-2.848.844C828.616,85.138,828.479,85.136,828.341,85.135ZM108.2,84c.6.257-.8.308-2.3.352,1.571.206,1.67.367.37.624C105.459,84.788,101.217,84.19,108.2,84Zm9.13.629c-3.416-.153-5.618.185-4.179-.714,1-.284.954-.051,1.357.182s1.219.457,3.867.2c.1.155.186.311.28.466-.2.009-.37.014-.513.014C117.545,84.776,117.416,84.7,117.325,84.629Zm701.343-1.057c-2.4.346-1.488,1.021-6.9,1.061C812.474,84.12,814.151,83.7,818.668,83.572Zm-697.983.371a49.485,49.485,0,0,0,5.02.068c.309.332-.753.472-1.982.472C122.2,84.483,120.419,84.269,120.685,83.943Zm571.488-.553c1.838-.088,4.9.6,1.884,1.066C690.438,84.182,694.863,83.722,692.173,83.39ZM57.728,83.3c3.154-.038,3.264.529,1.692.756C55.481,84.01,57.553,83.666,57.728,83.3Zm1.953-.023a10.245,10.245,0,0,0-2.032-.131,27.979,27.979,0,0,1,7.149-.594c1.206.464-4.162.265-2.033.821-.544.028-.981.04-1.343.04A9.706,9.706,0,0,1,59.681,83.272Zm1630.706-.8c2.271.206.045.357,1.774.8C1687.569,83.239,1688.215,82.69,1690.386,82.467Zm16.39.185a12.783,12.783,0,0,0-4.787.339c-2.781-.017-2.189-.771,2.12-.575a132.051,132.051,0,0,0-13.99-.355c-.875-.416,3.1-.4,3.267-.726a5.77,5.77,0,0,1,2.831.507c2.065.056,2.228-.057,2.393-.169s.329-.225,2.39-.169a27.927,27.927,0,0,1,4.08.49c3.721-.015,7.292-.481,8.766.016,1.09-.131.592-.344.687-.828a45.484,45.484,0,0,0,8.15.979c-11-.252-11.662,1.077-20.518,1.1C1703.13,83.009,1706.582,82.975,1706.776,82.652ZM123.565,82.48c7.028.343,5.772-.956,7.854-1.548a4.64,4.64,0,0,0-2.388.2c-3.742-.341,4.107-.748,4.316-1.174,1.335.241,4.386.416,4.958-.085,2.046.192,2.956.561,3.111,1.046a34.16,34.16,0,0,1,3.626-.219c.111-.282-1.712-.757,2.116-.665-.247-.244.239-.6-1.608-.6,2.323-.2,4.77-.4,7.159-.594,2.6.25.723.563.546.934-5.978-.168-1.1.113-4.675.55a22.558,22.558,0,0,0,3.425-.127,20.391,20.391,0,0,1,2.677-.135c.584.449-2.023.576-3.261.84-1.574-.039-2.667-.154-2.748-.422-3.879.245-5.792.682-6.8,1.218,1.713.2,5.334.38,2.94.733-4.278-.053-2.605-1.021-7.8-.495-.5-.244,1.017-.286.975-.486a27.558,27.558,0,0,0-6.3-.049c4.044.342-.257,1.2,5.6,1a24.654,24.654,0,0,1-4.78.4c-.019-.223-.049-.444-1.51-.445-2.282.062-.46.539-2.116.662C127.3,82.809,123.623,82.922,123.565,82.48Zm772.879-1.919c3.375-1.1,6.455.5,5.508,1.6C896.409,81.953,901.623,80.741,896.444,80.562Zm-147.415-.5c3.077-.665,8.7-1.071,10.149-1.9-6.276-.051-3.126.855-8.22.924-.247-.611.905-1.079,6.892-1.061-.288-1.111-1.205-1.575,1.2-2.218,4.738.4-1.354.655,3.211,1.2,5.693-.153,3.425-.675,9.722-.479-2.051.621-11.1.537-10.409,1.436a11.28,11.28,0,0,0,3.016.206,10.928,10.928,0,0,1,3.534.309,39.708,39.708,0,0,1-5.372,1.5c-2.567,0-2.669-.378-5.228-.381-3.329.413,2.281.881.9,1.552C751.811,81.048,759.063,79.737,749.029,80.058Zm-63.571-1.734c1.015-.337,4.547-.417,8.484-.459.856.539,2.509.4,4.327.254a16.747,16.747,0,0,1,4.63.062c-1.183.44-3.929.368-6.5.3-2.968-.083-5.7-.167-5.536.539C684.8,79,695.516,77.972,685.458,78.323Zm-537.374-.976c3.375-.617,6.454.239,5.5.848C148.046,78.108,153.261,77.417,148.084,77.348Zm567.153-1.577c8.138.558,3.233-1.283,9.191-1.415,1.077.609-6.437,1.639,1.173,2.021.41.335-4.344.146-6.092.262C725.521,75.859,715.119,76.534,715.237,75.771ZM727.53,75.4c.362-.655,10.142-.8,10-.015a7.212,7.212,0,0,0-2.387.2C730.95,75.263,735.568,75.137,727.53,75.4ZM873.5,71.289c-.564,1.445.773,1.7,1.1,3.425C871.874,74.551,869.051,71.96,873.5,71.289Zm-136.78,2.7c1.6-.272,8.127-.04,10.965-.5,2.175.066.978.346-1.06.335.725.113,1.439.229,1.528.445q-2.395.065-4.365.064A55.824,55.824,0,0,1,736.721,73.989ZM125.153,72.4c-.568.794.769.924,1.1,1.868C123.521,74.2,120.7,72.794,125.153,72.4Zm594.139,1.73a3.152,3.152,0,0,1-.186-.311c.894-.01,1.607.005,2.191.02,1.44.038,2.082.075,2.667-.259,1.041-.048,1.2.039,1.331.133.053.1.121.207.184.31-1.035.049-1.22-.04-1.337-.132a7.189,7.189,0,0,0-2.289.354C720.842,74.234,720.531,74.11,719.293,74.132Zm714.482-2.267c1.466.018,2.177-.109,2.382-.336,1.933.2,2.9.659,2.932,1.374q-1.1.062-1.974.062Q1433.434,72.966,1433.775,71.865ZM134.526,71.3c-.525.383-1.362.74-.5,1.264C129.761,72.561,130.578,71.351,134.526,71.3ZM755.81,72.4c2.161-.22-1.245-1,4.5-.86-1.679.256.06.861-4.181.861Zm127.063-3.038c-.524.7-1.361,1.34-.5,2.308C878.11,71.626,878.924,69.421,882.873,69.366Zm712.684,2.115c.31-.184,2.038-.242,2.2-.44-.8-.2-1.3.009-1.14.153-6.4-.3,1.8-1.09,6.718-1.185.969.694-3.176,1.13-.162,1.641C1598.513,71.571,1601.678,71.148,1595.557,71.481Zm-895.89-.937c.684-.152,1.328-.305-.188-.312,3.445-.156,5.249.062,11.065-.345,1.394.481-3.917.286-4.682.549.956.306,6.283-.062,5.308.538C706.364,70.791,703.221,70.51,699.667,70.544ZM174.413,68.885a114.3,114.3,0,0,0,12.376-.212c-3.664-.265-1.549-1.052-3.288-1.356,4.857-.261,3.124.89,4.708,1.648-8.68,0-14.759.333-10.142,1.9C174.1,70.33,175.218,69.488,174.413,68.885Zm-144.7.761c3.921-.079.648.6,3.108,1.045C30.417,70.655,27.113,69.892,29.712,69.646Zm1415.361-.11c-.824.016-1.48.033-.967-.476-4.376.524-7.139-.194-8.405,1.046-2.56.534,2.122-1.576,1.75-2.339,2.267,1.23,9.258.713,9.816-.5,1.841.09-.039.256.187.572a17.164,17.164,0,0,0,5.132.461c-2.911,1.091-.644,1.713-5.553,2.131C1447.339,69.5,1446.08,69.516,1445.072,69.537Zm-759.675.15a7.029,7.029,0,0,0,2.382-.2c1.932.1,2.9.345,2.93.735q-1.251.046-2.209.045Q685.067,70.271,685.4,69.687Zm237.358-4.342c3.146.184,9.776.354,12.377-.266-3.666-.519-1.553-1.94-3.293-2.513,4.859-.428,3.127,1.66,4.715,3.061-8.681-.091-14.759.464-10.139,3.375C922.441,67.982,923.561,66.454,922.756,65.345ZM696.706,68.352c-.829.014-1.49.028-.974-.254-4.378.31-7.14-.068-8.406.617-2.562.306,2.122-.873,1.75-1.288,2.267.661,9.257.34,9.818-.326,1.84.039-.039.141.186.312a31.087,31.087,0,0,0,5.131.224c-2.913.611-.646.94-5.555,1.194C698.963,68.32,697.711,68.336,696.706,68.352Zm-475.387-.584c1.124-.227.859-.593,2.013-.819,3.488.553,3.6.778,4.616,1.491C224.833,68.354,226.1,67.6,221.319,67.768Zm1466.41-.551c1.715.62-2.4.72-4.321,1.016C1680.25,67.983,1683.795,67.256,1687.729,67.217ZM162.21,65.172c1.372-.2,4.293-.252,7.361-.284,1.147.833-1.939,1.838.311,2.664C161.514,67.334,167.082,65.643,162.21,65.172Zm615.839.132c3.92-.106.648,1.113,3.109,1.941C778.755,67.155,775.449,65.727,778.048,65.3Zm908.076,1.391c.77-.675,2.127-1.308,9.293-1.082-3.947.154-3.941.568-.688.827-1.443.15-4.345.322-6.6.322C1687.355,66.762,1686.66,66.742,1686.124,66.695Zm-44.767-1.015c1.314-1.007,7.892-1.222,5.037.177-.567.039-1.046.054-1.468.054C1643.447,65.911,1642.68,65.72,1641.357,65.679ZM251.05,63.018c3.089-.03,6.029-.075,6.014-.418,1.361.014,1.027.294,2.665.268.667-.2.4-.418,3.359-.686,1.025-.047,1.193.041,1.311.133-.139.138.579.139,1.336.135-6.416.26-.893,1.248-.144,1.889-1.923-.1-2.9-.347-2.924-.737-1.4.079-2.987.329-1.061.333-.14.329-5.427.137-6.017.418-.611.6,1.943.715,1.957,1.222-1.638.027-3.295.056-4.947.085-.173-.309,3.256-.256,2.122-.666-5.062-.02-2.662.708-7.075.751C250.245,64.7,249.679,63.813,251.05,63.018Zm-25.981,2.643c.969-.916-7.267-.42-.553-.931,1.326-.051,1.4.091,1.477.232.091.172.181.345,2.524.17-1.158.158-.182.534-2.9.534Q225.362,65.666,225.068,65.661ZM259.4,64.445c3.923,0,3.221.895-.612,1.108C259.689,64.955,261.207,65.1,259.4,64.445Zm1390.352.189c2.4.069,5.357-.009,5.214.75-2.066.045-4.118.088-6.181.134C1649.37,65.272,1649.929,65.024,1649.753,64.634ZM266.824,64.317c.724.008,1.687-.02,2.648-.048,2.206-.064,4.409-.128,3.74.251-1.282.027-1.972,0-2.463-.022a10.338,10.338,0,0,0-2.51.107c1.269.259,3.693.337,3.039.892C267.257,65.374,265.78,64.759,266.824,64.317Zm626.154.867c1.315-.557,7.893-.71,5.036.07-.643.028-1.173.038-1.633.038C895.008,65.291,894.25,65.2,892.978,65.183Zm76.684-1.419c1.124-.405.859-1.076,2.012-1.479,3.489,1.045,3.6,1.457,4.621,2.774C973.178,64.869,974.446,63.5,969.662,63.764Zm-68.287.8c2.4.025,5.357-.032,5.213.382l-6.181.107C900.991,64.917,901.55,64.779,901.374,64.566Zm764.479-.279c1.237-.025,2.47-.051,3.719-.079,1.764-.1.163-.861,2.209-.912,5.934-.072-1.97.545.455,1.429-.724-.023-1.684.018-2.643.059-.77.033-1.538.066-2.185.066C1666.2,64.85,1665.415,64.735,1665.853,64.287ZM162.637,63.751c-.015-1.723-.781-.1,3.807.092-.872.156-1.125.374-.863.644a2.623,2.623,0,0,1,.464.124A25.315,25.315,0,0,1,162.637,63.751Zm754.837.539,3.719-.064c1.763-.067.164-.472,2.21-.51,5.934-.071-1.972.308.454.779-.725-.009-1.687.019-2.648.047-.837.024-1.673.048-2.352.048C917.746,64.589,917.056,64.525,917.474,64.29Zm-696.149-.761c-1.206-.464,4.145-.265,2.008-.822,3.888.306,7.33,1.409,1.006,1.711C227.445,63.945,222.418,63.854,221.325,63.529Zm689.219-5.1a40.792,40.792,0,0,1,7.36-.446c1.148,1.536-1.935,3.342.317,4.875C909.855,62.378,915.418,59.342,910.544,58.431ZM258.993,61.626a40.559,40.559,0,0,1,7.163-.595c.2.365.417.725.63,1.087C262.695,62.031,267.509,61.243,258.993,61.626ZM161.69,60a8.012,8.012,0,0,1,5.328.539c-.194,0-.377,0-.55,0C163.7,60.542,163.481,60.15,161.69,60Zm837.694-4.628c3.088-.025,6.03-.077,6.013-.7,1.36.038,1.027.547,2.665.517.668-.351.4-.761,3.358-1.223,1.026-.072,1.194.088,1.312.259-.139.249.579.257,1.336.258-6.414.413-.89,2.275-.14,3.454-1.922-.208-2.9-.664-2.926-1.377-1.4.133-2.987.572-1.06.6-.14.6-5.426.193-6.018.7-.61,1.094,1.948,1.328,1.961,2.254l-4.947.106c-.174-.565,3.256-.436,2.12-1.2-5.061-.086-2.66,1.27-7.073,1.3C998.583,58.433,998.015,56.808,999.384,55.371ZM56.259,59.453c1.385-.251,4.832-.292,4.6-.7l7.423-.128c-1.726.16-6.6.829.371.62-2.689.291-2.146.365-.786.8a25.652,25.652,0,0,1-3.335,0c-1.283-.068-1.966-.136-1.513.238-.2,0-.4,0-.578,0C58.572,60.285,59.212,59.594,56.259,59.453Zm164.8-.632c4.14-.016,2.477.864,3.3,1.357C219.062,60.125,224.441,59.3,221.062,58.821Zm794.1-.92c.724.022,1.687-.019,2.649-.06,2.205-.1,4.408-.191,3.74.5a18.013,18.013,0,0,1-2.432-.06,5.716,5.716,0,0,0-2.542.167c1.27.485,3.692.653,3.041,1.66C1015.6,59.841,1014.12,58.7,1015.163,57.9Zm-7.424.162c3.923.042,3.223,1.669-.61,2.02C1008.027,59,1009.546,59.281,1007.739,58.064Zm-34.333,1.884c.969-1.667-7.266-.839-.553-1.71,1.325-.079,1.4.18,1.477.439.091.317.181.633,2.524.337-1.137.272-.217.949-2.752.949C973.894,59.962,973.663,59.957,973.406,59.947ZM263.625,58.875c9.365.522.977-1.332,5.392-1.5,1.73.074,2.5.294,2.846.578-5.509.31,1.708,1.115-1.485,1.754-2.267-.1-4.148-.454-4.953.085a.962.962,0,0,1,.212.082A5.542,5.542,0,0,1,263.625,58.875ZM245.3,57.463a12.154,12.154,0,0,1,3.856.339c.9.228,1.8.455,5.27.291-1.044.431-4.61.607-5.648,1.039C249.225,58.6,248.589,58.151,245.3,57.463Zm-24.563.873c0-.215-.008-.43-2.591-.247.193-.176,2.388-.149,2.273-.356,2.463.091,3.762.626,1.79.913-.164.005-.311.008-.439.008C220.742,58.654,220.741,58.5,220.739,58.336ZM694.578,57.6c2.273.234.048.411,1.78.913C691.767,58.49,692.408,57.858,694.578,57.6Zm16.393.189a11.168,11.168,0,0,0-4.786.4c-2.781-.017-2.194-.884,2.117-.665a115.2,115.2,0,0,0-13.994-.388c-.878-.478,3.1-.468,3.26-.841,1.732.074,2.5.3,2.837.58,2.065.062,2.227-.068,2.39-.2s.328-.259,2.389-.2a24.547,24.547,0,0,1,4.085.558c3.72-.022,7.288-.563,8.764.006,1.089-.152.59-.4.682-.954a39.95,39.95,0,0,0,8.158,1.116c-11.005-.274-11.655,1.255-20.512,1.293C707.326,58.2,710.778,58.158,710.97,57.787ZM158.452,56.6c3.439.126.47.813.631,1.087C155.644,57.562,158.623,56.877,158.452,56.6Zm811.207-.589c-1.207-.861,4.145-.443,2.006-1.483,3.888.6,7.331,2.651,1.01,3.139C975.78,56.832,970.753,56.616,969.659,56.012Zm-58.694-.175c-.017-3.15-.779-.192,3.812.205-.872.276-1.125.674-.864,1.169.365.164.5.232.466.232A17.184,17.184,0,0,1,910.965,55.836ZM275.716,56a5.865,5.865,0,0,1,3.118,1.045c-1.659.028-3.306.058-4.954.084C273.176,56.621,273.137,56.176,275.716,56Zm-57.263.514c1.922-.5,6.652-.025,5.326.535l-3.723.065C221.553,56.876,221.36,56.5,218.453,56.514ZM270.4,55.462c2.22-.017,2.484-.233,4.86-.24-2.006.383-4.517.716-2.892,1.462l-.555,0C266.857,56.687,272.621,55.95,270.4,55.462Zm-114.788.558c.579-.407,8.254-1.147,8.578-.3a45.339,45.339,0,0,0-4.608.149c-1.019.077-2.034.154-3.818.154Zm59.543-.866c4.088-.062,5,.362,5.5.85C218.975,55.7,215.734,55.632,215.159,55.154Zm-.374-.717c-.954-.01-1.838-.019-2.561-.015-.051-.1-.114-.208-.174-.311,1.069.011,1.132-.081,1.156-.177,4.593.231,4.27.168,10.082.142a28.272,28.272,0,0,1-5.935.378C216.484,54.453,215.609,54.445,214.785,54.437ZM1007.323,52.9a22.845,22.845,0,0,1,7.163-1.018c.2.67.419,1.331.633,2C1011.028,53.681,1015.84,52.287,1007.323,52.9Zm-677.039.121c2.525-.373,2.2-.627-1.7-.756.265-.219,3.014-.183,4.854-.241.052.39.23.757,2.94.735a9.3,9.3,0,0,1-2.919.319C332.516,53.078,331.443,53.039,330.284,53.022Zm-138.2-.924c-.818-.524,3.444-.53,4.5-.864,2.2.3.973.74.833,1.4-.284.007-.545.01-.785.01C193.937,52.644,193.894,52.236,192.089,52.1ZM413.7,50.175c.259-.217,3.02-.182,4.874-.239-.708-.636-3.751-1.791-7.107-1.448-3.145-.278,1.149-1.044,1.639-1.441-6.724-.05-9.827-1.7-2.506-2.156-2.607.923,2.787.121,1.967,1.224,1.349,0,1.26-.138,1.169-.279-.112-.173-.227-.345,2.275-.253-2.323,2.448,7.052,4.405,7.809,6.931C419.011,52.262,423.884,49.977,413.7,50.175ZM259,50.948c1.072-.028,1.746,0,2.42.038.714.035,1.427.07,2.615.033-.5.241-1.591.422-2.107.663h-.23C259.207,51.683,259.028,51.324,259,50.948Zm1195.716.648c.964-.523,4.416-.568,4.606-1.245-1.389-.747-4.5.337-4.784.679-2.781-.058-2.2-1.639,2.115-1.194a63.3,63.3,0,0,0-14-.849c-.88-.883,3.094-.825,3.259-1.507,1.73.152,2.5.563,2.837,1.088,2.065.133,2.228-.1,2.39-.338s.326-.472,2.389-.338c1.349.354,3.519.488,4.086,1.061,3.722-.005,7.289-.96,8.767.1,1.088-.266.589-.718.679-1.738a23.681,23.681,0,0,0,8.161,2.121,35.134,35.134,0,0,0-11.812,1.038A32.427,32.427,0,0,1,1454.8,51.6Zm-11.787-1.752c2.274.45.048.752,1.782,1.685C1440.118,51.448,1440.758,50.3,1442.927,49.844Zm-1221.833.5c3.761-.07,3.421.492,4.281.867A8.884,8.884,0,0,1,221.094,50.343ZM355.2,50.71c-2.513-.02-9.407-.229-11.15.192C339.143,50.514,358.128,49.635,355.2,50.71Zm554.81-1.747c2.477-1.043,5.075.452,5.33,1.038-.135,0-.265,0-.389,0C912.032,50,911.838,49.262,910.012,48.963ZM969.384,47.4c4.14.011,2.479,1.6,3.307,2.514C967.387,49.763,972.764,48.31,969.384,47.4Zm42.567.52c9.367,1.046.974-2.427,5.388-2.7,1.731.153,2.5.563,2.848,1.085-5.509.513,1.711,2.057-1.481,3.194-2.268-.2-4.149-.872-4.954.107.165.1.226.151.213.151A5.332,5.332,0,0,1,1011.951,47.919ZM270.667,45.251c1.136,1.092-6.442,2.566-5.053,4.17C260.993,47.981,265.831,46.226,270.667,45.251ZM354.2,49a15.068,15.068,0,0,1,2.595.383A15.735,15.735,0,0,1,354.2,49ZM226.251,46.328c1.953-.242-.106-.887,1.846-1.13a8.14,8.14,0,0,1,2.662.268,8.073,8.073,0,0,0,2.655.269c5.373-.019,1.342-.447,3.444-.529.126-.173-1-.152-2.12-.132-1.367.025-2.736.049-1.856-.272.891-.01,1.6.005,2.187.02,1.441.037,2.085.074,2.667-.26,1.42,0,.776.143.083.157-.6.431,2.74.255,4.008.4-2.58,1.064-1.091,2.139-2.963,3.5C230.472,48.328,232.449,46.049,226.251,46.328Zm578.32.6c1.387-.445,4.833-.487,4.6-1.245,2.482-.053,4.949-.106,7.424-.161-1.726.277-6.6,1.451.372,1.138-2.69.506-2.147.646-.784,1.454a13.994,13.994,0,0,1-3.306-.023c-1.3-.138-2-.275-1.542.417-.137,0-.268,0-.4,0C806.868,48.507,807.57,47.212,804.571,46.924Zm189.05-1.771a7.034,7.034,0,0,1,3.857.66c.9.426,1.807.851,5.271.584-1.044.777-4.608,1.063-5.647,1.841C997.548,47.262,996.912,46.443,993.622,45.153Zm-631.76,1.988c-.513.436-4.945.475-4.4,1.02C354.455,47.941,357.007,47.049,361.861,47.141Zm607.2-.635c0-.394-.009-.787-2.592-.479.193-.319,2.388-.248,2.273-.626,2.463.19,3.763,1.181,1.792,1.685q-.213.011-.386.011C969.065,47.1,969.063,46.8,969.06,46.507ZM412.876,45.095c-.537-.215-1.076-.43-3.6-.338.106-.569,1.453-.783-.719-1.244a70.607,70.607,0,0,1,7.418-.127c-6.085.6-1.4,1.372,1.178,2.019-.7.035-1.28.051-1.755.051A5.668,5.668,0,0,1,412.876,45.095Zm186.787,0c.311-.212,2.038-.282,2.2-.509-.8-.229-1.3.012-1.139.177-6.4-.336,1.793-1.256,6.709-1.373.974.8-3.167,1.3-.149,1.888C602.622,45.2,605.783,44.706,599.663,45.1Zm-195.344-.257c.122-.173-1-.152-2.13-.131-1.37.025-2.741.049-1.866-.272,3.073-.076,3.982.179,6.384.205-.156.129-1.15.176-1.056.333l-2.481.041C402.868,44.89,403.571,44.864,404.319,44.842Zm619.717-2.063a4.743,4.743,0,0,1,3.12,1.939c-1.658.036-3.3.072-4.953.106C1021.5,43.889,1021.456,43.077,1024.035,42.779Zm-727.8,1.248c4.749-.2,7.2.4,5.413.693-.362.008-.694.013-1,.013C297.65,44.733,297.077,44.359,296.238,44.027Zm610.527-1.31c3.44.264.472,1.489.634,1.993C903.958,44.448,906.937,43.223,906.764,42.717Zm-435.737.665c1.805,0,.717.455,2.749.423-.491.336-1.733.362-3.615.22-.218.256,1.312.248,1.514.445a8.036,8.036,0,0,1-.953.063C468.917,44.532,469.218,43.664,471.028,43.382Zm-222.238.833c1.9-.345-.226-.2-.359-.621,2.021.008,2.045-.184,3.626-.22,3.589.02-1.867.264-2.289.354.754.352,5.7.322,2.929.734A20.472,20.472,0,0,0,248.79,44.214ZM966.77,43.15c1.921-.9,6.653.021,5.329,1.031l-3.725.083C969.871,43.845,969.677,43.163,966.77,43.15Zm51.952-1.41c2.219-.008,2.483-.4,4.859-.39-2.005.68-4.514,1.264-2.888,2.646h-.248C1014.948,44,1020.983,42.675,1018.722,41.739Zm-725.6,1.244c1.163.328,4.358.346,4.256.869-1.233.021-2.476.041-3.71.063C294.345,43.36,290.963,43.3,293.121,42.983Zm183.373-.95c2.755-.03.907.65,1.78.911-.439.022-.818.032-1.144.032C474.15,42.975,475.644,42.15,476.494,42.033Zm486.977-1.4c4.089-.073,5,.711,5.508,1.61C967.289,41.669,964.048,41.511,963.472,40.631ZM298.361,39.123c1.284-.579,2.482-.612.518-1.264,3.443.055,2.295-.352,4.755-.4-.142-.938-7.666-.737-9.583-1.406a9.289,9.289,0,0,1,3.172-.259,27.484,27.484,0,0,0,4.084-.179c-5.708-.289-1.028-1.513-9.678-1.56,5.84-.455-4.866-1.66,2.182-2.709L300,31.244c-1.092-.372-1.587-.618.692-.954,4.537.207,5.769.92,10.639,1.073a18.442,18.442,0,0,1-3.615.22c5.139,1.05,17.788,4.027,2.912,4.975-.789.517,2.2.454,4.075.558-.125.366-3.1.414-4.859.241-10.138.745-3.819,3.646-.9,4.883C299.07,41.868,306.7,39.436,298.361,39.123Zm605.567,2.5c.579-.739,8.252-2.016,8.579-.47a24.874,24.874,0,0,0-4.608.228,23.959,23.959,0,0,1-3.485.246C904.258,41.629,904.1,41.628,903.928,41.625ZM691.8,40.061c1.721.709-2.4.83-4.311,1.173C684.333,40.952,687.871,40.109,691.8,40.061Zm-1.608-.6c.765-.779,2.116-1.508,9.284-1.258-3.944.182-3.936.659-.681.952a66.2,66.2,0,0,1-6.661.381C691.391,39.535,690.718,39.513,690.195,39.461Zm270.341-.2c-.052-.191-.116-.382-.174-.573,1.068.032,1.131-.136,1.155-.311a50.484,50.484,0,0,0,7.468.361c.715,0,1.565,0,2.615,0-.936.512-3.026.636-5.259.636C964.256,39.372,962.047,39.263,960.536,39.262ZM1078.6,37.869c2.525-.656,2.2-1.126-1.7-1.4.263-.4,3.014-.305,4.853-.393.053.713.232,1.386,2.942,1.373a5.093,5.093,0,0,1-2.741.554C1080.967,38.005,1079.831,37.914,1078.6,37.869Zm83.417-4.38c.26-.392,3.02-.3,4.875-.391a7.733,7.733,0,0,0-7.113-2.719c-3.145-.539,1.148-1.9,1.635-2.619-6.724-.157-9.831-3.2-2.511-3.969-2.6,1.662,2.789.248,1.971,2.258,1.35.02,1.259-.239,1.168-.5-.112-.317-.226-.633,2.275-.44-2.318,4.455,7.062,8.127,7.826,12.755C1167.332,37.359,1172.2,33.227,1162.016,33.489ZM940.394,34.811c-.819-.966,3.443-.936,4.5-1.535,2.2.579.975,1.363.836,2.569q-.338.012-.632.012C942.244,35.856,942.233,35.087,940.394,34.811Zm69.746-.067c-2.619,0-2.8-.67-2.836-1.373a15.526,15.526,0,0,1,2.419.094,15.477,15.477,0,0,0,2.616.086c-.495.437-1.589.756-2.105,1.193Zm93.371-.859c-2.511-.06-9.407-.509-11.146.241C1087.453,33.37,1106.438,31.952,1103.511,33.885ZM969.4,31.891c3.759-.092,3.423.932,4.284,1.628C970.626,33.42,970.57,32.5,969.4,31.891Zm133.115-1.141a9.024,9.024,0,0,1,2.6.726A9.384,9.384,0,0,1,1102.512,30.749Zm-83.552-7.682c1.138,2.007-6.435,4.63-5.043,7.575C1009.292,27.962,1014.126,24.8,1018.959,23.067Zm91.2,4.36c-.511.79-4.945.82-4.393,1.819C1102.759,28.815,1105.309,27.212,1110.164,27.427ZM974.544,24.6c1.951-.425-.108-1.624,1.842-2.048a4.776,4.776,0,0,1,2.664.517,4.748,4.748,0,0,0,2.655.517c5.373.02,1.341-.8,3.443-.933.126-.314-1-.288-2.123-.263-1.366.032-2.732.064-1.853-.514.868-.009,1.567.023,2.141.054,1.473.082,2.125.165,2.712-.447,1.421.023.777.269.085.287-.6.783,2.74.493,4.007.777-2.579,1.922-1.085,3.9-2.953,6.378C978.769,28.3,980.741,24.149,974.544,24.6Zm186.636-.41c-.538-.4-1.077-.8-3.6-.655.1-1.039,1.45-1.418-.724-2.282,2.047-.135,5.429-.5,7.42-.158-6.085,1.041-1.4,2.494,1.183,3.705-.644.053-1.178.076-1.628.076A3.625,3.625,0,0,1,1161.18,24.188Zm-8.561-.549c.121-.313-1-.287-2.129-.261-1.371.031-2.742.064-1.868-.516,3.072-.109,3.983.366,6.384.438-.154.233-1.149.311-1.054.6-.83.018-1.653.036-2.482.052C1151.169,23.714,1151.871,23.674,1152.619,23.639Zm66.711-2.008c1.806.024.717.841,2.749.8-.49.608-1.732.644-3.614.365-.217.467,1.314.466,1.515.83a4.579,4.579,0,0,1-.921.105C1217.218,23.732,1217.509,22.133,1219.33,21.632Zm-174.8-.549c4.747-.325,7.2.8,5.413,1.32q-.421.014-.792.014C1045.969,22.416,1045.391,21.712,1044.53,21.083Zm-47.45-.127c1.894-.613-.228-.36-.363-1.14,2.023.036,2.043-.316,3.626-.366,3.59.074-1.866.465-2.288.625.755.651,5.7.645,2.93,1.372C999.666,21.288,999.5,20.815,997.08,20.956Zm227.713-1.739c2.754-.027.908,1.2,1.783,1.683-.4.032-.747.047-1.052.047C1222.42,20.947,1223.934,19.423,1224.793,19.217Zm-183.382-.076c1.163.612,4.36.675,4.258,1.632l-3.71.078C1042.635,19.842,1039.254,19.695,1041.411,19.14Zm5.231-7.008c1.283-1.046,2.479-1.094.516-2.307,3.443.135,2.292-.621,4.755-.678-.146-1.717-7.67-1.424-9.588-2.668.6-.509,1.779-.474,3.191-.441a15.131,15.131,0,0,0,4.064-.288c-5.708-.585-1.031-2.777-9.681-2.948,5.84-.775-4.871-3.084,2.175-4.933,2.062-.043,4.129-.086,6.185-.132-1.093-.691-1.588-1.145.69-1.737,4.539.422,5.771,1.74,10.642,2.067-.087.341-2.177.291-3.614.365,5.141,1.973,17.8,7.541,2.924,9.131-.789.936,2.2.851,4.074,1.061-.124.669-3.1.725-4.858.392-10.137,1.264-3.81,6.632-.884,8.923C1047.358,17.161,1054.978,12.787,1046.641,12.132Z" transform="translate(0.5 4.506)" fill="#fff" stroke="rgba(0,0,0,0)" stroke-width="1"/>
</svg>
